<?xml version="1.0" encoding="utf-8"?>
<!-- Generator: Adobe Illustrator 18.1.1, SVG Export Plug-In . SVG Version: 6.00 Build 0)  -->
<!DOCTYPE svg PUBLIC "-//W3C//DTD SVG 1.1//EN" "http://www.w3.org/Graphics/SVG/1.1/DTD/svg11.dtd">
<svg version="1.1" id="Layer_1" xmlns="http://www.w3.org/2000/svg" xmlns:xlink="http://www.w3.org/1999/xlink" x="0px" y="0px"
	 viewBox="0 0 300 300" enable-background="new 0 0 300 300" xml:space="preserve">
<g id="entitlements" display="none">
	<path display="inline" fill="#0875B1" d="M266.5,100.4H152.1c-2.8,0-5.1,2.3-5.1,5.1v169.7c0,2.8,2.3,5.1,5.1,5.1h40.6V239
		c0-2.8,2.3-5.1,5.1-5.1h23c2.8,0,5.1,2.3,5.1,5.1v41.3h40.6c2.8,0,5.1-2.3,5.1-5.1V105.5C271.6,102.7,269.3,100.4,266.5,100.4z
		 M182.6,213.9c0,2.8-2.3,5.1-5.1,5.1h-13.9c-2.8,0-5.1-2.3-5.1-5.1v-13.9c0-2.8,2.3-5.1,5.1-5.1h13.9c2.8,0,5.1,2.3,5.1,5.1V213.9z
		 M182.6,174.8c0,2.8-2.3,5.1-5.1,5.1h-13.9c-2.8,0-5.1-2.3-5.1-5.1v-13.9c0-2.8,2.3-5.1,5.1-5.1h13.9c2.8,0,5.1,2.3,5.1,5.1V174.8z
		 M182.6,135.7c0,2.8-2.3,5.1-5.1,5.1h-13.9c-2.8,0-5.1-2.3-5.1-5.1v-13.9c0-2.8,2.3-5.1,5.1-5.1h13.9c2.8,0,5.1,2.3,5.1,5.1V135.7z
		 M221.3,213.9c0,2.8-2.3,5.1-5.1,5.1h-13.9c-2.8,0-5.1-2.3-5.1-5.1v-13.9c0-2.8,2.3-5.1,5.1-5.1h13.9c2.8,0,5.1,2.3,5.1,5.1V213.9z
		 M221.3,174.8c0,2.8-2.3,5.1-5.1,5.1h-13.9c-2.8,0-5.1-2.3-5.1-5.1v-13.9c0-2.8,2.3-5.1,5.1-5.1h13.9c2.8,0,5.1,2.3,5.1,5.1V174.8z
		 M221.3,135.7c0,2.8-2.3,5.1-5.1,5.1h-13.9c-2.8,0-5.1-2.3-5.1-5.1v-13.9c0-2.8,2.3-5.1,5.1-5.1h13.9c2.8,0,5.1,2.3,5.1,5.1V135.7z
		 M260.1,213.9c0,2.8-2.2,5.1-5,5.1h-14c-2.8,0-5.1-2.3-5.1-5.1v-13.9c0-2.8,2.3-5.1,5.1-5.1h14c2.8,0,5,2.3,5,5.1V213.9z
		 M260.1,174.8c0,2.8-2.2,5.1-5,5.1h-14c-2.8,0-5.1-2.3-5.1-5.1v-13.9c0-2.8,2.3-5.1,5.1-5.1h14c2.8,0,5,2.3,5,5.1V174.8z
		 M260.1,135.7c0,2.8-2.2,5.1-5,5.1h-14c-2.8,0-5.1-2.3-5.1-5.1v-13.9c0-2.8,2.3-5.1,5.1-5.1h14c2.8,0,5,2.3,5,5.1V135.7z"/>
	<path display="inline" fill="#80BAD9" d="M216.2,194.8h-13.9c-2.8,0-5.1,2.3-5.1,5.1v13.9c0,2.8,2.3,5.1,5.1,5.1h13.9
		c2.8,0,5.1-2.3,5.1-5.1v-13.9C221.3,197.1,219.1,194.8,216.2,194.8z"/>
	<path display="inline" fill="#80BAD9" d="M216.2,116.6h-13.9c-2.8,0-5.1,2.3-5.1,5.1v13.9c0,2.8,2.3,5.1,5.1,5.1h13.9
		c2.8,0,5.1-2.3,5.1-5.1v-13.9C221.3,118.9,219.1,116.6,216.2,116.6z"/>
	<path display="inline" fill="#80BAD9" d="M216.2,155.7h-13.9c-2.8,0-5.1,2.3-5.1,5.1v13.9c0,2.8,2.3,5.1,5.1,5.1h13.9
		c2.8,0,5.1-2.3,5.1-5.1v-13.9C221.3,158,219.1,155.7,216.2,155.7z"/>
	<path display="inline" fill="#80BAD9" d="M255.1,155.7h-14c-2.8,0-5.1,2.3-5.1,5.1v13.9c0,2.8,2.3,5.1,5.1,5.1h14
		c2.8,0,5-2.3,5-5.1v-13.9C260.1,158,257.9,155.7,255.1,155.7z"/>
	<path display="inline" fill="#80BAD9" d="M255.1,116.6h-14c-2.8,0-5.1,2.3-5.1,5.1v13.9c0,2.8,2.3,5.1,5.1,5.1h14
		c2.8,0,5-2.3,5-5.1v-13.9C260.1,118.9,257.9,116.6,255.1,116.6z"/>
	<path display="inline" fill="#80BAD9" d="M255.1,194.8h-14c-2.8,0-5.1,2.3-5.1,5.1v13.9c0,2.8,2.3,5.1,5.1,5.1h14
		c2.8,0,5-2.3,5-5.1v-13.9C260.1,197.1,257.9,194.8,255.1,194.8z"/>
	<path display="inline" fill="#80BAD9" d="M177.4,194.8h-13.9c-2.8,0-5.1,2.3-5.1,5.1v13.9c0,2.8,2.3,5.1,5.1,5.1h13.9
		c2.8,0,5.1-2.3,5.1-5.1v-13.9C182.6,197.1,180.3,194.8,177.4,194.8z"/>
	<path display="inline" fill="#80BAD9" d="M177.4,155.7h-13.9c-2.8,0-5.1,2.3-5.1,5.1v13.9c0,2.8,2.3,5.1,5.1,5.1h13.9
		c2.8,0,5.1-2.3,5.1-5.1v-13.9C182.6,158,180.3,155.7,177.4,155.7z"/>
	<path display="inline" fill="#80BAD9" d="M220.8,233.9h-23c-2.8,0-5.1,2.3-5.1,5.1v41.3v0h33.2v0V239
		C225.9,236.2,223.6,233.9,220.8,233.9z"/>
	<path display="inline" fill="#80BAD9" d="M177.4,116.6h-13.9c-2.8,0-5.1,2.3-5.1,5.1v13.9c0,2.8,2.3,5.1,5.1,5.1h13.9
		c2.8,0,5.1-2.3,5.1-5.1v-13.9C182.6,118.9,180.3,116.6,177.4,116.6z"/>
	<path display="inline" fill="#9DC47F" d="M113,88.1h3.8c2,0,3.6-1.6,3.6-3.6V67.8l83.3-22.3l11.2-3l32.6-8.7
		c2.4-0.6,3.8-3.1,3.2-5.5l-1.4-5.3c-0.6-2.4-3.1-3.8-5.5-3.2L119.5,53.1c-0.7-0.7-1.6-1.2-2.6-1.2H67.2c-2,0-3.6,1.6-3.6,3.6V68
		l-31.9,8.5c-2.4,0.6-3.8,3.1-3.2,5.5l1.4,5.3c0.6,2.4,3.1,3.8,5.5,3.2L63.6,83v1.5c0,2,1.6,3.6,3.6,3.6h3.8L50.6,276.7
		c-0.2,2,1.2,3.6,3.2,3.6h7.6l2.1-20.9h57l2.1,20.9h7.6c2,0,3.4-1.6,3.2-3.6L113,88.1z M79.4,101.9l26.3,20.8H77.3L79.4,101.9z
		 M112,175l2.3,22.9l-38-22.9h35.5C111.9,175,111.9,175,112,175z M109.7,152.5l-28.9-19.7h26.9L109.7,152.5z M75.4,141.4l34.4,23.4
		H73.1L75.4,141.4z M109.9,207h-41l2.4-23.3L109.9,207z M116.3,217.2l2.3,22.6L81,217.2H116.3z M103.2,88.1l2.2,21.4L80.6,90
		l0.2-1.8H103.2z M67.4,220.9l47,28.3H64.5L67.4,220.9z"/>
	<polygon display="inline" fill="#80BAD9" points="203.7,68.1 214.9,68.1 214.9,42.5 203.7,45.5 	"/>
	<path display="inline" fill="#FEBF28" d="M183,68.1c-2,0-3.6,1.6-3.6,3.6v13.7c0,2,1.6,3.6,3.6,3.6h52.6c2,0,3.6-1.6,3.6-3.6V71.7
		c0-2-1.6-3.6-3.6-3.6h-20.7h-11.2H183z"/>
</g>
<g id="community-relations">
	<path fill="#9DC47F" d="M9,54.8v187.9l93.8,25.9l93.9-25.9l93.9,25.9V80.7l-93.9-25.9l-93.9,25.9L9,54.8z M9,54.8"/>
	<path fill="#B6DA9B" d="M196.7,54.8l-93.9,25.9v187.9l93.9-25.9V54.8z M196.7,54.8"/>
	<path fill-rule="evenodd" clip-rule="evenodd" fill="#FFFFFF" d="M196.7,54.8l-4,1.1l9.8,23.8l48.9,43.6l-1.6,29.2
		c-5.6-0.4-11.2-0.7-17-1.1c-33.7-2.1-65.7-4-67.2-4l-1.5-1.3c0-0.4,0.5-10,0.8-20.4c0.2-5.3,0.3-10.8,0.4-15.2c0-2.2,0-4.2,0-5.8
		c0-1.6-0.1-2.7-0.3-3.6c-0.6-2.7-2.1-5.8-3.5-8.4c-1.4-2.6-2.6-4.6-2.6-4.6l-0.5-0.8l-5.2-0.4l-0.9-18.4l2.7-2.1l-6.3,1.7l0.9,18.5
		l-35.2-2.9l-1.3-5.7l-3.4,0.9l1.9,8.1l44.7,3.7c0.3,0.5,1,1.6,2.1,3.6c1.3,2.5,2.7,5.6,3.1,7.5c0.1,0.3,0.2,1.4,0.2,2.9
		c0,1.5,0,3.4,0,5.6c0,4.4-0.2,9.8-0.4,15.1c-0.3,8-0.6,14.3-0.7,17.5l-65.9-59l-27.5-8l-3.5-6l-12.1-3.4l6.8,11.6l-33.7-3.7
		l-6.2-17.1l-4.1-1.1l3.4,9.5L9,65.7v3.5l9.6,0.1l0-1.6l3.6,10L60.7,82l0.8,1.4l29,8.4l7.4,6.6L9,98.7v3.5l91.7-0.4l1,29.5
		l13.6,12.2l-1.3,37.4l-41.1-7l-5.9-34l12-1.9l-3.1-35.8l-3.5,0.3l2.8,32.5L64,136.9l-55-7v3.5l0.8,0.1L9,139.7v27l4.3-32.8
		l50.2,6.4l5.7,33l-17.8-3l-8.9,36L9,190.1v3.9l72.2,34.8l-0.5,33.7l3.5,1l0.5-34.3l31.1,0.2l0.8-23.4l22.6-1.5l-21.3,59.9l10.3-2.9
		l20.5-57.7l42.3-2.7l35.2,25.3l-20.5,18.6l10,2.8l17-15.4l-0.7,1l47.5,32l10.6,2.9L234.4,231l17.2-15.6l39,21.9v-4l-36.2-20.3
		l1-0.9l2.8-50.4c7.9,0.5,15.4,1.1,21.7,1.6c2.3,0.2,4.3,0.3,6.3,0.5l4.2,48.1l0.2,0.2v-31.7l0.8-16.3c0.3,0-1.1,0.1-0.8,0.1v-8.8
		c-3-0.3-6.3-0.5-10.1-0.8c-6.5-0.5-14-1-21.9-1.6l1.6-29.2l30.4-10.7v-3.7l-7.1,2.5l-33.6-36l0.5-6.2l-3.4-1l-0.6,8.5l33.6,36
		l-19.5,6.9l0-0.5L216,80l9.1-17.4l-3.5-1l-8.3,15.9l-3.5-3.2l-7.5-18.1L196.7,54.8z M282.3,78.4c3.9,9.1,6.4,15,8.2,19.5v-9
		c-1.4-3.2-2.2-5.1-3.9-9.3L282.3,78.4z M104.2,104.1l53.6,48L140.5,201l-23.8,1.5l2.1-60.5l-13.7-12.3L104.2,104.1z M165.8,156
		c3.4,0.2,33.8,1.9,66.4,4c5.8,0.4,11.4,0.7,17.1,1.1l-2.6,46.9l-17.8,16.2L192,197.7l-42,2.7L165.8,156z M54,174.3l59.8,10.2
		l-1.4,41.4l-29.7-0.2l-37-17.8L54,174.3z M102.3,268.5l0.5,0.1l0.5-0.1H102.3z M102.3,268.5"/>
	<path fill-rule="evenodd" clip-rule="evenodd" fill="#80BAD9" d="M8.9,54.8V61l2.8,4.7l6.2,0.1l-3.4-9.5L8.9,54.8z M18.6,57.4
		l6.2,17l33.7,3.7l-6.8-11.6L18.6,57.4z M18.6,67.8l0,1.5l-4.8-0.1l17.1,29.4l66.9-0.3l-7.4-6.6l-29-8.4L60.7,82l-38.5-4.3
		L18.6,67.8z M100.6,101.8l-67.7,0.3l5.1,8.7l35.4,11.5l0.7,0.6l-1.7-20.3l3.5-0.3l2.1,24l24.9,22v-15.9l-1.2-1.1L100.6,101.8z
		 M100.6,101.8"/>
	<g>
		<defs>
			<rect id="SVGID_1_" x="8.7" y="29.7" width="282.4" height="240.7"/>
		</defs>
		<clipPath id="SVGID_2_">
			<use xlink:href="#SVGID_1_"  overflow="visible"/>
		</clipPath>
		<path clip-path="url(#SVGID_2_)" fill-rule="evenodd" clip-rule="evenodd" fill="#80BAD9" d="M290.5,113.1l-30.4,10.7l-1.6,29.2
			c8,0.5,15.5,1.1,21.9,1.6c1.1,0.1,1.9,0.2,2.9,0.2l1-13.3l6.2-1.9V113.1z M196.7,157.8V190l50.8,4.5l1.8-33.4
			c-5.7-0.4-11.3-0.8-17.1-1.1C219,159.2,207.4,158.5,196.7,157.8L196.7,157.8z M258,161.7l-2.8,50.4l-1,0.9l23.6,13.2l4.8-62.7
			c-1-0.1-1.8-0.2-2.9-0.2C273.4,162.8,265.9,162.2,258,161.7L258,161.7z M251.5,215.4L234.4,231l24.8,16.7l18.3-17l0-0.7
			L251.5,215.4L251.5,215.4z M232.6,232.6l-17,15.4l33.3,9.2l7.6-7l-24.6-16.6L232.6,232.6z M232.6,232.6"/>
		<path clip-path="url(#SVGID_2_)" fill="#0875B1" d="M172.9,39.9c13.3-13.3,34.7-13.2,48,0.1c13.3,13.3,13.4,34.8,0.1,48l-24,23.8
			l-24-24C159.7,74.6,159.6,53.2,172.9,39.9L172.9,39.9z M172.9,39.9"/>
	</g>
	<path fill="#FEBF28" d="M184.8,78.2V63.3l-6.1,0.1l18.6-18.6l18.4,18.2l-6.2,0.1v15.2H184.8z M184.8,78.2"/>
	<path fill-rule="evenodd" clip-rule="evenodd" fill="#80BAD9" d="M104.2,104.1l0.8,25.6l13.7,12.3l-0.7,19.7l26.9,23.7l1,0.1
		l11.9-33.4L104.2,104.1L104.2,104.1z M102.8,132.4v15.9l11.9,10.5l0.5-15.2L102.8,132.4z M165.8,156L155,186.4l41.7,3.7v-32.2
		C180.6,156.9,167.8,156.1,165.8,156L165.8,156z M165.8,156"/>
	<path fill="#0875B1" d="M126.6,148.9c-13.3-13.3-34.7-13.2-48,0.1c-13.3,13.3-13.4,34.8-0.1,48l24,23.8l24-24
		C139.8,183.6,139.8,162.2,126.6,148.9L126.6,148.9z M126.6,148.9"/>
	<path fill="#FEBF28" d="M89.9,172v15.2h24.7v-14.9l6.1,0.1l-18.6-18.6l-18.4,18.2L89.9,172z M89.9,172"/>
</g>
<g id="government-affairs" display="none">
	<g display="inline">
		<path fill="#9DC47F" d="M74.7,257.6c0,2.8,2.2,5.1,5.1,5.1h14.1c2.8,0,5.1-2.3,5.1-5.1v-82.2H74.7V257.6z"/>
		<path fill="#9DC47F" d="M116.8,257.6c0,2.8,2.2,5.1,5.1,5.1h14.1c2.8,0,5.1-2.3,5.1-5.1v-82.2h-24.3V257.6z"/>
		<path fill="#9DC47F" d="M158.8,257.6c0,2.8,2.2,5.1,5.1,5.1h14.1c2.8,0,5.1-2.3,5.1-5.1v-82.2h-24.3V257.6z"/>
		<path fill="#9DC47F" d="M201.1,257.6c0,2.8,2.2,5.1,5.1,5.1h14.1c2.8,0,5.1-2.3,5.1-5.1v-82.2h-24.3V257.6z"/>
	</g>
	<g display="inline">
		<path fill="#FEBF28" d="M154,59c5.3,0.4,8.5,2.7,10.1,5.5c6.9,0.1,11.6-0.2,16.7,4.5c0.5-13.3-3.7-14.7-14.6-16.7
			c-4.2-12.5-9-14.9-20.1-14.9v45h8V59z"/>
		<path fill="#0875B1" d="M262.3,129.8h-5.5v-16c0-2.8-2.3-5.1-5.1-5.1h-35.1V88.4c0-1.8-1.4-3.1-3.1-3.1H154v0h-8v0H86.5
			c-1.8,0-3.1,1.4-3.1,3.1v20.3H48.3c-2.8,0-5.1,2.3-5.1,5.1v16h-5.5c-2.8,0-5.1,2.3-5.1,5.1v122.7c0,2.8,2.3,5.1,5.1,5.1h14
			c2.8,0,5.1-2.3,5.1-5.1V166h17.8H99h17.8h24.3h17.8h24.3H201h24.3h17.8v91.6c0,2.8,2.2,5.1,5.1,5.1h14.1c2.8,0,5.1-2.3,5.1-5.1
			V134.9C267.4,132,265.1,129.8,262.3,129.8z"/>
	</g>
</g>
<g id="integrated-communications" display="none">
	<path display="inline" fill="#0875B1" d="M32.2,40.3h197.2c7,0,12.6,5.6,12.6,12.6v155.6c0,7-5.6,12.6-12.6,12.6H32.2
		c-7,0-12.6-5.6-12.6-12.6V52.9C19.6,45.9,25.2,40.3,32.2,40.3L32.2,40.3z"/>
	<path display="inline" fill="#0875B1" d="M130.8,190.2c5.5,0,10,4.7,10,10.5v42.7c0,5.8-4.4,10.5-10,10.5c-5.5,0-10-4.7-10-10.5
		v-42.7C120.9,194.9,125.3,190.2,130.8,190.2L130.8,190.2z"/>
	<path display="inline" fill="#FFFFFF" d="M45.2,59.1h171.3c5.4,0,9.8,4.4,9.8,9.8v120.5c0,5.4-4.4,9.8-9.8,9.8H45.2
		c-5.4,0-9.8-4.4-9.8-9.8V68.8C35.4,63.4,39.8,59.1,45.2,59.1L45.2,59.1z"/>
	<path display="inline" fill="#0875B1" d="M96,239.9h69.7c2.8,0,5,2.2,5,5v9.9c0,2.8-2.2,5-5,5H96c-2.8,0-5-2.2-5-5v-9.9
		C91,242.1,93.2,239.9,96,239.9L96,239.9z"/>
	<path display="inline" fill="#9DC47F" d="M166.8,122.5c-4,0-7.2,3.2-7.2,7.1v123c0,4,3.2,7.1,7.2,7.1h89c4,0,7.2-3.2,7.2-7.1v-100
		l-30.8-30.1H166.8z"/>
	<path display="inline" fill="#3B8B41" d="M232.2,122.5v22.9c0,4,3.2,7.1,7.1,7.1H263L232.2,122.5z"/>
	<rect x="172.6" y="145.8" display="inline" fill="#FEBF28" width="34.9" height="6.7"/>
	<rect x="172.6" y="161.7" display="inline" fill="#FFFFFF" width="77.4" height="6.7"/>
	<rect x="172.6" y="177.5" display="inline" fill="#FFFFFF" width="77.4" height="6.7"/>
	<rect x="172.6" y="193.3" display="inline" fill="#FFFFFF" width="77.4" height="6.7"/>
	<rect x="172.6" y="209.1" display="inline" fill="#FFFFFF" width="77.4" height="6.7"/>
	<rect x="172.6" y="224.9" display="inline" fill="#FFFFFF" width="77.4" height="6.7"/>
	<rect x="172.6" y="240.7" display="inline" fill="#FFFFFF" width="77.4" height="6.7"/>
	<path display="inline" fill="#0875B1" d="M229.8,172h45.7c2.7,0,4.8,2.1,4.8,4.8v78.1c0,2.7-2.2,4.8-4.8,4.8h-45.7
		c-2.7,0-4.8-2.2-4.8-4.8v-78.1C225,174.1,227.1,172,229.8,172L229.8,172z"/>
	<path display="inline" fill="#80BAD9" d="M235.1,179.4h35.2c1.6,0,2.9,1.3,2.9,2.9v62.1c0,1.6-1.3,2.9-2.9,2.9h-35.2
		c-1.6,0-2.9-1.3-2.9-2.9v-62.1C232.1,180.7,233.4,179.4,235.1,179.4L235.1,179.4z"/>
	<path display="inline" fill="#FEBF28" d="M256.4,253.6c0,2.1-1.7,3.7-3.7,3.7c-2.1,0-3.7-1.7-3.7-3.7c0-2,1.7-3.7,3.7-3.7
		C254.7,249.8,256.4,251.5,256.4,253.6L256.4,253.6z"/>
	<path display="inline" fill="#FEBF28" d="M36.6,208.6c0,2.1-1.7,3.7-3.7,3.7c-2.1,0-3.7-1.7-3.7-3.7c0-2,1.7-3.7,3.7-3.7
		C35,204.9,36.6,206.6,36.6,208.6L36.6,208.6z"/>
</g>
<g id="issues-management" display="none">
	<path display="inline" fill="#FFFFFF" d="M94.2,57.3h135.3c6,0,10.9,4.8,10.9,10.9v187.3c0,6-4.8,10.9-10.9,10.9H94.2
		c-6,0-10.9-4.8-10.9-10.9V68.2C83.3,62.2,88.2,57.3,94.2,57.3L94.2,57.3z M94.2,57.3"/>
	<path display="inline" fill="#9DC47F" d="M81.3,44.5h135.3c6,0,10.9,4.8,10.9,10.9v187.3c0,6-4.8,10.9-10.9,10.9H81.3
		c-6,0-10.9-4.9-10.9-10.9V55.3C70.5,49.3,75.3,44.5,81.3,44.5L81.3,44.5z M81.3,44.5"/>
	<path display="inline" fill="#0875B1" d="M70.5,33.6h135.3c6,0,10.9,4.8,10.9,10.9v187.3c0,6-4.8,10.9-10.9,10.9H70.5
		c-6,0-10.9-4.9-10.9-10.9V44.5C59.6,38.4,64.4,33.6,70.5,33.6L70.5,33.6z M70.5,33.6"/>
	<path display="inline" fill="#FFFFFF" d="M125.5,74.2h68.8c0.8,0,1.5,0.7,1.5,1.5V81c0,0.8-0.7,1.5-1.5,1.5h-68.8
		c-0.8,0-1.5-0.7-1.5-1.5v-5.3C124,74.9,124.7,74.2,125.5,74.2L125.5,74.2z M125.5,74.2"/>
	<path display="inline" fill="#FEBF28" d="M89.1,80.5l18.1-18.1c0.6-0.6,1.6-0.6,2.2,0l3.8,3.8c0.6,0.6,0.6,1.6,0,2.2L95,86.5
		c-0.6,0.6-1.6,0.6-2.2,0l-3.8-3.8C88.5,82.1,88.5,81.1,89.1,80.5L89.1,80.5z M89.1,80.5"/>
	<path display="inline" fill="#FEBF28" d="M92.8,86.5l-12-12c-0.6-0.6-0.6-1.6,0-2.2l3.8-3.8c0.6-0.6,1.6-0.6,2.2,0l12,12
		c0.6,0.6,0.6,1.6,0,2.2L95,86.5C94.4,87.1,93.4,87.1,92.8,86.5L92.8,86.5z M92.8,86.5"/>
	<path display="inline" fill="#FFFFFF" d="M125.5,116.6h68.8c0.8,0,1.5,0.7,1.5,1.5v5.3c0,0.8-0.7,1.5-1.5,1.5h-68.8
		c-0.8,0-1.5-0.7-1.5-1.5v-5.3C124,117.3,124.7,116.6,125.5,116.6L125.5,116.6z M125.5,116.6"/>
	<path display="inline" fill="#FEBF28" d="M89.1,123l18.1-18.1c0.6-0.6,1.6-0.6,2.2,0l3.8,3.8c0.6,0.6,0.6,1.6,0,2.2L95,128.9
		c-0.6,0.6-1.6,0.6-2.2,0l-3.8-3.8C88.5,124.5,88.5,123.6,89.1,123L89.1,123z M89.1,123"/>
	<path display="inline" fill="#FEBF28" d="M92.8,128.9l-12-12c-0.6-0.6-0.6-1.6,0-2.2l3.8-3.8c0.6-0.6,1.6-0.6,2.2,0l12,12
		c0.6,0.6,0.6,1.6,0,2.2l-3.8,3.8C94.4,129.5,93.4,129.5,92.8,128.9L92.8,128.9z M92.8,128.9"/>
	<path display="inline" fill="#FFFFFF" d="M125.5,159.1h68.8c0.8,0,1.5,0.7,1.5,1.5v5.3c0,0.8-0.7,1.5-1.5,1.5h-68.8
		c-0.8,0-1.5-0.7-1.5-1.5v-5.3C124,159.8,124.7,159.1,125.5,159.1L125.5,159.1z M125.5,159.1"/>
	<path display="inline" fill="#FEBF28" d="M89.1,165.4l18.1-18.1c0.6-0.6,1.6-0.6,2.2,0l3.8,3.8c0.6,0.6,0.6,1.6,0,2.2L95,171.4
		c-0.6,0.6-1.6,0.6-2.2,0l-3.8-3.8C88.5,167,88.5,166,89.1,165.4L89.1,165.4z M89.1,165.4"/>
	<path display="inline" fill="#FEBF28" d="M92.8,171.4l-12-12c-0.6-0.6-0.6-1.6,0-2.2l3.8-3.8c0.6-0.6,1.6-0.6,2.2,0l12,12
		c0.6,0.6,0.6,1.6,0,2.2l-3.8,3.8C94.4,172,93.4,172,92.8,171.4L92.8,171.4z M92.8,171.4"/>
	<path display="inline" fill="#FFFFFF" d="M125.5,201.5h68.8c0.8,0,1.5,0.7,1.5,1.5v5.3c0,0.8-0.7,1.5-1.5,1.5h-68.8
		c-0.8,0-1.5-0.7-1.5-1.5v-5.3C124,202.2,124.7,201.5,125.5,201.5L125.5,201.5z M125.5,201.5"/>
	<path display="inline" fill="#FEBF28" d="M89.1,207.9l18.1-18.1c0.6-0.6,1.6-0.6,2.2,0l3.8,3.8c0.6,0.6,0.6,1.6,0,2.2L95,213.8
		c-0.6,0.6-1.6,0.6-2.2,0l-3.8-3.8C88.5,209.4,88.5,208.5,89.1,207.9L89.1,207.9z M89.1,207.9"/>
	<path display="inline" fill="#FEBF28" d="M92.8,213.8l-12-12c-0.6-0.6-0.6-1.6,0-2.2l3.8-3.8c0.6-0.6,1.6-0.6,2.2,0l12,12
		c0.6,0.6,0.6,1.6,0,2.2l-3.8,3.8C94.4,214.4,93.4,214.4,92.8,213.8L92.8,213.8z M92.8,213.8"/>
</g>
<g id="strategic-media-relations" display="none">
	<path display="inline" fill="#0875B1" d="M177,150c0,14.9-12.1,27-27,27c-14.9,0-27-12.1-27-27c0-14.9,12.1-27,27-27
		C164.9,123,177,135.1,177,150L177,150z M177,150"/>
	<path display="inline" fill="#0875B1" d="M150,163.9c2.2,0,4,1.8,4,4v83.3c0,2.2-1.8,4-4,4c-2.2,0-4-1.8-4-4v-83.3
		C146,165.6,147.8,163.9,150,163.9L150,163.9z M150,163.9"/>
	<path display="inline" fill="#0875B1" d="M170.6,258.7c0,11.4-9.2,20.6-20.6,20.6c-11.4,0-20.6-9.2-20.6-20.6
		c0-11.4,9.2-20.6,20.6-20.6C161.4,238.1,170.6,247.4,170.6,258.7L170.6,258.7z M170.6,258.7"/>
	<path display="inline" fill="#0875B1" d="M150,136.1c2.2,0,4-1.8,4-4V48.9c0-2.2-1.8-4-4-4c-2.2,0-4,1.8-4,4v83.3
		C146,134.4,147.8,136.1,150,136.1L150,136.1z M150,136.1"/>
	<path display="inline" fill="#0875B1" d="M170.6,41.3c0-11.4-9.2-20.6-20.6-20.6c-11.4,0-20.6,9.2-20.6,20.6s9.2,20.6,20.6,20.6
		C161.4,61.9,170.6,52.6,170.6,41.3L170.6,41.3z M170.6,41.3"/>
	<path display="inline" fill="#0875B1" d="M140.2,159.8c1.5,1.5,1.5,4,0,5.6l-58.9,58.9c-1.5,1.5-4,1.5-5.6,0c-1.6-1.5-1.6-4,0-5.6
		l58.9-58.9C136.1,158.3,138.6,158.3,140.2,159.8L140.2,159.8z M140.2,159.8"/>
	<path display="inline" fill="#0875B1" d="M87.7,241.5c-8,8-21.1,8-29.1,0c-8-8-8-21.1,0-29.1c8-8,21.1-8,29.1,0
		S95.7,233.4,87.7,241.5L87.7,241.5z M87.7,241.5"/>
	<path display="inline" fill="#0875B1" d="M159.8,140.2c1.5,1.5,4,1.5,5.6,0l58.9-58.9c1.5-1.5,1.5-4,0-5.6c-1.5-1.6-4-1.6-5.6,0
		l-58.9,58.9C158.3,136.1,158.3,138.6,159.8,140.2L159.8,140.2z M159.8,140.2"/>
	<path display="inline" fill="#0875B1" d="M241.5,87.7c8-8,8-21.1,0-29.1c-8-8-21.1-8-29.1,0c-8,8-8,21.1,0,29.1
		S233.4,95.7,241.5,87.7L241.5,87.7z M241.5,87.7"/>
	<path display="inline" fill="#0875B1" d="M136.1,150c0,2.2-1.8,4-4,4H48.9c-2.2,0-4-1.8-4-4c0-2.2,1.8-4,4-4h83.3
		C134.4,146,136.1,147.8,136.1,150L136.1,150z M136.1,150"/>
	<path display="inline" fill="#0875B1" d="M41.3,170.6c-11.4,0-20.6-9.2-20.6-20.6c0-11.4,9.2-20.6,20.6-20.6
		c11.4,0,20.6,9.2,20.6,20.6C61.9,161.4,52.6,170.6,41.3,170.6L41.3,170.6z M41.3,170.6"/>
	<path display="inline" fill="#0875B1" d="M163.9,150c0,2.2,1.8,4,4,4h83.3c2.2,0,4-1.8,4-4c0-2.2-1.8-4-4-4h-83.3
		C165.6,146,163.9,147.8,163.9,150L163.9,150z M163.9,150"/>
	<path display="inline" fill="#0875B1" d="M258.7,170.6c11.4,0,20.6-9.2,20.6-20.6c0-11.4-9.2-20.6-20.6-20.6
		c-11.4,0-20.6,9.2-20.6,20.6C238.1,161.4,247.4,170.6,258.7,170.6L258.7,170.6z M258.7,170.6"/>
	<path display="inline" fill="#0875B1" d="M140.2,140.2c-1.6,1.5-4,1.5-5.6,0L75.7,81.3c-1.6-1.5-1.6-4,0-5.6c1.5-1.6,4-1.6,5.6,0
		l58.9,58.9C141.7,136.1,141.7,138.6,140.2,140.2L140.2,140.2z M140.2,140.2"/>
	<path display="inline" fill="#0875B1" d="M58.5,87.7c-8-8-8-21.1,0-29.1c8-8,21.1-8,29.1,0c8,8,8,21.1,0,29.1S66.6,95.7,58.5,87.7
		L58.5,87.7z M58.5,87.7"/>
	<path display="inline" fill="#0875B1" d="M159.8,159.8c-1.5,1.5-1.5,4,0,5.6l58.9,58.9c1.5,1.5,4,1.5,5.6,0c1.5-1.5,1.5-4,0-5.6
		l-58.9-58.9C163.9,158.3,161.4,158.3,159.8,159.8L159.8,159.8z M159.8,159.8"/>
	<path display="inline" fill="#0875B1" d="M212.3,241.5c8,8,21.1,8,29.1,0c8-8,8-21.1,0-29.1c-8-8-21.1-8-29.1,0
		S204.3,233.4,212.3,241.5L212.3,241.5z M212.3,241.5"/>
	<path display="inline" fill="#0875B1" d="M118.8,99.3c-6.8-2.8-10.1-10.6-7.2-17.5c2.8-6.8,10.6-10.1,17.5-7.2
		c6.8,2.8,10.1,10.6,7.2,17.5C133.4,98.9,125.6,102.2,118.8,99.3L118.8,99.3z M118.8,99.3"/>
	<path display="inline" fill="#0875B1" d="M123.8,84.1c-1,0-2.1,0.4-2.8,1.2l-17.5,17.5c2.4,1.3,4.3,3.4,5.5,5.7l17.7-17.7
		c1.5-1.5,1.5-4,0-5.6C125.8,84.5,124.8,84.1,123.8,84.1L123.8,84.1z M123.8,84.1"/>
	<path display="inline" fill="#0875B1" d="M59,117.8c-5.2,5.2-13.7,5.2-18.9,0c-5.2-5.2-5.2-13.7,0-18.9c5.2-5.2,13.7-5.2,18.9,0
		C64.2,104.2,64.2,112.6,59,117.8L59,117.8z M59,117.8"/>
	<path display="inline" fill="#0875B1" d="M45.2,108.1c-1.1,1.9-0.5,4.3,1.4,5.4c1.9,1.1,4.3,0.5,5.4-1.4l28.8-49.9
		c-3.8,1.2-7.4,2.3-11,3.2L45.2,108.1z M45.2,108.1"/>
	<path display="inline" fill="#0875B1" d="M92.1,136.2c-6.8,2.8-14.6-0.4-17.5-7.2c-2.8-6.8,0.4-14.6,7.2-17.5
		c6.8-2.8,14.6,0.4,17.5,7.2C102.2,125.6,98.9,133.4,92.1,136.2L92.1,136.2z M92.1,136.2"/>
	<path display="inline" fill="#0875B1" d="M84.9,121.9c-0.7,0.7-1.2,1.7-1.2,2.8v24.8c2.7-0.8,5.4-0.7,7.9,0.2v-25
		c0-2.2-1.8-4-3.9-4C86.6,120.8,85.6,121.2,84.9,121.9L84.9,121.9z M84.9,121.9"/>
	<path display="inline" fill="#0875B1" d="M62.9,191.6c0,7.4-6,13.4-13.4,13.4c-7.4,0-13.4-6-13.4-13.4c0-7.4,6-13.4,13.4-13.4
		C56.9,178.3,62.9,184.2,62.9,191.6L62.9,191.6z M62.9,191.6"/>
	<path display="inline" fill="#0875B1" d="M46.3,194.5c0.6,2.1,2.7,3.4,4.8,2.8c2.1-0.6,3.4-2.7,2.8-4.8L39,136.8
		c-1.9,3.5-3.7,6.8-5.5,10L46.3,194.5z M46.3,194.5"/>
	<path display="inline" fill="#0875B1" d="M99.3,181.2c-2.8,6.8-10.6,10.1-17.5,7.2c-6.8-2.8-10.1-10.6-7.2-17.5
		c2.8-6.8,10.6-10.1,17.5-7.2C98.9,166.6,102.2,174.4,99.3,181.2L99.3,181.2z M99.3,181.2"/>
	<path display="inline" fill="#0875B1" d="M84.1,176.2c0,1,0.4,2.1,1.2,2.8l17.5,17.5c1.3-2.4,3.4-4.3,5.7-5.5l-17.7-17.7
		c-1.5-1.5-4-1.6-5.6,0C84.5,174.2,84.1,175.2,84.1,176.2L84.1,176.2z M84.1,176.2"/>
	<path display="inline" fill="#0875B1" d="M117.8,241c5.2,5.2,5.2,13.7,0,18.9c-5.2,5.2-13.7,5.2-18.9,0c-5.2-5.2-5.2-13.7,0-18.9
		C104.2,235.8,112.6,235.8,117.8,241L117.8,241z M117.8,241"/>
	<path display="inline" fill="#0875B1" d="M108.1,254.8c1.9,1.1,4.3,0.5,5.4-1.4c1.1-1.9,0.5-4.3-1.4-5.4l-49.9-28.8
		c1.2,3.8,2.3,7.4,3.2,11L108.1,254.8z M108.1,254.8"/>
	<path display="inline" fill="#0875B1" d="M136.2,207.9c2.8,6.8-0.4,14.6-7.2,17.5c-6.8,2.8-14.6-0.4-17.5-7.2
		c-2.8-6.8,0.4-14.6,7.2-17.5C125.6,197.8,133.4,201.1,136.2,207.9L136.2,207.9z M136.2,207.9"/>
	<path display="inline" fill="#0875B1" d="M121.9,215.2c0.7,0.7,1.7,1.2,2.8,1.2h24.8c-0.8-2.7-0.7-5.4,0.2-7.9h-25
		c-2.2,0-4,1.8-4,3.9C120.8,213.5,121.2,214.4,121.9,215.2L121.9,215.2z M121.9,215.2"/>
	<path display="inline" fill="#0875B1" d="M191.6,237.1c7.4,0,13.4,6,13.4,13.4c0,7.4-6,13.4-13.4,13.4c-7.4,0-13.4-6-13.4-13.4
		C178.3,243.1,184.2,237.1,191.6,237.1L191.6,237.1z M191.6,237.1"/>
	<path display="inline" fill="#0875B1" d="M194.5,253.7c2.1-0.6,3.4-2.7,2.8-4.8c-0.6-2.1-2.7-3.4-4.8-2.8L136.8,261
		c3.5,1.9,6.8,3.7,10,5.5L194.5,253.7z M194.5,253.7"/>
	<path display="inline" fill="#0875B1" d="M181.2,200.7c6.8,2.8,10.1,10.6,7.2,17.5c-2.8,6.8-10.6,10.1-17.5,7.2
		c-6.8-2.8-10.1-10.6-7.2-17.5C166.6,201.1,174.4,197.8,181.2,200.7L181.2,200.7z M181.2,200.7"/>
	<path display="inline" fill="#0875B1" d="M176.2,215.9c1,0,2.1-0.4,2.8-1.2l17.5-17.5c-2.4-1.3-4.3-3.4-5.5-5.7l-17.7,17.7
		c-1.5,1.5-1.5,4,0,5.6C174.2,215.5,175.2,215.9,176.2,215.9L176.2,215.9z M176.2,215.9"/>
	<path display="inline" fill="#0875B1" d="M241,182.2c5.2-5.2,13.7-5.2,18.9,0c5.2,5.2,5.2,13.7,0,18.9c-5.2,5.2-13.7,5.2-18.9,0
		C235.8,195.8,235.8,187.4,241,182.2L241,182.2z M241,182.2"/>
	<path display="inline" fill="#0875B1" d="M254.8,191.9c1.1-1.9,0.5-4.3-1.4-5.4c-1.9-1.1-4.3-0.5-5.4,1.4l-28.8,49.9
		c3.8-1.2,7.4-2.3,11-3.2L254.8,191.9z M254.8,191.9"/>
	<path display="inline" fill="#0875B1" d="M207.9,163.8c6.8-2.8,14.6,0.4,17.5,7.2c2.8,6.8-0.4,14.6-7.2,17.5
		c-6.8,2.8-14.6-0.4-17.5-7.2C197.8,174.4,201.1,166.6,207.9,163.8L207.9,163.8z M207.9,163.8"/>
	<path display="inline" fill="#0875B1" d="M215.2,178.1c0.7-0.7,1.2-1.7,1.2-2.8v-24.8c-2.7,0.8-5.4,0.7-7.9-0.2v25
		c0,2.2,1.8,4,3.9,4C213.5,179.2,214.4,178.8,215.2,178.1L215.2,178.1z M215.2,178.1"/>
	<path display="inline" fill="#0875B1" d="M237.1,108.4c0-7.4,6-13.4,13.4-13.4c7.4,0,13.4,6,13.4,13.4c0,7.4-6,13.4-13.4,13.4
		C243.1,121.8,237.1,115.8,237.1,108.4L237.1,108.4z M237.1,108.4"/>
	<path display="inline" fill="#0875B1" d="M253.7,105.6c-0.6-2.1-2.7-3.4-4.8-2.8c-2.1,0.6-3.4,2.7-2.8,4.8l14.9,55.6
		c1.9-3.5,3.7-6.8,5.5-10L253.7,105.6z M253.7,105.6"/>
	<path display="inline" fill="#0875B1" d="M200.7,118.8c2.8-6.8,10.6-10.1,17.5-7.2c6.8,2.8,10.1,10.6,7.2,17.5
		c-2.8,6.8-10.6,10.1-17.5,7.2C201.1,133.4,197.8,125.6,200.7,118.8L200.7,118.8z M200.7,118.8"/>
	<path display="inline" fill="#0875B1" d="M215.9,123.8c0-1-0.4-2.1-1.2-2.8l-17.5-17.5c-1.3,2.4-3.4,4.3-5.7,5.5l17.7,17.7
		c1.5,1.5,4,1.5,5.6,0C215.5,125.8,215.9,124.8,215.9,123.8L215.9,123.8z M215.9,123.8"/>
	<path display="inline" fill="#0875B1" d="M182.2,59c-5.2-5.2-5.2-13.7,0-18.9c5.2-5.2,13.7-5.2,18.9,0c5.2,5.2,5.2,13.7,0,18.9
		C195.8,64.2,187.4,64.2,182.2,59L182.2,59z M182.2,59"/>
	<path display="inline" fill="#0875B1" d="M191.9,45.2c-1.9-1.1-4.3-0.5-5.4,1.4c-1.1,1.9-0.5,4.3,1.4,5.4l49.9,28.8
		c-1.2-3.8-2.3-7.4-3.2-11L191.9,45.2z M191.9,45.2"/>
	<path display="inline" fill="#0875B1" d="M163.8,92.1c-2.8-6.8,0.4-14.6,7.2-17.5c6.8-2.8,14.6,0.4,17.5,7.2
		c2.8,6.8-0.4,14.6-7.2,17.5C174.4,102.2,166.6,98.9,163.8,92.1L163.8,92.1z M163.8,92.1"/>
	<path display="inline" fill="#0875B1" d="M178.1,84.9c-0.7-0.7-1.7-1.2-2.8-1.2h-24.8c0.8,2.7,0.7,5.4-0.2,7.9h25
		c2.2,0,4-1.8,4-3.9C179.2,86.6,178.8,85.6,178.1,84.9L178.1,84.9z M178.1,84.9"/>
	<path display="inline" fill="#0875B1" d="M108.4,62.9c-7.4,0-13.4-6-13.4-13.4c0-7.4,6-13.4,13.4-13.4c7.4,0,13.4,6,13.4,13.4
		C121.8,56.9,115.8,62.9,108.4,62.9L108.4,62.9z M108.4,62.9"/>
	<path display="inline" fill="#0875B1" d="M105.6,46.3c-2.1,0.6-3.4,2.7-2.8,4.8c0.6,2.1,2.7,3.4,4.8,2.8L163.2,39
		c-3.5-1.9-6.8-3.7-10-5.5L105.6,46.3z M105.6,46.3"/>
	<path display="inline" fill="#FFFFFF" d="M160.5,41.3c0-5.8-4.7-10.5-10.5-10.5c-5.8,0-10.5,4.7-10.5,10.5
		c0,5.8,4.7,10.5,10.5,10.5C155.8,51.7,160.5,47,160.5,41.3L160.5,41.3z M160.5,41.3"/>
	<path display="inline" fill="#FFFFFF" d="M160.5,258.7c0-5.8-4.7-10.5-10.5-10.5c-5.8,0-10.5,4.7-10.5,10.5
		c0,5.8,4.7,10.5,10.5,10.5C155.8,269.2,160.5,264.5,160.5,258.7L160.5,258.7z M160.5,258.7"/>
	<path display="inline" fill="#FFFFFF" d="M269.2,150c0-5.8-4.7-10.5-10.5-10.5c-5.8,0-10.5,4.7-10.5,10.5c0,5.8,4.7,10.5,10.5,10.5
		C264.5,160.5,269.2,155.8,269.2,150L269.2,150z M269.2,150"/>
	<path display="inline" fill="#FFFFFF" d="M51.7,150c0-5.8-4.7-10.5-10.5-10.5c-5.8,0-10.5,4.7-10.5,10.5c0,5.8,4.7,10.5,10.5,10.5
		C47,160.5,51.7,155.8,51.7,150L51.7,150z M51.7,150"/>
	<path display="inline" fill="#FFFFFF" d="M237.4,73.1c0-5.8-4.7-10.5-10.5-10.5c-5.8,0-10.5,4.7-10.5,10.5
		c0,5.8,4.7,10.5,10.5,10.5C232.7,83.6,237.4,78.9,237.4,73.1L237.4,73.1z M237.4,73.1"/>
	<path display="inline" fill="#FFFFFF" d="M83.6,73.1c0-5.8-4.7-10.5-10.5-10.5c-5.8,0-10.5,4.7-10.5,10.5c0,5.8,4.7,10.5,10.5,10.5
		C78.9,83.6,83.6,78.9,83.6,73.1L83.6,73.1z M83.6,73.1"/>
	<path display="inline" fill="#FFFFFF" d="M237.4,226.9c0-5.8-4.7-10.5-10.5-10.5c-5.8,0-10.5,4.7-10.5,10.5
		c0,5.8,4.7,10.5,10.5,10.5C232.7,237.4,237.4,232.7,237.4,226.9L237.4,226.9z M237.4,226.9"/>
	<path display="inline" fill="#FFFFFF" d="M83.6,226.9c0-5.8-4.7-10.5-10.5-10.5c-5.8,0-10.5,4.7-10.5,10.5
		c0,5.8,4.7,10.5,10.5,10.5C78.9,237.4,83.6,232.7,83.6,226.9L83.6,226.9z M83.6,226.9"/>
	<path display="inline" fill="#FEBF28" d="M165.6,150c0-8.6-7-15.6-15.6-15.6c-8.6,0-15.6,7-15.6,15.6c0,8.6,7,15.6,15.6,15.6
		C158.6,165.6,165.6,158.6,165.6,150L165.6,150z M165.6,150"/>
	<path display="inline" fill="#80BAD9" d="M131,87c0-3.9-3.2-7.1-7.1-7.1s-7.1,3.2-7.1,7.1c0,3.9,3.2,7.1,7.1,7.1S131,90.9,131,87
		L131,87z M131,87"/>
	<path display="inline" fill="#9DC47F" d="M94.1,123.9c0-3.9-3.2-7.1-7.1-7.1c-3.9,0-7.1,3.2-7.1,7.1S83,131,87,131
		C90.9,131,94.1,127.8,94.1,123.9L94.1,123.9z M94.1,123.9"/>
	<path display="inline" fill="#80BAD9" d="M94.1,176.1c0-3.9-3.2-7.1-7.1-7.1c-3.9,0-7.1,3.2-7.1,7.1c0,3.9,3.2,7.1,7.1,7.1
		C90.9,183.2,94.1,180,94.1,176.1L94.1,176.1z M94.1,176.1"/>
	<path display="inline" fill="#9DC47F" d="M131,213c0-3.9-3.2-7.1-7.1-7.1s-7.1,3.2-7.1,7.1c0,3.9,3.2,7.1,7.1,7.1S131,217,131,213
		L131,213z M131,213"/>
	<path display="inline" fill="#80BAD9" d="M183.2,213c0-3.9-3.2-7.1-7.1-7.1c-3.9,0-7.1,3.2-7.1,7.1c0,3.9,3.2,7.1,7.1,7.1
		C180,220.1,183.2,217,183.2,213L183.2,213z M183.2,213"/>
	<path display="inline" fill="#9DC47F" d="M220.2,176.1c0-3.9-3.2-7.1-7.1-7.1c-3.9,0-7.1,3.2-7.1,7.1c0,3.9,3.2,7.1,7.1,7.1
		C217,183.2,220.2,180,220.2,176.1L220.2,176.1z M220.2,176.1"/>
	<path display="inline" fill="#80BAD9" d="M220.1,123.9c0-3.9-3.2-7.1-7.1-7.1c-3.9,0-7.1,3.2-7.1,7.1s3.2,7.1,7.1,7.1
		C217,131,220.1,127.8,220.1,123.9L220.1,123.9z M220.1,123.9"/>
	<path display="inline" fill="#9DC47F" d="M183.2,87c0-3.9-3.2-7.1-7.1-7.1c-3.9,0-7.1,3.2-7.1,7.1s3.2,7.1,7.1,7.1
		C180,94.1,183.2,90.9,183.2,87L183.2,87z M183.2,87"/>
	<path display="inline" fill="#9DC47F" d="M115.5,49.5c0-3.9-3.2-7.1-7.1-7.1c-3.9,0-7.1,3.2-7.1,7.1c0,3.9,3.2,7.1,7.1,7.1
		C112.3,56.7,115.5,53.5,115.5,49.5L115.5,49.5z M115.5,49.5"/>
	<path display="inline" fill="#80BAD9" d="M56.7,108.4c0-3.9-3.2-7.1-7.1-7.1c-3.9,0-7.1,3.2-7.1,7.1c0,3.9,3.2,7.1,7.1,7.1
		C53.5,115.5,56.7,112.3,56.7,108.4L56.7,108.4z M56.7,108.4"/>
	<path display="inline" fill="#9DC47F" d="M56.7,191.6c0-3.9-3.2-7.1-7.1-7.1c-3.9,0-7.1,3.2-7.1,7.1c0,3.9,3.2,7.1,7.1,7.1
		C53.5,198.8,56.7,195.6,56.7,191.6L56.7,191.6z M56.7,191.6"/>
	<path display="inline" fill="#80BAD9" d="M115.5,250.5c0-3.9-3.2-7.1-7.1-7.1c-3.9,0-7.1,3.2-7.1,7.1c0,3.9,3.2,7.1,7.1,7.1
		C112.3,257.6,115.5,254.4,115.5,250.5L115.5,250.5z M115.5,250.5"/>
	<path display="inline" fill="#9DC47F" d="M198.8,250.5c0-3.9-3.2-7.1-7.1-7.1c-3.9,0-7.1,3.2-7.1,7.1c0,3.9,3.2,7.1,7.1,7.1
		C195.6,257.6,198.8,254.4,198.8,250.5L198.8,250.5z M198.8,250.5"/>
	<path display="inline" fill="#80BAD9" d="M257.6,191.6c0-3.9-3.2-7.1-7.1-7.1c-3.9,0-7.1,3.2-7.1,7.1c0,3.9,3.2,7.1,7.1,7.1
		C254.4,198.8,257.6,195.6,257.6,191.6L257.6,191.6z M257.6,191.6"/>
	<path display="inline" fill="#9DC47F" d="M257.6,108.4c0-3.9-3.2-7.1-7.1-7.1c-3.9,0-7.1,3.2-7.1,7.1c0,3.9,3.2,7.1,7.1,7.1
		C254.4,115.5,257.6,112.3,257.6,108.4L257.6,108.4z M257.6,108.4"/>
	<path display="inline" fill="#80BAD9" d="M198.8,49.5c0-3.9-3.2-7.1-7.1-7.1c-3.9,0-7.1,3.2-7.1,7.1c0,3.9,3.2,7.1,7.1,7.1
		C195.6,56.7,198.8,53.5,198.8,49.5L198.8,49.5z M198.8,49.5"/>
</g>
</svg>
