<?xml version="1.0" encoding="utf-8"?>
<!-- Generator: Adobe Illustrator 16.0.0, SVG Export Plug-In . SVG Version: 6.00 Build 0)  -->
<!DOCTYPE svg PUBLIC "-//W3C//DTD SVG 1.1//EN" "http://www.w3.org/Graphics/SVG/1.1/DTD/svg11.dtd">
<svg version="1.1" id="Layer_1" xmlns="http://www.w3.org/2000/svg" xmlns:xlink="http://www.w3.org/1999/xlink" x="0px" y="0px"
	 width="57.339px" height="48.8px" viewBox="0 0 57.339 48.8" enable-background="new 0 0 57.339 48.8" xml:space="preserve">
<g>
	<path fill="#9CC47F" d="M0.135,5.084v38.125l19.045,5.252l19.046-5.252l19.046,5.252V10.336L38.193,5.084l-19.046,5.252
		L0.135,5.084z"/>
	<path fill="#E2EDD9" d="M38.193,5.084l-19.046,5.252v38.125l19.046-5.252V5.084z"/>
	<path fill="#CEE2BF" d="M38.193,5.084l-0.813,0.237l2,4.812l9.896,8.845l-0.34,5.897c-1.152-0.067-2.271-0.136-3.456-0.237
		c-6.846-0.439-13.318-0.812-13.624-0.812l-0.306-0.271c0-0.068,0.103-2.033,0.17-4.134c0.033-1.084,0.068-2.169,0.068-3.084
		c0-0.44,0-0.847,0-1.151c0-0.306-0.035-0.543-0.068-0.713c-0.102-0.542-0.406-1.186-0.711-1.693
		c-0.271-0.543-0.543-0.916-0.543-0.916l-0.102-0.168l-1.051-0.103l-0.169-3.728l0.542-0.407l-1.254,0.339l0.169,3.762l-7.149-0.609
		L21.18,9.796L20.502,10l0.373,1.626l9.047,0.746c0.068,0.103,0.203,0.305,0.408,0.745c0.271,0.509,0.541,1.119,0.644,1.525
		c0,0.067,0.034,0.305,0.034,0.61s0,0.711,0,1.151c0,0.881-0.034,2-0.067,3.051c-0.067,1.626-0.103,2.88-0.138,3.558L17.452,11.05
		L11.86,9.423l-0.711-1.22L8.674,7.525l1.391,2.373L3.219,9.152L1.965,5.695L1.118,5.458L1.831,7.39L0.034,7.355v0.711l1.932,0.035
		V7.795l0.746,2.033l7.795,0.881l0.168,0.271l5.863,1.694l1.491,1.322L0,14.064v0.711l18.604-0.067l0.203,5.999l2.745,2.475
		l-0.271,7.59l-8.337-1.424l-1.187-6.879l2.441-0.373l-0.611-7.252l-0.711,0.068l0.576,6.607l-2.271,0.34L0.034,20.435v0.711
		l0.17,0.035l-0.17,1.252v5.354l0.881-6.642l10.168,1.287l1.151,6.711l-3.592-0.609L6.846,35.82l-6.778-3.287v0.779l14.64,7.049
		l-0.102,6.846l0.712,0.204l0.103-6.947l6.303,0.034l0.169-4.745l4.608-0.306L22.163,47.58l2.102-0.576l4.168-11.691l8.574-0.541
		l7.15,5.15l-4.135,3.795l2.033,0.576l3.423-3.117l-0.136,0.203l9.625,6.506l2.168,0.61L45.817,40.87l3.49-3.151l7.896,4.439v-0.813
		l-7.32-4.168l0.203-0.17l0.576-10.2c1.592,0.102,3.117,0.203,4.405,0.305c0.476,0.035,0.882,0.068,1.287,0.103l0.543,9.728
		l0.372,0.066V30.57l-0.169-3.287c0.067,0,0.103,0,0.169,0.033v-1.797c-0.609-0.066-1.288-0.102-2.033-0.168
		c-1.32-0.103-2.847-0.203-4.439-0.306l0.34-5.931l6.168-2.17v-0.746l-1.424,0.509l-6.812-7.286l0.104-1.254l-0.713-0.203
		l-0.135,1.729l6.812,7.285l-3.966,1.391v-0.102l-8.98-7.998l1.83-3.525l-0.711-0.202L41.614,9.76l-0.711-0.644l-1.525-3.66
		L38.193,5.084z M55.543,9.896c0.779,1.83,1.287,3.051,1.66,3.932v-1.83c-0.271-0.645-0.441-1.018-0.779-1.864L55.543,9.896z
		 M19.452,15.082l10.879,9.76l-3.525,9.896l-4.812,0.305l0.407-12.268l-2.779-2.508L19.452,15.082z M31.922,25.621
		c0.679,0.033,6.847,0.373,13.453,0.812c1.188,0.068,2.305,0.137,3.457,0.237l-0.508,9.489l-3.627,3.287l-7.455-5.389l-8.539,0.543
		L31.922,25.621z M9.25,29.347l12.133,2.068l-0.306,8.369l-6.032-0.033l-7.488-3.626L9.25,29.347z M19.045,48.427l0.102,0.033
		l0.102-0.033H19.045z"/>
	<path fill="#7FBAD8" d="M0.135,5.084v1.253l0.541,0.949L1.93,7.32L1.219,5.388L0.135,5.084z M2.067,5.626l1.254,3.457l6.846,0.746
		L8.778,7.458L2.067,5.626z M2.067,7.728v0.305H1.084l3.457,5.964l13.557-0.068l-1.491-1.321l-5.863-1.694l-0.169-0.271L2.781,9.794
		L2.067,7.728z M18.706,14.64L4.981,14.708l1.051,1.762l7.186,2.339l0.135,0.135l-0.34-4.101l0.713-0.067l0.406,4.846l5.049,4.439
		v-3.22l-0.236-0.204L18.706,14.64z"/>
	<g>
		<g>
			<g>
				<defs>
					<rect id="SVGID_1_" x="0.068" y="0" width="57.271" height="48.8"/>
				</defs>
				<clipPath id="SVGID_2_">
					<use xlink:href="#SVGID_1_"  overflow="visible"/>
				</clipPath>
				<path clip-path="url(#SVGID_2_)" fill="#7FBAD8" d="M57.204,16.912l-6.168,2.169l-0.339,5.93
					c1.626,0.103,3.151,0.204,4.438,0.306c0.203,0,0.373,0.035,0.576,0.035l0.203-2.679l1.254-0.373v-5.388H57.204z M38.193,25.994
					v6.539l10.304,0.916l0.371-6.777c-1.152-0.066-2.304-0.137-3.455-0.236C42.734,26.263,40.361,26.129,38.193,25.994
					L38.193,25.994z M50.629,26.773l-0.576,10.199l-0.202,0.17l4.776,2.678l0.983-12.709c-0.204,0-0.373-0.033-0.576-0.033
					C53.747,26.976,52.221,26.875,50.629,26.773L50.629,26.773z M49.307,37.65l-3.489,3.152l5.017,3.389l3.728-3.457v-0.135
					L49.307,37.65L49.307,37.65z M45.479,41.142l-3.424,3.117l6.744,1.863l1.524-1.424l-4.981-3.354L45.479,41.142z"/>
			</g>
		</g>
		<g>
			<g>
				<defs>
					<rect id="SVGID_3_" x="0.068" y="0" width="57.271" height="48.8"/>
				</defs>
				<clipPath id="SVGID_4_">
					<use xlink:href="#SVGID_3_"  overflow="visible"/>
				</clipPath>
				<path clip-path="url(#SVGID_4_)" fill="#0075B1" d="M33.379,2.068c2.678-2.678,7.049-2.678,9.728,0.033
					c2.677,2.678,2.711,7.049,0.032,9.727l-4.846,4.846l-4.879-4.88C30.702,9.117,30.668,4.779,33.379,2.068L33.379,2.068z"/>
			</g>
		</g>
	</g>
	<path fill="#7FBAD8" d="M35.786,9.828V6.812h-1.254l3.795-3.762l3.729,3.693h-1.254v3.084H35.786z"/>
	<path fill="#7FBAD8" d="M19.452,15.082l0.17,5.186l2.778,2.508l-0.136,3.998l5.457,4.812l0.203,0.033l2.406-6.777L19.452,15.082
		L19.452,15.082z M19.147,20.841v3.221l2.406,2.135l0.102-3.084L19.147,20.841z M31.922,25.621l-2.203,6.168l8.438,0.744v-6.539
		C34.939,25.791,32.329,25.654,31.922,25.621L31.922,25.621z"/>
	<path fill="#0075B1" d="M23.959,24.164c-2.678-2.678-7.05-2.678-9.727,0.033c-2.678,2.678-2.711,7.05-0.034,9.728l4.847,4.847
		l4.879-4.881C26.635,31.212,26.67,26.875,23.959,24.164L23.959,24.164z"/>
	<path fill="#7FBAD8" d="M16.538,28.874v3.084h5.016v-3.017h1.254l-3.795-3.762l-3.729,3.693L16.538,28.874L16.538,28.874z"/>
</g>
</svg>
