<?xml version="1.0" encoding="utf-8"?>
<!-- Generator: Adobe Illustrator 16.0.0, SVG Export Plug-In . SVG Version: 6.00 Build 0)  -->
<!DOCTYPE svg PUBLIC "-//W3C//DTD SVG 1.1//EN" "http://www.w3.org/Graphics/SVG/1.1/DTD/svg11.dtd">
<svg version="1.1" id="Layer_1" xmlns="http://www.w3.org/2000/svg" xmlns:xlink="http://www.w3.org/1999/xlink" x="0px" y="0px"
	 width="49.34px" height="52.898px" viewBox="0 0 49.34 52.898" enable-background="new 0 0 49.34 52.898" xml:space="preserve">
<g>
	<path fill="#0075B1" d="M48.256,16.367h-23.18c-0.576,0-1.05,0.474-1.05,1.05v34.396c0,0.576,0.475,1.052,1.05,1.052h23.213
		c0.576,0,1.051-0.476,1.051-1.052V17.417C49.307,16.841,48.832,16.367,48.256,16.367L48.256,16.367z"/>
	<path fill="#7FBAD8" d="M27.381,19.654c-0.576,0-1.051,0.475-1.051,1.051v2.812c0,0.576,0.475,1.051,1.051,1.051h2.812
		c0.576,0,1.051-0.475,1.051-1.051v-2.812c0-0.576-0.475-1.051-1.051-1.051H27.381z M35.242,19.654
		c-0.576,0-1.051,0.475-1.051,1.051v2.812c0,0.576,0.475,1.051,1.051,1.051h2.812c0.575,0,1.051-0.475,1.051-1.051v-2.812
		c0-0.576-0.476-1.051-1.051-1.051H35.242z M43.139,19.654c-0.576,0-1.051,0.475-1.051,1.051v2.812c0,0.576,0.475,1.051,1.051,1.051
		h2.848c0.576,0,1.017-0.475,1.017-1.051v-2.812c0-0.576-0.44-1.051-1.017-1.051H43.139z M27.381,27.584
		c-0.576,0-1.051,0.475-1.051,1.051v2.812c0,0.575,0.475,1.051,1.051,1.051h2.812c0.576,0,1.051-0.476,1.051-1.051v-2.812
		c0-0.576-0.475-1.051-1.051-1.051H27.381z M35.242,27.584c-0.576,0-1.051,0.475-1.051,1.051v2.812c0,0.575,0.475,1.051,1.051,1.051
		h2.812c0.575,0,1.051-0.476,1.051-1.051v-2.812c0-0.576-0.476-1.051-1.051-1.051H35.242z M43.139,27.584
		c-0.576,0-1.051,0.475-1.051,1.051v2.812c0,0.575,0.475,1.051,1.051,1.051h2.848c0.576,0,1.017-0.476,1.017-1.051v-2.812
		c0-0.576-0.44-1.051-1.017-1.051H43.139z M27.381,35.513c-0.576,0-1.051,0.476-1.051,1.051v2.812c0,0.576,0.475,1.051,1.051,1.051
		h2.812c0.576,0,1.051-0.475,1.051-1.051v-2.812c0-0.575-0.475-1.051-1.051-1.051H27.381z M35.242,35.513
		c-0.576,0-1.051,0.476-1.051,1.051v2.812c0,0.576,0.475,1.051,1.051,1.051h2.812c0.575,0,1.051-0.475,1.051-1.051v-2.812
		c0-0.575-0.476-1.051-1.051-1.051H35.242z M43.139,35.513c-0.576,0-1.051,0.476-1.051,1.051v2.812c0,0.576,0.475,1.051,1.051,1.051
		h2.848c0.576,0,1.017-0.475,1.017-1.051v-2.812c0-0.575-0.44-1.051-1.017-1.051H43.139z M34.328,43.444
		c-0.576,0-1.051,0.475-1.051,1.051v8.371h6.744v-8.371c0-0.576-0.476-1.051-1.051-1.051H34.328z"/>
	<path fill="#9CC47F" d="M9.521,12.604c-0.407,0-0.78,0.34-0.813,0.746L4.473,52.154c-0.035,0.406,0.236,0.744,0.644,0.744h15.521
		c0.407,0,0.713-0.338,0.645-0.744L17.045,13.35c-0.033-0.406-0.406-0.746-0.812-0.746H9.521z"/>
	<rect x="35.547" y="3.218" fill="#E2EDD9" width="2.271" height="9.929"/>
	<path fill="#9CC47F" d="M0.676,11.554L43.646,0.033c0.476-0.137,0.983,0.169,1.119,0.644l0.271,1.084
		c0.135,0.474-0.17,0.982-0.645,1.118L1.421,14.4c-0.475,0.137-0.983-0.169-1.118-0.644l-0.271-1.084
		C-0.104,12.165,0.202,11.689,0.676,11.554L0.676,11.554z"/>
	<path fill="#E2EDD9" d="M11.146,12.604c-0.236,0-0.439,0.34-0.473,0.779l-4,39.481h12.403l-3.999-39.481
		c-0.034-0.439-0.271-0.779-0.475-0.779H11.146z"/>
	<path fill="#9CC47F" d="M6.742,46.528h12.301c0.407,0,0.746,0.34,0.746,0.745v0.609c0,0.407-0.339,0.746-0.746,0.746H6.742
		c-0.407,0-0.746-0.339-0.746-0.746v-0.609C5.996,46.868,6.335,46.528,6.742,46.528L6.742,46.528z"/>
	<path fill="#9CC47F" d="M7.521,37.989h10.742c0.407,0,0.746,0.338,0.746,0.744v0.61c0,0.406-0.339,0.745-0.746,0.745H7.521
		c-0.407,0-0.746-0.339-0.746-0.745v-0.61C6.809,38.327,7.115,37.989,7.521,37.989L7.521,37.989z"/>
	<path fill="#9CC47F" d="M8.877,29.448h8.032c0.407,0,0.746,0.34,0.746,0.746v0.608c0,0.407-0.339,0.746-0.746,0.746H8.877
		c-0.406,0-0.746-0.339-0.746-0.746v-0.644C8.131,29.753,8.471,29.448,8.877,29.448L8.877,29.448z"/>
	<path fill="#9CC47F" d="M9.656,20.874h6.439c0.406,0,0.746,0.339,0.746,0.746v0.609c0,0.407-0.34,0.746-0.746,0.746H9.656
		c-0.406,0-0.745-0.339-0.745-0.746V21.62C8.945,21.213,9.25,20.874,9.656,20.874L9.656,20.874z"/>
	<path fill="#9CC47F" d="M7.86,6.539h10.065c0.406,0,0.745,0.339,0.745,0.745v5.862c0,0.407-0.339,0.746-0.745,0.746H7.86
		c-0.407,0-0.746-0.339-0.746-0.746V7.284C7.148,6.878,7.453,6.539,7.86,6.539L7.86,6.539z"/>
	<path fill="#9CC47F" d="M4.37,9.488c-0.169,0-0.373,0.033-0.508,0.169h0.881C4.607,9.555,4.505,9.488,4.37,9.488L4.37,9.488z
		 M10.436,14.13l-0.305,2.372l6.405,5.05l-0.373-2.915L10.436,14.13z M9.385,22.094L9.08,24.398l8.506,5.796l-0.373-2.745
		L9.385,22.094z M8.301,30.634L8.03,32.871l10.776,6.506l-0.338-2.609L8.301,30.634z M7.352,38.055l-0.305,2.236l12.844,7.728
		l-0.338-2.609L7.352,38.055z"/>
	<path fill="#0075B1" d="M31.346,9.827h10.642c0.405,0,0.745,0.339,0.745,0.746v2.778c0,0.407-0.34,0.746-0.745,0.746H31.346
		c-0.406,0-0.746-0.339-0.746-0.746v-2.778C30.6,10.131,30.938,9.827,31.346,9.827L31.346,9.827z"/>
</g>
</svg>
