<?xml version="1.0" encoding="utf-8"?>
<!-- Generator: Adobe Illustrator 16.0.0, SVG Export Plug-In . SVG Version: 6.00 Build 0)  -->
<!DOCTYPE svg PUBLIC "-//W3C//DTD SVG 1.1//EN" "http://www.w3.org/Graphics/SVG/1.1/DTD/svg11.dtd">
<svg version="1.1" id="Layer_1" xmlns="http://www.w3.org/2000/svg" xmlns:xlink="http://www.w3.org/1999/xlink" x="0px" y="0px"
	 width="45.953px" height="50.439px" viewBox="0 0 45.953 50.439" enable-background="new 0 0 45.953 50.439" xml:space="preserve">
<g>
	<path fill="#7FBAD8" d="M22.197,0v9.388H10.539c-0.338,0-0.609,0.271-0.609,0.609v3.965H3.084c-0.543,0-0.983,0.441-0.983,0.983
		v3.118H1.017C0.475,18.064,0,18.504,0,19.08v24.028c0,0.542,0.44,1.016,1.017,1.016h2.745c0.542,0,1.018-0.438,1.018-1.016V25.181
		h3.49v9.082c0.271-0.136,0.542-0.203,0.848-0.203h3.896v-8.878h3.49v8.708c0.033-0.033,0.102-0.033,0.136-0.067
		c0.136-0.067,0.237-0.136,0.339-0.169c0.034-0.034,0.068-0.034,0.137-0.068c0,0,0.033,0,0.033-0.032l0.034-0.034l4.067-2.813
		v-5.488h3.49v4.607l3.051,1.085h0.032l0,0c0.476,0.169,0.916,0.542,1.085,0.948c0.204,0.407,0.204,0.712,0.237,0.983l0.136,0.678
		c0.067,0.034,0.137,0.034,0.203,0.066v-8.403h3.491v8.878h3.896c0.237,0,0.508,0.034,0.779,0.136l0.068,0.034v-9.083h3.49v17.926
		c0,0.542,0.439,1.018,0.981,1.018h2.746c0.541,0,1.017-0.44,1.017-1.018V19.047c0-0.542-0.441-1.017-1.017-1.017h-1.085v-3.118
		c0-0.542-0.439-0.982-0.982-0.982h-6.847V9.964c0-0.339-0.271-0.609-0.608-0.609H23.756V4.203c1.017,0.068,1.66,0.542,1.965,1.084
		c1.354,0.034,2.271-0.034,3.253,0.881c0.102-2.608-0.712-2.88-2.847-3.287C25.314,0.475,24.367,0,22.197,0L22.197,0z"/>
	<path fill="#9CC47F" d="M37.244,35.142c-0.102-0.033-0.236-0.067-0.373-0.067h-6.336c-1.492-0.609-4.305-1.694-5.151-1.999
		c-0.476-0.17-0.849-0.102-1.255,0.067c-0.778,0.509-2.846,1.932-3.354,2.406c-0.373,0.371-0.644,1.626-0.745,2.169v0.032
		c0,0-0.17,0.849-0.271,2.103c-0.034,0.203-0.102,0.678-0.068,0.848c0.034,0,0.137,0.033,0.204,0.033
		c0.474,0.102,1.322-0.135,1.593-0.644c0.508-1.118,0.982-2.44,0.982-2.44l0.136-0.305h0.339c0,0,0.645-0.033,1.084-0.271
		c0.475-0.271,0.645-0.475,0.678-0.508l0.34-0.542l0.406,0.474c2.644,2.712,6.947,7.22,7.455,7.593
		c0.103,0.067,0.34,0.067,0.576,0.032c0-0.032,0-0.066,0-0.066h3.321c0.542,0,0.981-0.44,0.981-0.982v-7.049
		C37.854,35.651,37.617,35.279,37.244,35.142L37.244,35.142z M27.451,31.89l-3.322-1.188c-0.778-0.102-1.354,0.103-1.965,0.543
		l-4.608,3.187c-0.034,0-0.779,0.439-1.187,0.644H9.084c-0.543,0-0.983,0.44-0.983,0.983v7.049c0,0.542,0.44,0.982,0.983,0.982
		h4.371c0.645,0.271,1.289,0.542,1.289,0.542c0.236,0.033,0.644,0.103,1.051,0.372c0.305,0.237,0.508,0.44,0.644,0.61
		c0.271,0.033,0.779,0.103,1.254,0.439c0.271,0.204,0.474,0.406,0.644,0.575h0.137c0.034,0,0.982,0.068,1.762,0.714
		c0.576,0.508,0.848,0.947,0.949,1.219c0.236,0.035,0.508,0.102,0.812,0.238c0.408,0.202,0.645,0.438,0.813,0.608
		c0.576,0.203,1.354,0.339,1.593,0.305c0.102-0.032,0.271-0.135,0.406-0.271c-0.645-0.475-1.152-0.983-1.253-1.118l0.711-0.712
		c0.61,0.645,1.729,1.626,2.44,1.626c0.203,0,0.508-0.271,0.744-0.541c-0.102-0.068-0.168-0.137-0.203-0.137l-2.135-1.933
		l0.678-0.711l2.136,1.933c0.169,0.135,0.61,0.439,0.915,0.373c0.339-0.034,0.542-0.203,0.711-0.543
		c0.068-0.136,0.137-0.338,0.137-0.542c-0.306-0.203-0.609-0.407-0.814-0.61c-0.541-0.508-1.965-2.236-2.032-2.338l0.745-0.646
		c0.373,0.51,1.525,1.865,1.966,2.271c0.678,0.678,1.118,0.745,1.321,0.745c0.44-0.034,0.711-0.203,0.916-0.475
		c0.271-0.34,0.338-0.813,0.305-1.051c-0.034-0.34-0.102-0.475-0.406-0.746h0.034c-1.392-1.32-4.474-4.541-6.644-6.812
		c-0.17,0.136-0.373,0.271-0.645,0.373c-0.439,0.203-0.848,0.305-1.152,0.339c-0.168,0.475-0.508,1.389-0.949,2.236
		c-0.475,1.017-1.83,1.321-2.608,1.186c-1.118-0.169-1.118-0.711-0.983-1.965c0.137-1.152,0.271-2,0.305-2.135
		c0.035-0.306,0.238-2.033,1.018-2.779c0.645-0.609,3.15-2.271,3.491-2.474c0.339-0.307,1.084-0.645,2.168-0.204
		c0.373,0.137,1.458,0.576,2.405,0.948C28.061,32.432,28.061,32.058,27.451,31.89L27.451,31.89z M19.385,47.75
		c-0.441-0.203-0.915-0.17-1.084,0.136c-0.204,0.373,0.033,0.916,0.542,1.254c0.508,0.34,1.084,0.306,1.288-0.067
		c0.203-0.372-0.034-0.915-0.543-1.254C19.486,47.817,19.418,47.783,19.385,47.75L19.385,47.75z M15.352,45.445
		c-0.305-0.17-0.645-0.136-0.779,0.102c-0.103,0.203,0.067,0.509,0.373,0.679c0.305,0.17,0.644,0.136,0.778-0.103
		C15.826,45.92,15.656,45.615,15.352,45.445L15.352,45.445z M17.216,46.529c-0.44-0.236-0.882-0.169-1.052,0.137
		c-0.135,0.306,0.068,0.711,0.509,0.948s0.915,0.169,1.051-0.136C17.859,47.175,17.623,46.767,17.216,46.529L17.216,46.529z
		 M21.724,49.478c-0.339-0.203-0.712-0.203-0.849,0.033c-0.135,0.236,0,0.575,0.34,0.778c0.339,0.203,0.711,0.203,0.881-0.032
		C22.197,50.055,22.062,49.682,21.724,49.478L21.724,49.478z"/>
</g>
</svg>
