<?xml version="1.0" encoding="utf-8"?>
<!-- Generator: Adobe Illustrator 16.0.0, SVG Export Plug-In . SVG Version: 6.00 Build 0)  -->
<!DOCTYPE svg PUBLIC "-//W3C//DTD SVG 1.1//EN" "http://www.w3.org/Graphics/SVG/1.1/DTD/svg11.dtd">
<svg version="1.1" id="Layer_1" xmlns="http://www.w3.org/2000/svg" xmlns:xlink="http://www.w3.org/1999/xlink" x="0px" y="0px"
	 width="52.9px" height="44.497px" viewBox="0 0 52.9 44.497" enable-background="new 0 0 52.9 44.497" xml:space="preserve">
<g>
	<path fill="#0075B1" d="M2.542,0H42.53c1.424,0,2.543,1.151,2.543,2.542v31.551c0,1.424-1.152,2.541-2.543,2.541H2.541
		c-1.423,0-2.542-1.15-2.542-2.541V2.542C0.001,1.153,1.153,0,2.542,0L2.542,0z"/>
	<path fill="#0075B1" d="M22.536,30.399c1.118,0,2.033,0.947,2.033,2.135v8.642c0,1.187-0.915,2.136-2.033,2.136
		c-1.117,0-2.032-0.949-2.032-2.136v-8.642C20.536,31.346,21.419,30.399,22.536,30.399L22.536,30.399z"/>
	<path fill="#7FBAD8" d="M5.186,3.795h34.737c1.084,0,1.965,0.881,1.965,1.966v24.435c0,1.084-0.881,1.965-1.965,1.965H5.186
		c-1.084,0-1.966-0.881-1.966-1.965V5.761C3.22,4.676,4.101,3.795,5.186,3.795L5.186,3.795z"/>
	<path fill="#0075B1" d="M15.488,40.463H29.62c0.541,0,1.018,0.439,1.018,1.018v1.998c0,0.543-0.441,1.019-1.018,1.019H15.488
		c-0.542,0-1.017-0.441-1.017-1.019v-1.998C14.471,40.938,14.911,40.463,15.488,40.463L15.488,40.463z"/>
	<path fill="#9CC47F" d="M29.856,16.673c-0.812,0-1.457,0.644-1.457,1.457V43.04c0,0.812,0.645,1.457,1.457,1.457h18.062
		c0.812,0,1.457-0.645,1.457-1.457V22.739l-6.234-6.1H29.856V16.673z"/>
	<path fill="#E2EDD9" d="M43.106,16.673v4.644c0,0.812,0.645,1.457,1.459,1.457h4.777L43.106,16.673z"/>
	<rect x="31.009" y="21.417" fill="#E2EDD9" width="7.084" height="1.356"/>
	<rect x="31.009" y="24.604" fill="#E2EDD9" width="15.691" height="1.354"/>
	<rect x="31.009" y="27.823" fill="#E2EDD9" width="15.691" height="1.354"/>
	<rect x="31.009" y="31.007" fill="#E2EDD9" width="15.691" height="1.354"/>
	<rect x="31.009" y="34.227" fill="#E2EDD9" width="15.691" height="1.355"/>
	<rect x="31.009" y="37.413" fill="#E2EDD9" width="15.691" height="1.355"/>
	<rect x="31.009" y="40.632" fill="#E2EDD9" width="15.691" height="1.354"/>
	<path fill="#0075B1" d="M42.634,26.704h9.285c0.543,0,0.982,0.441,0.982,0.982v15.826c0,0.542-0.439,0.982-0.982,0.982h-9.285
		c-0.543,0-0.982-0.44-0.982-0.982V27.686C41.649,27.145,42.091,26.704,42.634,26.704L42.634,26.704z"/>
	<path fill="#7FBAD8" d="M43.682,28.196h7.152c0.338,0,0.574,0.271,0.574,0.576v12.605c0,0.339-0.271,0.576-0.574,0.576h-7.152
		c-0.338,0-0.576-0.271-0.576-0.576V28.804C43.106,28.466,43.344,28.196,43.682,28.196L43.682,28.196z"/>
	<path fill="#7FBAD8" d="M48.02,43.243c0,0.406-0.338,0.744-0.744,0.744c-0.408,0-0.746-0.338-0.746-0.744
		c0-0.407,0.338-0.746,0.746-0.746C47.682,42.497,48.02,42.835,48.02,43.243L48.02,43.243z"/>
</g>
</svg>
