<?xml version="1.0" encoding="utf-8"?>
<!-- Generator: Adobe Illustrator 16.0.0, SVG Export Plug-In . SVG Version: 6.00 Build 0)  -->
<!DOCTYPE svg PUBLIC "-//W3C//DTD SVG 1.1//EN" "http://www.w3.org/Graphics/SVG/1.1/DTD/svg11.dtd">
<svg version="1.1" id="Layer_1" xmlns="http://www.w3.org/2000/svg" xmlns:xlink="http://www.w3.org/1999/xlink" x="0px" y="0px"
	 width="36.667px" height="47.207px" viewBox="0 0 36.667 47.207" enable-background="new 0 0 36.667 47.207" xml:space="preserve">
<g>
	<path fill="#FFFFFF" d="M7.015,4.812h27.449c1.221,0,2.203,0.983,2.203,2.203v37.989c0,1.22-0.982,2.202-2.203,2.202H7.015
		c-1.22,0-2.203-0.982-2.203-2.202V7.016C4.812,5.796,5.795,4.812,7.015,4.812L7.015,4.812z"/>
	<path fill="#9CC47F" d="M4.406,2.203h27.449c1.222,0,2.203,0.982,2.203,2.203v37.988c0,1.221-0.981,2.202-2.203,2.202H4.406
		c-1.219,0-2.202-0.981-2.202-2.202V4.406C2.204,3.186,3.187,2.203,4.406,2.203L4.406,2.203z"/>
	<path fill="#0075B1" d="M2.204,0h27.45c1.22,0,2.201,0.983,2.201,2.203v37.99c0,1.219-0.981,2.202-2.201,2.202H2.204
		C0.984,42.396,0,41.412,0,40.193V2.203C0,0.983,0.984,0,2.204,0L2.204,0z"/>
	<path fill="#7FBAD8" d="M13.353,8.236h13.961c0.17,0,0.307,0.135,0.307,0.305v1.084c0,0.168-0.137,0.305-0.307,0.305H13.353
		c-0.17,0-0.306-0.135-0.306-0.305V8.541C13.047,8.371,13.183,8.236,13.353,8.236L13.353,8.236z"/>
	<path fill="#7FBAD8" d="M5.964,9.523l3.66-3.66c0.135-0.136,0.305-0.136,0.439,0l0.779,0.779c0.137,0.137,0.137,0.305,0,0.439
		l-3.66,3.66c-0.136,0.137-0.305,0.137-0.44,0L5.963,9.964C5.863,9.828,5.863,9.625,5.964,9.523L5.964,9.523z"/>
	<path fill="#7FBAD8" d="M6.745,10.709L4.304,8.27c-0.135-0.136-0.135-0.305,0-0.441l0.78-0.778c0.136-0.136,0.306-0.136,0.44,0
		l2.439,2.44c0.137,0.135,0.137,0.305,0,0.439l-0.779,0.779C7.049,10.845,6.847,10.845,6.745,10.709L6.745,10.709z"/>
	<path fill="#7FBAD8" d="M13.353,16.844h13.961c0.17,0,0.307,0.135,0.307,0.305v1.084c0,0.17-0.137,0.305-0.307,0.305H13.353
		c-0.17,0-0.306-0.135-0.306-0.305v-1.084C13.047,16.979,13.183,16.844,13.353,16.844L13.353,16.844z"/>
	<path fill="#7FBAD8" d="M5.964,18.131l3.66-3.66c0.135-0.137,0.305-0.137,0.439,0l0.779,0.779c0.137,0.135,0.137,0.305,0,0.439
		l-3.66,3.626c-0.136,0.136-0.305,0.136-0.44,0l-0.779-0.778C5.863,18.436,5.863,18.232,5.964,18.131L5.964,18.131z"/>
	<path fill="#7FBAD8" d="M6.745,19.316l-2.44-2.439c-0.135-0.135-0.135-0.305,0-0.44l0.78-0.778c0.136-0.137,0.306-0.137,0.44,0
		l2.439,2.439c0.137,0.135,0.137,0.305,0,0.439l-0.779,0.779C7.049,19.453,6.847,19.453,6.745,19.316L6.745,19.316z"/>
	<path fill="#7FBAD8" d="M13.353,25.451h13.961c0.17,0,0.307,0.136,0.307,0.306v1.084c0,0.17-0.137,0.306-0.307,0.306H13.353
		c-0.17,0-0.306-0.136-0.306-0.306v-1.084C13.047,25.586,13.183,25.451,13.353,25.451L13.353,25.451z"/>
	<path fill="#7FBAD8" d="M5.964,26.738l3.66-3.66c0.135-0.135,0.305-0.135,0.439,0l0.779,0.78c0.137,0.136,0.137,0.306,0,0.44
		l-3.66,3.66c-0.136,0.135-0.305,0.135-0.44,0L5.963,27.18C5.863,27.043,5.863,26.84,5.964,26.738L5.964,26.738z"/>
	<path fill="#7FBAD8" d="M6.745,27.925l-2.44-2.44c-0.135-0.135-0.135-0.305,0-0.438l0.78-0.78c0.136-0.135,0.306-0.135,0.44,0
		l2.439,2.439c0.137,0.136,0.137,0.306,0,0.44l-0.779,0.779C7.049,28.061,6.847,28.061,6.745,27.925L6.745,27.925z"/>
	<path fill="#7FBAD8" d="M13.353,34.059h13.961c0.17,0,0.307,0.137,0.307,0.305v1.086c0,0.168-0.137,0.306-0.307,0.306H13.353
		c-0.17,0-0.306-0.138-0.306-0.306v-1.086C13.047,34.195,13.183,34.059,13.353,34.059L13.353,34.059z"/>
	<path fill="#7FBAD8" d="M5.964,35.347l3.66-3.66c0.135-0.136,0.305-0.136,0.439,0l0.779,0.779c0.137,0.136,0.137,0.306,0,0.44
		l-3.66,3.659c-0.136,0.136-0.305,0.136-0.44,0l-0.779-0.778C5.863,35.652,5.863,35.449,5.964,35.347L5.964,35.347z"/>
	<path fill="#7FBAD8" d="M6.745,36.533l-2.44-2.439c-0.135-0.137-0.135-0.307,0-0.439l0.78-0.779c0.136-0.137,0.306-0.137,0.44,0
		l2.439,2.438c0.137,0.136,0.137,0.306,0,0.441l-0.779,0.778C7.049,36.668,6.847,36.668,6.745,36.533L6.745,36.533z"/>
</g>
</svg>
