<?xml version="1.0" encoding="utf-8"?>
<!-- Generator: Adobe Illustrator 18.1.1, SVG Export Plug-In . SVG Version: 6.00 Build 0)  -->
<!DOCTYPE svg PUBLIC "-//W3C//DTD SVG 1.1//EN" "http://www.w3.org/Graphics/SVG/1.1/DTD/svg11.dtd">
<svg version="1.1" xmlns="http://www.w3.org/2000/svg" xmlns:xlink="http://www.w3.org/1999/xlink" x="0px" y="0px"
	 viewBox="0 0 300 300" enable-background="new 0 0 300 300" xml:space="preserve">
<g id="Layer_2">
</g>
<g id="Layer_1">
	<g id="entitlements" display="none">
		<path display="inline" fill="#0875B1" d="M266.5,100.4H152.1c-2.8,0-5.1,2.3-5.1,5.1v169.7c0,2.8,2.3,5.1,5.1,5.1h40.6V239
			c0-2.8,2.3-5.1,5.1-5.1h23c2.8,0,5.1,2.3,5.1,5.1v41.3h40.6c2.8,0,5.1-2.3,5.1-5.1V105.5C271.6,102.7,269.3,100.4,266.5,100.4z
			 M182.6,213.9c0,2.8-2.3,5.1-5.1,5.1h-13.9c-2.8,0-5.1-2.3-5.1-5.1V200c0-2.8,2.3-5.1,5.1-5.1h13.9c2.8,0,5.1,2.3,5.1,5.1V213.9z
			 M182.6,174.8c0,2.8-2.3,5.1-5.1,5.1h-13.9c-2.8,0-5.1-2.3-5.1-5.1v-13.9c0-2.8,2.3-5.1,5.1-5.1h13.9c2.8,0,5.1,2.3,5.1,5.1V174.8
			z M182.6,135.7c0,2.8-2.3,5.1-5.1,5.1h-13.9c-2.8,0-5.1-2.3-5.1-5.1v-13.9c0-2.8,2.3-5.1,5.1-5.1h13.9c2.8,0,5.1,2.3,5.1,5.1
			V135.7z M221.3,213.9c0,2.8-2.3,5.1-5.1,5.1h-13.9c-2.8,0-5.1-2.3-5.1-5.1V200c0-2.8,2.3-5.1,5.1-5.1h13.9c2.8,0,5.1,2.3,5.1,5.1
			V213.9z M221.3,174.8c0,2.8-2.3,5.1-5.1,5.1h-13.9c-2.8,0-5.1-2.3-5.1-5.1v-13.9c0-2.8,2.3-5.1,5.1-5.1h13.9
			c2.8,0,5.1,2.3,5.1,5.1V174.8z M221.3,135.7c0,2.8-2.3,5.1-5.1,5.1h-13.9c-2.8,0-5.1-2.3-5.1-5.1v-13.9c0-2.8,2.3-5.1,5.1-5.1
			h13.9c2.8,0,5.1,2.3,5.1,5.1V135.7z M260.1,213.9c0,2.8-2.2,5.1-5,5.1h-14c-2.8,0-5.1-2.3-5.1-5.1V200c0-2.8,2.3-5.1,5.1-5.1h14
			c2.8,0,5,2.3,5,5.1V213.9z M260.1,174.8c0,2.8-2.2,5.1-5,5.1h-14c-2.8,0-5.1-2.3-5.1-5.1v-13.9c0-2.8,2.3-5.1,5.1-5.1h14
			c2.8,0,5,2.3,5,5.1V174.8z M260.1,135.7c0,2.8-2.2,5.1-5,5.1h-14c-2.8,0-5.1-2.3-5.1-5.1v-13.9c0-2.8,2.3-5.1,5.1-5.1h14
			c2.8,0,5,2.3,5,5.1V135.7z"/>
		<path display="inline" fill="#80BAD9" d="M216.2,194.8h-13.9c-2.8,0-5.1,2.3-5.1,5.1v13.9c0,2.8,2.3,5.1,5.1,5.1h13.9
			c2.8,0,5.1-2.3,5.1-5.1v-13.9C221.3,197.1,219.1,194.8,216.2,194.8z"/>
		<path display="inline" fill="#80BAD9" d="M216.2,116.6h-13.9c-2.8,0-5.1,2.3-5.1,5.1v13.9c0,2.8,2.3,5.1,5.1,5.1h13.9
			c2.8,0,5.1-2.3,5.1-5.1v-13.9C221.3,118.9,219.1,116.6,216.2,116.6z"/>
		<path display="inline" fill="#80BAD9" d="M216.2,155.7h-13.9c-2.8,0-5.1,2.3-5.1,5.1v13.9c0,2.8,2.3,5.1,5.1,5.1h13.9
			c2.8,0,5.1-2.3,5.1-5.1v-13.9C221.3,158,219.1,155.7,216.2,155.7z"/>
		<path display="inline" fill="#80BAD9" d="M255.1,155.7h-14c-2.8,0-5.1,2.3-5.1,5.1v13.9c0,2.8,2.3,5.1,5.1,5.1h14
			c2.8,0,5-2.3,5-5.1v-13.9C260.1,158,257.9,155.7,255.1,155.7z"/>
		<path display="inline" fill="#80BAD9" d="M255.1,116.6h-14c-2.8,0-5.1,2.3-5.1,5.1v13.9c0,2.8,2.3,5.1,5.1,5.1h14
			c2.8,0,5-2.3,5-5.1v-13.9C260.1,118.9,257.9,116.6,255.1,116.6z"/>
		<path display="inline" fill="#80BAD9" d="M255.1,194.8h-14c-2.8,0-5.1,2.3-5.1,5.1v13.9c0,2.8,2.3,5.1,5.1,5.1h14
			c2.8,0,5-2.3,5-5.1v-13.9C260.1,197.1,257.9,194.8,255.1,194.8z"/>
		<path display="inline" fill="#80BAD9" d="M177.4,194.8h-13.9c-2.8,0-5.1,2.3-5.1,5.1v13.9c0,2.8,2.3,5.1,5.1,5.1h13.9
			c2.8,0,5.1-2.3,5.1-5.1v-13.9C182.6,197.1,180.3,194.8,177.4,194.8z"/>
		<path display="inline" fill="#80BAD9" d="M177.4,155.7h-13.9c-2.8,0-5.1,2.3-5.1,5.1v13.9c0,2.8,2.3,5.1,5.1,5.1h13.9
			c2.8,0,5.1-2.3,5.1-5.1v-13.9C182.6,158,180.3,155.7,177.4,155.7z"/>
		<path display="inline" fill="#80BAD9" d="M220.8,233.9h-23c-2.8,0-5.1,2.3-5.1,5.1v41.3l0,0h33.2l0,0V239
			C225.9,236.2,223.6,233.9,220.8,233.9z"/>
		<path display="inline" fill="#80BAD9" d="M177.4,116.6h-13.9c-2.8,0-5.1,2.3-5.1,5.1v13.9c0,2.8,2.3,5.1,5.1,5.1h13.9
			c2.8,0,5.1-2.3,5.1-5.1v-13.9C182.6,118.9,180.3,116.6,177.4,116.6z"/>
		<path display="inline" fill="#9DC47F" d="M113,88.1h3.8c2,0,3.6-1.6,3.6-3.6V67.8l83.3-22.3l11.2-3l32.6-8.7
			c2.4-0.6,3.8-3.1,3.2-5.5l-1.4-5.3c-0.6-2.4-3.1-3.8-5.5-3.2L119.5,53.1c-0.7-0.7-1.6-1.2-2.6-1.2H67.2c-2,0-3.6,1.6-3.6,3.6V68
			l-31.9,8.5c-2.4,0.6-3.8,3.1-3.2,5.5l1.4,5.3c0.6,2.4,3.1,3.8,5.5,3.2L63.6,83v1.5c0,2,1.6,3.6,3.6,3.6H71L50.6,276.7
			c-0.2,2,1.2,3.6,3.2,3.6h7.6l2.1-20.9h57l2.1,20.9h7.6c2,0,3.4-1.6,3.2-3.6L113,88.1z M79.4,101.9l26.3,20.8H77.3L79.4,101.9z
			 M112,175l2.3,22.9l-38-22.9h35.5C111.9,175,111.9,175,112,175z M109.7,152.5l-28.9-19.7h26.9L109.7,152.5z M75.4,141.4l34.4,23.4
			H73.1L75.4,141.4z M109.9,207h-41l2.4-23.3L109.9,207z M116.3,217.2l2.3,22.6L81,217.2H116.3z M103.2,88.1l2.2,21.4L80.6,90
			l0.2-1.8L103.2,88.1L103.2,88.1z M67.4,220.9l47,28.3H64.5L67.4,220.9z"/>
		<polygon display="inline" fill="#80BAD9" points="203.7,68.1 214.9,68.1 214.9,42.5 203.7,45.5 		"/>
		<path display="inline" fill="#FEBF28" d="M183,68.1c-2,0-3.6,1.6-3.6,3.6v13.7c0,2,1.6,3.6,3.6,3.6h52.6c2,0,3.6-1.6,3.6-3.6V71.7
			c0-2-1.6-3.6-3.6-3.6h-20.7h-11.2H183z"/>
	</g>
	<g id="community-relations" display="none">
		<path display="inline" fill="#9DC47F" d="M9,54.8v187.9l93.8,25.9l93.9-25.9l93.9,25.9V80.7l-93.9-25.9l-93.9,25.9L9,54.8z"/>
		<path display="inline" fill="#B6DA9B" d="M196.7,54.8l-93.9,25.9v187.9l93.9-25.9V54.8z"/>
		<path display="inline" fill="#FFFFFF" d="M196.7,54.8l-4,1.1l9.8,23.8l48.9,43.6l-1.6,29.2c-5.6-0.4-11.2-0.7-17-1.1
			c-33.7-2.1-65.7-4-67.2-4l-1.5-1.3c0-0.4,0.5-10,0.8-20.4c0.2-5.3,0.3-10.8,0.4-15.2c0-2.2,0-4.2,0-5.8c0-1.6-0.1-2.7-0.3-3.6
			c-0.6-2.7-2.1-5.8-3.5-8.4s-2.6-4.6-2.6-4.6l-0.5-0.8l-5.2-0.4l-0.9-18.4l2.7-2.1l-6.3,1.7l0.9,18.5l-35.2-2.9l-1.3-5.7l-3.4,0.9
			l1.9,8.1l44.7,3.7c0.3,0.5,1,1.6,2.1,3.6c1.3,2.5,2.7,5.6,3.1,7.5c0.1,0.3,0.2,1.4,0.2,2.9s0,3.4,0,5.6c0,4.4-0.2,9.8-0.4,15.1
			c-0.3,8-0.6,14.3-0.7,17.5l-65.9-59l-27.5-8l-3.5-6l-12.1-3.4l6.8,11.6l-33.7-3.7l-6.2-17.1l-4.1-1.1l3.4,9.5H9v3.5l9.6,0.1v-1.6
			l3.6,10L60.7,82l0.8,1.4l29,8.4l7.4,6.6L9,98.7v3.5l91.7-0.4l1,29.5l13.6,12.2l-1.3,37.4l-41.1-7l-5.9-34l12-1.9l-3.1-35.8
			l-3.5,0.3l2.8,32.5L64,136.9l-55-7v3.5l0.8,0.1L9,139.7v27l4.3-32.8l50.2,6.4l5.7,33l-17.8-3l-8.9,36L9,190.1v3.9l72.2,34.8
			l-0.5,33.7l3.5,1l0.5-34.3l31.1,0.2l0.8-23.4l22.6-1.5l-21.3,59.9l10.3-2.9l20.5-57.7l42.3-2.7l35.2,25.3L205.7,245l10,2.8
			l17-15.4l-0.7,1l47.5,32l10.6,2.9L234.4,231l17.2-15.6l39,21.9v-4L254.4,213l1-0.9l2.8-50.4c7.9,0.5,15.4,1.1,21.7,1.6
			c2.3,0.2,4.3,0.3,6.3,0.5l4.2,48.1l0.2,0.2v-31.7l0.8-16.3c0.3,0-1.1,0.1-0.8,0.1v-8.8c-3-0.3-6.3-0.5-10.1-0.8
			c-6.5-0.5-14-1-21.9-1.6l1.6-29.2l30.4-10.7v-3.7l-7.1,2.5l-33.6-36l0.5-6.2l-3.4-1l-0.6,8.5l33.6,36l-19.5,6.9v-0.5L216,80
			l9.1-17.4l-3.5-1l-8.3,15.9l-3.5-3.2l-7.5-18.1L196.7,54.8z M282.3,78.4c3.9,9.1,6.4,15,8.2,19.5v-9c-1.4-3.2-2.2-5.1-3.9-9.3
			L282.3,78.4z M104.2,104.1l53.6,48L140.5,201l-23.8,1.5l2.1-60.5l-13.7-12.3L104.2,104.1z M165.8,156c3.4,0.2,33.8,1.9,66.4,4
			c5.8,0.4,11.4,0.7,17.1,1.1l-2.6,46.9l-17.8,16.2L192,197.7l-42,2.7L165.8,156z M54,174.3l59.8,10.2l-1.4,41.4l-29.7-0.2l-37-17.8
			L54,174.3z M102.3,268.5l0.5,0.1l0.5-0.1H102.3z"/>
		<path display="inline" fill="#80BAD9" d="M8.9,54.8V61l2.8,4.7l6.2,0.1l-3.4-9.5L8.9,54.8z M18.6,57.4l6.2,17l33.7,3.7l-6.8-11.6
			L18.6,57.4z M18.6,67.8v1.5l-4.8-0.1l17.1,29.4l66.9-0.3l-7.4-6.6l-29-8.4L60.7,82l-38.5-4.3L18.6,67.8z M100.6,101.8l-67.7,0.3
			l5.1,8.7l35.4,11.5l0.7,0.6l-1.7-20.3l3.5-0.3l2.1,24l24.9,22v-15.9l-1.2-1.1L100.6,101.8z"/>
		<g display="inline">
			<g>
				<g>
					<defs>
						<rect id="SVGID_1_" x="8.7" y="29.7" width="282.4" height="240.7"/>
					</defs>
					<clipPath id="SVGID_2_">
						<use xlink:href="#SVGID_1_"  overflow="visible"/>
					</clipPath>
					<path clip-path="url(#SVGID_2_)" fill="#80BAD9" d="M290.5,113.1l-30.4,10.7l-1.6,29.2c8,0.5,15.5,1.1,21.9,1.6
						c1.1,0.1,1.9,0.2,2.9,0.2l1-13.3l6.2-1.9V113.1z M196.7,157.8V190l50.8,4.5l1.8-33.4c-5.7-0.4-11.3-0.8-17.1-1.1
						C219,159.2,207.4,158.5,196.7,157.8L196.7,157.8z M258,161.7l-2.8,50.4l-1,0.9l23.6,13.2l4.8-62.7c-1-0.1-1.8-0.2-2.9-0.2
						C273.4,162.8,265.9,162.2,258,161.7L258,161.7z M251.5,215.4L234.4,231l24.8,16.7l18.3-17V230L251.5,215.4L251.5,215.4z
						 M232.6,232.6l-17,15.4l33.3,9.2l7.6-7l-24.6-16.6L232.6,232.6z"/>
				</g>
			</g>
			<g>
				<g>
					<defs>
						<rect id="SVGID_3_" x="8.7" y="29.7" width="282.4" height="240.7"/>
					</defs>
					<clipPath id="SVGID_4_">
						<use xlink:href="#SVGID_3_"  overflow="visible"/>
					</clipPath>
					<path clip-path="url(#SVGID_4_)" fill="#0875B1" d="M172.9,39.9c13.3-13.3,34.7-13.2,48,0.1s13.4,34.8,0.1,48l-24,23.8l-24-24
						C159.7,74.6,159.6,53.2,172.9,39.9L172.9,39.9z"/>
				</g>
			</g>
		</g>
		<path display="inline" fill="#FEBF28" d="M184.8,78.2V63.3l-6.1,0.1l18.6-18.6L215.7,63l-6.2,0.1v15.2L184.8,78.2L184.8,78.2z"/>
		<path display="inline" fill="#80BAD9" d="M104.2,104.1l0.8,25.6l13.7,12.3l-0.7,19.7l26.9,23.7l1,0.1l11.9-33.4L104.2,104.1
			L104.2,104.1z M102.8,132.4v15.9l11.9,10.5l0.5-15.2L102.8,132.4z M165.8,156L155,186.4l41.7,3.7v-32.2
			C180.6,156.9,167.8,156.1,165.8,156L165.8,156z"/>
		<path display="inline" fill="#0875B1" d="M126.6,148.9c-13.3-13.3-34.7-13.2-48,0.1s-13.4,34.8-0.1,48l24,23.8l24-24
			C139.8,183.6,139.8,162.2,126.6,148.9L126.6,148.9z"/>
		<path display="inline" fill="#FEBF28" d="M89.9,172v15.2h24.7v-14.9l6.1,0.1l-18.6-18.6L83.7,172H89.9z"/>
	</g>
	<g id="government-affairs" display="none">
		<g display="inline">
			<path fill="#9DC47F" d="M71.2,262.5c0,3,2.3,5.4,5.3,5.4h14.7c3,0,5.4-2.4,5.4-5.4v-86H71.2V262.5z"/>
			<path fill="#9DC47F" d="M115.3,262.5c0,3,2.3,5.4,5.3,5.4h14.7c3,0,5.4-2.4,5.4-5.4v-86h-25.4
				C115.3,176.5,115.3,262.5,115.3,262.5z"/>
			<path fill="#9DC47F" d="M159.2,262.5c0,3,2.3,5.4,5.3,5.4h14.7c3,0,5.4-2.4,5.4-5.4v-86h-25.4V262.5z"/>
			<path fill="#9DC47F" d="M203.4,262.5c0,3,2.3,5.4,5.3,5.4h14.7c3,0,5.4-2.4,5.4-5.4v-86h-25.4V262.5z"/>
		</g>
		<g display="inline">
			<path fill="#FEBF28" d="M154.2,54.8c5.5,0.4,8.9,2.9,10.5,5.7c7.2,0.1,12.2-0.2,17.4,4.7c0.5-13.9-3.8-15.4-15.2-17.5
				c-4.4-13.1-9.5-15.6-21.1-15.6v47h8.3V54.8H154.2z"/>
			<path fill="#0875B1" d="M267.4,128.8h-5.8v-16.7c0-2.9-2.4-5.3-5.3-5.3h-36.6V85.6c0-1.8-1.5-3.3-3.3-3.3h-62.2l0,0h-8.3l0,0
				H83.6c-1.8,0-3.3,1.5-3.3,3.3v21.2H43.7c-2.9,0-5.3,2.4-5.3,5.3v16.7h-5.8c-3,0-5.4,2.4-5.4,5.4v128.3c0,3,2.4,5.4,5.4,5.4h14.7
				c3,0,5.4-2.4,5.4-5.4v-95.8h18.6h25.4h18.6h25.4h18.6h25.4h18.6h25.4h18.6v95.8c0,3,2.3,5.4,5.3,5.4h14.7c3,0,5.4-2.4,5.4-5.4
				V134.2C272.8,131.2,270.4,128.8,267.4,128.8z"/>
		</g>
	</g>
	<g id="integrated-communications" display="none">
		<path display="inline" fill="#0875B1" d="M32.2,40.3h197.2c7,0,12.6,5.6,12.6,12.6v155.6c0,7-5.6,12.6-12.6,12.6H32.2
			c-7,0-12.6-5.6-12.6-12.6V52.9C19.6,45.9,25.2,40.3,32.2,40.3L32.2,40.3z"/>
		<path display="inline" fill="#0875B1" d="M130.8,190.2c5.5,0,10,4.7,10,10.5v42.7c0,5.8-4.4,10.5-10,10.5c-5.5,0-10-4.7-10-10.5
			v-42.7C120.9,194.9,125.3,190.2,130.8,190.2L130.8,190.2z"/>
		<path display="inline" fill="#FFFFFF" d="M45.2,59.1h171.3c5.4,0,9.8,4.4,9.8,9.8v120.5c0,5.4-4.4,9.8-9.8,9.8H45.2
			c-5.4,0-9.8-4.4-9.8-9.8V68.8C35.4,63.4,39.8,59.1,45.2,59.1L45.2,59.1z"/>
		<path display="inline" fill="#0875B1" d="M96,239.9h69.7c2.8,0,5,2.2,5,5v9.9c0,2.8-2.2,5-5,5H96c-2.8,0-5-2.2-5-5v-9.9
			C91,242.1,93.2,239.9,96,239.9L96,239.9z"/>
		<path display="inline" fill="#9DC47F" d="M166.8,122.5c-4,0-7.2,3.2-7.2,7.1v123c0,4,3.2,7.1,7.2,7.1h89c4,0,7.2-3.2,7.2-7.1v-100
			l-30.8-30.1C232.2,122.5,166.8,122.5,166.8,122.5z"/>
		<path display="inline" fill="#3B8B41" d="M232.2,122.5v22.9c0,4,3.2,7.1,7.1,7.1H263L232.2,122.5z"/>
		<rect x="172.6" y="145.8" display="inline" fill="#FEBF28" width="34.9" height="6.7"/>
		<rect x="172.6" y="161.7" display="inline" fill="#FFFFFF" width="77.4" height="6.7"/>
		<rect x="172.6" y="177.5" display="inline" fill="#FFFFFF" width="77.4" height="6.7"/>
		<rect x="172.6" y="193.3" display="inline" fill="#FFFFFF" width="77.4" height="6.7"/>
		<rect x="172.6" y="209.1" display="inline" fill="#FFFFFF" width="77.4" height="6.7"/>
		<rect x="172.6" y="224.9" display="inline" fill="#FFFFFF" width="77.4" height="6.7"/>
		<rect x="172.6" y="240.7" display="inline" fill="#FFFFFF" width="77.4" height="6.7"/>
		<path display="inline" fill="#0875B1" d="M229.8,172h45.7c2.7,0,4.8,2.1,4.8,4.8v78.1c0,2.7-2.2,4.8-4.8,4.8h-45.7
			c-2.7,0-4.8-2.2-4.8-4.8v-78.1C225,174.1,227.1,172,229.8,172L229.8,172z"/>
		<path display="inline" fill="#80BAD9" d="M235.1,179.4h35.2c1.6,0,2.9,1.3,2.9,2.9v62.1c0,1.6-1.3,2.9-2.9,2.9h-35.2
			c-1.6,0-2.9-1.3-2.9-2.9v-62.1C232.1,180.7,233.4,179.4,235.1,179.4L235.1,179.4z"/>
		<path display="inline" fill="#FEBF28" d="M256.4,253.6c0,2.1-1.7,3.7-3.7,3.7c-2.1,0-3.7-1.7-3.7-3.7s1.7-3.7,3.7-3.7
			C254.7,249.8,256.4,251.5,256.4,253.6L256.4,253.6z"/>
		<path display="inline" fill="#FEBF28" d="M36.6,208.6c0,2.1-1.7,3.7-3.7,3.7c-2.1,0-3.7-1.7-3.7-3.7s1.7-3.7,3.7-3.7
			C35,204.9,36.6,206.6,36.6,208.6L36.6,208.6z"/>
	</g>
	<g id="issues-management" display="none">
		<path display="inline" fill="#FFFFFF" d="M91.3,52.5h142.4c6.3,0,11.4,5.1,11.4,11.4v197c0,6.3-5.1,11.4-11.4,11.4H91.3
			c-6.3,0-11.4-5.1-11.4-11.4V64C79.9,57.6,85,52.5,91.3,52.5L91.3,52.5z"/>
		<path display="inline" fill="#9DC47F" d="M77.8,39h142.4c6.3,0,11.4,5.1,11.4,11.4v197c0,6.3-5.1,11.4-11.4,11.4H77.8
			c-6.3,0-11.4-5.1-11.4-11.4v-197C66.3,44.1,71.4,39,77.8,39L77.8,39z"/>
		<path display="inline" fill="#0875B1" d="M66.3,27.6h142.4c6.3,0,11.4,5.1,11.4,11.4v197c0,6.3-5.1,11.4-11.4,11.4H66.3
			c-6.3,0-11.4-5.1-11.4-11.4V39C54.9,32.7,60,27.6,66.3,27.6L66.3,27.6z"/>
		<path display="inline" fill="#FFFFFF" d="M124.2,70.2h72.4c0.9,0,1.6,0.7,1.6,1.6v5.6c0,0.9-0.7,1.6-1.6,1.6h-72.4
			c-0.9,0-1.6-0.7-1.6-1.6v-5.6C122.6,71,123.4,70.2,124.2,70.2L124.2,70.2z"/>
		<path display="inline" fill="#FEBF28" d="M85.9,76.9l19-19c0.6-0.6,1.6-0.6,2.3,0l4,4c0.6,0.6,0.6,1.6,0,2.3l-19,19
			c-0.6,0.6-1.6,0.6-2.3,0l-4-4C85.3,78.6,85.3,77.6,85.9,76.9L85.9,76.9z"/>
		<path display="inline" fill="#FEBF28" d="M89.9,83.2L77.3,70.6c-0.6-0.6-0.6-1.6,0-2.3l4-4c0.6-0.6,1.6-0.6,2.3,0l12.6,12.6
			c0.6,0.6,0.6,1.6,0,2.3l-4,4C91.5,83.8,90.5,83.8,89.9,83.2L89.9,83.2z"/>
		<path display="inline" fill="#FFFFFF" d="M124.2,114.9h72.4c0.9,0,1.6,0.7,1.6,1.6v5.6c0,0.9-0.7,1.6-1.6,1.6h-72.4
			c-0.9,0-1.6-0.7-1.6-1.6v-5.6C122.6,115.6,123.4,114.9,124.2,114.9L124.2,114.9z"/>
		<path display="inline" fill="#FEBF28" d="M85.9,121.6l19-19c0.6-0.6,1.6-0.6,2.3,0l4,4c0.6,0.6,0.6,1.6,0,2.3l-19,19
			c-0.6,0.6-1.6,0.6-2.3,0l-4-4C85.3,123.2,85.3,122.2,85.9,121.6L85.9,121.6z"/>
		<path display="inline" fill="#FEBF28" d="M89.9,127.8l-12.6-12.6c-0.6-0.6-0.6-1.6,0-2.3l4-4c0.6-0.6,1.6-0.6,2.3,0l12.6,12.6
			c0.6,0.6,0.6,1.6,0,2.3l-4,4C91.5,128.5,90.5,128.5,89.9,127.8L89.9,127.8z"/>
		<path display="inline" fill="#FFFFFF" d="M124.2,159.6h72.4c0.9,0,1.6,0.7,1.6,1.6v5.6c0,0.9-0.7,1.6-1.6,1.6h-72.4
			c-0.9,0-1.6-0.7-1.6-1.6v-5.6C122.6,160.3,123.4,159.6,124.2,159.6L124.2,159.6z"/>
		<path display="inline" fill="#FEBF28" d="M85.9,166.2l19-19c0.6-0.6,1.6-0.6,2.3,0l4,4c0.6,0.6,0.6,1.6,0,2.3l-19,19
			c-0.6,0.6-1.6,0.6-2.3,0l-4-4C85.3,167.9,85.3,166.9,85.9,166.2L85.9,166.2z"/>
		<path display="inline" fill="#FEBF28" d="M89.9,172.5l-12.6-12.6c-0.6-0.6-0.6-1.6,0-2.3l4-4c0.6-0.6,1.6-0.6,2.3,0l12.6,12.6
			c0.6,0.6,0.6,1.6,0,2.3l-4,4C91.5,173.1,90.5,173.1,89.9,172.5L89.9,172.5z"/>
		<path display="inline" fill="#FFFFFF" d="M124.2,204.2h72.4c0.9,0,1.6,0.7,1.6,1.6v5.6c0,0.9-0.7,1.6-1.6,1.6h-72.4
			c-0.9,0-1.6-0.7-1.6-1.6v-5.6C122.6,204.9,123.4,204.2,124.2,204.2L124.2,204.2z"/>
		<path display="inline" fill="#FEBF28" d="M85.9,210.9l19-19c0.6-0.6,1.6-0.6,2.3,0l4,4c0.6,0.6,0.6,1.6,0,2.3l-19,19
			c-0.6,0.6-1.6,0.6-2.3,0l-4-4C85.3,212.5,85.3,211.5,85.9,210.9L85.9,210.9z"/>
		<path display="inline" fill="#FEBF28" d="M89.9,217.1l-12.6-12.6c-0.6-0.6-0.6-1.6,0-2.3l4-4c0.6-0.6,1.6-0.6,2.3,0l12.6,12.6
			c0.6,0.6,0.6,1.6,0,2.3l-4,4C91.5,217.8,90.5,217.8,89.9,217.1L89.9,217.1z"/>
	</g>
	<g>
		<path fill="#0875B1" d="M238.5,154c1.9,9.5,10.3,16.6,20.2,16.6c11.4,0,20.6-9.2,20.6-20.6c0-10.9-8.4-19.8-19.2-20.5l-2.6-9.7
			c3.8-2.4,6.4-6.6,6.4-11.4c0-7.4-6-13.4-13.4-13.4s-13.4,6-13.4,13.4c0,7.2,5.7,13.1,12.8,13.4l2.3,8.7c-7,2.3-12.3,8.2-13.7,15.6
			h-61.8c-0.7-4.5-2.4-8.6-5-12.1l22.4-22.4l6.8,6.8c-0.1,0.1-0.1,0.3-0.2,0.4c-2.9,6.8,0.4,14.6,7.2,17.5
			c6.9,2.9,14.7-0.4,17.5-7.2c2.9-6.9-0.4-14.7-7.2-17.5c-4.1-1.7-8.5-1.2-12,0.9l-6.5-6.5l15.8-15.8c8,5.4,18.9,4.6,26.1-2.5
			c8-8,8-21.1,0-29.1c-7.7-7.7-20-8-28-1l-8.8-5.1c1-4.3-0.2-9.1-3.5-12.4c-5.2-5.2-13.7-5.2-18.9,0s-5.2,13.7,0,18.9
			c5.1,5.1,13.2,5.2,18.5,0.4l7.9,4.6c-3.3,6.5-2.8,14.5,1.3,20.6l-43.8,43.8c-3.5-2.6-7.6-4.4-12.1-5V91.6h9.6
			c0.1,0.2,0.1,0.3,0.2,0.5c2.8,6.8,10.6,10.1,17.5,7.2c6.8-2.9,10-10.7,7.2-17.5c-2.9-6.8-10.7-10-17.5-7.2c-4,1.7-6.8,5.2-7.8,9.1
			H154V61.5c9.5-1.9,16.6-10.3,16.6-20.2c0-11.4-9.2-20.6-20.6-20.6c-10.9,0-19.8,8.4-20.5,19.2l-9.7,2.6c-2.4-3.8-6.6-6.4-11.4-6.4
			c-7.4,0-13.4,6-13.4,13.4s6,13.4,13.4,13.4c7.2,0,13.1-5.7,13.4-12.8l8.7-2.3c2.3,7,8.2,12.3,15.6,13.7v61.8
			c-4.5,0.7-8.6,2.4-12.1,5L111.5,106l6.8-6.8c0.1,0.1,0.3,0.1,0.4,0.2c6.8,2.9,14.6-0.4,17.5-7.2c2.9-6.9-0.4-14.7-7.2-17.5
			c-6.9-2.9-14.7,0.4-17.5,7.2c-1.7,4.1-1.2,8.5,0.9,12l-6.5,6.5L90.2,84.6c5.3-8,4.5-18.9-2.6-26c-8-8-21.1-8-29.1,0
			c-7.7,7.7-8,20-0.9,28.1l-5,8.7c-4.3-1-9.1,0.2-12.4,3.5c-5.2,5.2-5.2,13.7,0,18.9c5.2,5.2,13.7,5.2,18.9,0
			c5.1-5.1,5.2-13.2,0.4-18.5l4.5-7.8c6.6,3.3,14.5,2.8,20.7-1.3l43.7,43.7c-2.6,3.5-4.4,7.6-5,12.1H91.6v-9.6
			c0.2-0.1,0.3-0.1,0.5-0.2c6.8-2.8,10.1-10.6,7.2-17.5c-2.9-6.8-10.7-10-17.5-7.2c-6.8,2.9-10,10.7-7.2,17.5c1.7,4,5.2,6.8,9.1,7.8
			v9.2H61.5c-1.9-9.5-10.2-16.6-20.2-16.6c-11.4,0-20.6,9.2-20.6,20.6c0,10.9,8.4,19.8,19.2,20.5l2.6,9.7c-3.8,2.4-6.4,6.6-6.4,11.4
			c0,7.4,6,13.4,13.4,13.4s13.4-6,13.4-13.4c0-7.2-5.7-13-12.8-13.4l-2.3-8.7c6.9-2.3,12.3-8.2,13.7-15.5h61.8
			c0.7,4.5,2.4,8.6,5,12.1L106,188.5l-6.8-6.8c0.1-0.1,0.1-0.3,0.2-0.4c2.9-6.8-0.4-14.6-7.2-17.5c-6.9-2.9-14.7,0.4-17.5,7.2
			c-2.9,6.9,0.4,14.7,7.2,17.5c4.1,1.7,8.5,1.2,12-0.9l6.5,6.5l-15.8,15.8c-8-5.3-18.9-4.5-26,2.6c-8,8-8,21.1,0,29.1
			c7.7,7.7,20,8,28.1,0.9l8.7,5c-1,4.3,0.2,9.1,3.5,12.4c5.2,5.2,13.7,5.2,18.9,0c5.2-5.2,5.2-13.7,0-18.9
			c-5.1-5.1-13.2-5.2-18.5-0.4l-7.8-4.5c3.3-6.6,2.8-14.5-1.3-20.7l43.7-43.7c3.5,2.6,7.6,4.4,12.1,5v31.8h-9.6
			c-0.1-0.2-0.1-0.4-0.2-0.6c-2.8-6.8-10.6-10.1-17.5-7.2c-6.8,2.9-10,10.7-7.2,17.5c2.9,6.8,10.7,10,17.5,7.2c4-1.7,6.7-5.1,7.8-9
			h9.2v22.1c-9.5,1.9-16.6,10.2-16.6,20.2c0,11.4,9.2,20.6,20.6,20.6c10.9,0,19.8-8.4,20.5-19.2l9.7-2.6c2.4,3.8,6.6,6.4,11.4,6.4
			c7.4,0,13.4-6,13.4-13.4s-6-13.4-13.4-13.4c-7.2,0-13,5.7-13.4,12.8l-8.7,2.3c-2.3-6.9-8.2-12.3-15.5-13.7v-61.8
			c4.5-0.7,8.6-2.4,12.1-5l22.4,22.4l-6.8,6.8c-0.1-0.1-0.3-0.1-0.4-0.2c-6.8-2.9-14.6,0.4-17.5,7.2c-2.9,6.9,0.4,14.7,7.2,17.5
			c6.9,2.9,14.7-0.4,17.5-7.2c1.7-4.1,1.2-8.5-0.9-12l6.5-6.5l15.8,15.8c-5.4,8-4.6,18.9,2.5,26.1c8,8,21.1,8,29.1,0
			c7.7-7.7,8-20,1-28l5.1-8.8c4.3,1,9.1-0.2,12.4-3.5c5.2-5.2,5.2-13.7,0-18.9c-5.2-5.2-13.7-5.2-18.9,0c-5.1,5.1-5.2,13.2-0.4,18.5
			l-4.6,7.9c-6.5-3.3-14.5-2.8-20.6,1.3l-43.8-43.8c2.6-3.5,4.4-7.6,5-12.1h31.8v9.6c-0.2,0.1-0.4,0.1-0.6,0.2
			c-6.8,2.8-10.1,10.6-7.2,17.5c2.9,6.8,10.7,10,17.5,7.2c6.8-2.9,10-10.7,7.2-17.5c-1.7-4-5.1-6.7-9-7.8V154H238.5z M213,116.8
			c3.9,0,7.1,3.2,7.1,7.1S217,131,213,131c-3.9,0-7.1-3.2-7.1-7.1S209.1,116.8,213,116.8z M176.1,79.9c3.9,0,7.1,3.2,7.1,7.1
			s-3.2,7.1-7.1,7.1c-3.9,0-7.1-3.2-7.1-7.1S172.2,79.9,176.1,79.9z M116.8,87c0-3.9,3.2-7.1,7.1-7.1s7.1,3.2,7.1,7.1
			s-3.2,7.1-7.1,7.1S116.8,90.9,116.8,87z M79.9,123.9c0-3.9,3.2-7.1,7.1-7.1s7.1,3.2,7.1,7.1S90.9,131,87,131
			C83,131,79.9,127.8,79.9,123.9z M87,183.2c-3.9,0-7.1-3.2-7.1-7.1c0-3.9,3.2-7.1,7.1-7.1s7.1,3.2,7.1,7.1S90.9,183.2,87,183.2z
			 M123.9,220.1c-3.9,0-7.1-3.2-7.1-7.1c0-3.9,3.2-7.1,7.1-7.1s7.1,3.2,7.1,7.1C131,217,127.8,220.1,123.9,220.1z M183.2,213
			c0,4-3.2,7.1-7.1,7.1c-3.9,0-7.1-3.2-7.1-7.1c0-3.9,3.2-7.1,7.1-7.1S183.2,209.1,183.2,213z M220.2,176.1c0,3.9-3.2,7.1-7.1,7.1
			c-3.9,0-7.1-3.2-7.1-7.1c0-3.9,3.2-7.1,7.1-7.1S220.2,172.2,220.2,176.1z M243.4,108.4c0-3.9,3.2-7.1,7.1-7.1
			c3.9,0,7.1,3.2,7.1,7.1s-3.2,7.1-7.1,7.1S243.4,112.3,243.4,108.4z M258.7,139.5c5.8,0,10.5,4.7,10.5,10.5s-4.7,10.5-10.5,10.5
			s-10.5-4.7-10.5-10.5S252.9,139.5,258.7,139.5z M165.6,150c0,8.6-7,15.6-15.6,15.6s-15.6-7-15.6-15.6s7-15.6,15.6-15.6
			S165.6,141.4,165.6,150z M191.7,56.6c-3.9,0-7.1-3.2-7.1-7.1s3.2-7.1,7.1-7.1s7.1,3.2,7.1,7.1C198.8,53.5,195.6,56.7,191.7,56.6z
			 M216.4,73.1c0-5.8,4.7-10.5,10.5-10.5s10.5,4.7,10.5,10.5s-4.7,10.5-10.5,10.5C221.1,83.6,216.4,78.9,216.4,73.1z M108.4,56.6
			c-3.9,0-7.1-3.2-7.1-7.1s3.2-7.1,7.1-7.1s7.1,3.2,7.1,7.1C115.5,53.5,112.3,56.7,108.4,56.6z M139.5,41.3
			c0-5.8,4.7-10.5,10.5-10.5s10.5,4.7,10.5,10.5c0,5.7-4.7,10.4-10.5,10.5C144.2,51.8,139.5,47.1,139.5,41.3z M56.7,108.4
			c0,3.9-3.2,7.1-7.1,7.1s-7.1-3.2-7.1-7.1s3.2-7.1,7.1-7.1S56.7,104.5,56.7,108.4z M73.1,83.6c-5.8,0-10.5-4.7-10.5-10.5
			s4.7-10.5,10.5-10.5s10.5,4.7,10.5,10.5S78.9,83.6,73.1,83.6z M56.7,191.6c0,4-3.2,7.2-7.1,7.1c-3.9,0-7.1-3.2-7.1-7.1
			c0-3.9,3.2-7.1,7.1-7.1S56.7,187.7,56.7,191.6z M41.2,160.5c-5.8,0-10.5-4.7-10.5-10.5s4.7-10.5,10.5-10.5s10.5,4.7,10.5,10.5
			S47,160.5,41.2,160.5z M108.4,243.4c3.9,0,7.1,3.2,7.1,7.1c0,3.9-3.2,7.1-7.1,7.1s-7.1-3.2-7.1-7.1
			C101.3,246.6,104.5,243.4,108.4,243.4z M83.6,226.9c0,5.8-4.7,10.5-10.5,10.5s-10.5-4.7-10.5-10.5s4.7-10.5,10.5-10.5
			S83.6,221.1,83.6,226.9z M191.7,243.4c3.9,0,7.1,3.2,7.1,7.1c0,3.9-3.2,7.1-7.1,7.1s-7.1-3.2-7.1-7.1
			C184.6,246.6,187.8,243.4,191.7,243.4z M160.5,258.7c0,5.8-4.7,10.5-10.5,10.5s-10.5-4.7-10.5-10.5s4.7-10.5,10.5-10.5
			S160.5,252.9,160.5,258.7z M243.4,191.6c0-3.9,3.2-7.1,7.1-7.1c3.9,0,7.1,3.2,7.1,7.1c0,4-3.2,7.2-7.1,7.1
			C246.6,198.7,243.4,195.5,243.4,191.6z M226.9,216.4c5.8,0,10.5,4.7,10.5,10.5s-4.7,10.5-10.5,10.5s-10.5-4.7-10.5-10.5
			C216.4,221.1,221.1,216.4,226.9,216.4z"/>
		<path fill="#FFFFFF" d="M160.5,41.3c0-5.8-4.7-10.5-10.5-10.5s-10.5,4.7-10.5,10.5s4.7,10.5,10.5,10.5
			C155.8,51.7,160.5,47,160.5,41.3z"/>
		<circle fill="#FFFFFF" cx="150" cy="258.7" r="10.5"/>
		<circle fill="#FFFFFF" cx="258.7" cy="150" r="10.5"/>
		<circle fill="#FFFFFF" cx="41.2" cy="150" r="10.5"/>
		<circle fill="#FFFFFF" cx="226.9" cy="73.1" r="10.5"/>
		<circle fill="#FFFFFF" cx="73.1" cy="73.1" r="10.5"/>
		<circle fill="#FFFFFF" cx="226.9" cy="226.9" r="10.5"/>
		<circle fill="#FFFFFF" cx="73.1" cy="226.9" r="10.5"/>
		<path fill="#FEBF28" d="M150,134.4c-8.6,0-15.6,7-15.6,15.6s7,15.6,15.6,15.6s15.6-7,15.6-15.6S158.6,134.4,150,134.4z"/>
		<path fill="#80BAD9" d="M123.9,94.1c3.9,0,7.1-3.2,7.1-7.1s-3.2-7.1-7.1-7.1s-7.1,3.2-7.1,7.1S120,94.1,123.9,94.1z"/>
		<path fill="#9DC47F" d="M94.1,123.9c0-3.9-3.2-7.1-7.1-7.1s-7.1,3.2-7.1,7.1S83,131,87,131C90.9,131,94.1,127.8,94.1,123.9z"/>
		<path fill="#80BAD9" d="M94.1,176.1c0-3.9-3.2-7.1-7.1-7.1s-7.1,3.2-7.1,7.1c0,3.9,3.2,7.1,7.1,7.1S94.1,180,94.1,176.1z"/>
		<path fill="#9DC47F" d="M123.9,205.9c-3.9,0-7.1,3.2-7.1,7.1c0,3.9,3.2,7.1,7.1,7.1s7.1-3.1,7.1-7.1
			C131,209.1,127.8,205.9,123.9,205.9z"/>
		<path fill="#80BAD9" d="M176.1,205.9c-3.9,0-7.1,3.2-7.1,7.1c0,3.9,3.2,7.1,7.1,7.1c3.9,0,7.1-3.1,7.1-7.1
			C183.2,209.1,180,205.9,176.1,205.9z"/>
		<path fill="#9DC47F" d="M206,176.1c0,3.9,3.2,7.1,7.1,7.1c3.9,0,7.1-3.2,7.1-7.1c0-3.9-3.2-7.1-7.1-7.1S206,172.2,206,176.1z"/>
		<path fill="#80BAD9" d="M205.9,123.9c0,3.9,3.2,7.1,7.1,7.1c4,0,7.1-3.2,7.1-7.1s-3.2-7.1-7.1-7.1
			C209.1,116.8,205.9,120,205.9,123.9z"/>
		<path fill="#9DC47F" d="M176.1,94.1c3.9,0,7.1-3.2,7.1-7.1s-3.2-7.1-7.1-7.1c-3.9,0-7.1,3.2-7.1,7.1S172.2,94.1,176.1,94.1z"/>
		<path fill="#9DC47F" d="M108.4,42.4c-3.9,0-7.1,3.2-7.1,7.1s3.2,7.1,7.1,7.1c3.9,0.1,7.1-3.1,7.1-7.1
			C115.5,45.6,112.3,42.4,108.4,42.4z"/>
		<path fill="#80BAD9" d="M49.6,101.3c-3.9,0-7.1,3.2-7.1,7.1s3.2,7.1,7.1,7.1s7.1-3.2,7.1-7.1C56.7,104.5,53.5,101.3,49.6,101.3z"
			/>
		<path fill="#9DC47F" d="M42.5,191.6c0,3.9,3.2,7.1,7.1,7.1c3.9,0.1,7.1-3.1,7.1-7.1c0-3.9-3.2-7.1-7.1-7.1S42.5,187.7,42.5,191.6z
			"/>
		<path fill="#80BAD9" d="M101.3,250.5c0,3.9,3.2,7.1,7.1,7.1s7.1-3.2,7.1-7.1c0-3.9-3.2-7.1-7.1-7.1S101.3,246.6,101.3,250.5z"/>
		<path fill="#9DC47F" d="M191.7,257.6c3.9,0,7.1-3.2,7.1-7.1c0-3.9-3.2-7.1-7.1-7.1s-7.1,3.2-7.1,7.1
			C184.6,254.4,187.8,257.6,191.7,257.6z"/>
		<path fill="#80BAD9" d="M250.5,198.7c3.9,0.1,7.1-3.1,7.1-7.1c0-3.9-3.2-7.1-7.1-7.1c-3.9,0-7.1,3.2-7.1,7.1
			S246.6,198.7,250.5,198.7z"/>
		<path fill="#9DC47F" d="M257.6,108.4c0-3.9-3.2-7.1-7.1-7.1c-3.9,0-7.1,3.2-7.1,7.1s3.2,7.1,7.1,7.1S257.6,112.3,257.6,108.4z"/>
		<path fill="#80BAD9" d="M198.8,49.5c0-3.9-3.2-7.1-7.1-7.1s-7.1,3.2-7.1,7.1s3.2,7.1,7.1,7.1C195.6,56.7,198.8,53.5,198.8,49.5z"
			/>
	</g>
</g>
</svg>
