<?xml version="1.0" encoding="utf-8"?>
<!-- Generator: Adobe Illustrator 16.0.0, SVG Export Plug-In . SVG Version: 6.00 Build 0)  -->
<!DOCTYPE svg PUBLIC "-//W3C//DTD SVG 1.1//EN" "http://www.w3.org/Graphics/SVG/1.1/DTD/svg11.dtd">
<svg version="1.1" id="Layer_1" xmlns="http://www.w3.org/2000/svg" xmlns:xlink="http://www.w3.org/1999/xlink" x="0px" y="0px"
	 width="47.783px" height="47.783px" viewBox="0 0 47.783 47.783" enable-background="new 0 0 47.783 47.783" xml:space="preserve">
<g>
	<path fill="#7FBAD8" d="M28.874,23.891c0,2.745-2.236,4.982-4.982,4.982c-2.745,0-4.981-2.237-4.981-4.982s2.237-4.98,4.981-4.98
		C26.671,18.91,28.874,21.146,28.874,23.891L28.874,23.891z"/>
	<path fill="#7FBAD8" d="M23.891,26.467c0.406,0,0.745,0.339,0.745,0.745v15.386c0,0.407-0.338,0.745-0.745,0.745
		s-0.746-0.338-0.746-0.745V27.212C23.18,26.806,23.485,26.467,23.891,26.467L23.891,26.467z"/>
	<path fill="#7FBAD8" d="M27.72,43.988c0,2.102-1.693,3.795-3.795,3.795c-2.101,0-3.795-1.693-3.795-3.795
		c0-2.103,1.694-3.797,3.795-3.797C25.991,40.191,27.72,41.886,27.72,43.988L27.72,43.988z"/>
	<path fill="#7FBAD8" d="M23.891,21.35c0.406,0,0.745-0.339,0.745-0.746V5.218c0-0.407-0.338-0.746-0.745-0.746
		s-0.746,0.339-0.746,0.746v15.386C23.18,21.011,23.485,21.35,23.891,21.35L23.891,21.35z"/>
	<path fill="#7FBAD8" d="M27.72,3.795C27.72,1.693,26.026,0,23.924,0c-2.101,0-3.795,1.693-3.795,3.795
		c0,2.101,1.694,3.796,3.795,3.796C25.991,7.625,27.72,5.896,27.72,3.795L27.72,3.795z"/>
	<path fill="#7FBAD8" d="M22.094,25.722c0.271,0.271,0.271,0.745,0,1.05L11.217,37.617c-0.271,0.271-0.746,0.271-1.051,0
		c-0.271-0.271-0.271-0.746,0-1.052l10.879-10.878C21.35,25.416,21.79,25.416,22.094,25.722L22.094,25.722z"/>
	<path fill="#7FBAD8" d="M12.369,40.802c-1.491,1.491-3.897,1.491-5.388,0c-1.491-1.491-1.491-3.897,0-5.39
		c1.49-1.489,3.896-1.489,5.388,0C13.86,36.904,13.86,39.311,12.369,40.802L12.369,40.802z"/>
	<path fill="#7FBAD8" d="M25.722,22.096c0.27,0.271,0.744,0.271,1.051,0l10.877-10.878c0.271-0.271,0.271-0.746,0-1.052
		c-0.27-0.271-0.744-0.271-1.051,0L25.722,21.045C25.417,21.35,25.417,21.789,25.722,22.096L25.722,22.096z"/>
	<path fill="#7FBAD8" d="M40.802,12.369c1.49-1.491,1.49-3.897,0-5.39c-1.492-1.491-3.896-1.491-5.389,0s-1.49,3.897,0,5.39
		C36.905,13.859,39.31,13.859,40.802,12.369L40.802,12.369z"/>
	<path fill="#7FBAD8" d="M21.35,23.891c0,0.407-0.34,0.746-0.746,0.746H5.217c-0.405,0-0.744-0.339-0.744-0.746
		c0-0.406,0.339-0.746,0.744-0.746h15.387C21.01,23.18,21.35,23.484,21.35,23.891L21.35,23.891z"/>
	<path fill="#7FBAD8" d="M3.795,27.721C1.694,27.721,0,26.027,0,23.925c0-2.101,1.693-3.795,3.795-3.795s3.795,1.694,3.795,3.795
		C7.625,25.992,5.897,27.721,3.795,27.721L3.795,27.721z"/>
	<path fill="#7FBAD8" d="M26.466,23.891c0,0.407,0.34,0.746,0.746,0.746h15.387c0.406,0,0.744-0.339,0.744-0.746
		c0-0.406-0.338-0.746-0.744-0.746H27.212C26.806,23.18,26.466,23.484,26.466,23.891L26.466,23.891z"/>
	<path fill="#7FBAD8" d="M43.987,27.721c2.102,0,3.795-1.693,3.795-3.796c0-2.101-1.693-3.795-3.795-3.795s-3.795,1.694-3.795,3.795
		C40.192,25.992,41.886,27.721,43.987,27.721L43.987,27.721z"/>
	<path fill="#7FBAD8" d="M22.094,22.096c-0.271,0.271-0.746,0.271-1.051,0L10.167,11.218c-0.271-0.271-0.271-0.746,0-1.052
		c0.271-0.271,0.744-0.271,1.049,0l10.879,10.879C22.366,21.35,22.366,21.789,22.094,22.096L22.094,22.096z"/>
	<path fill="#7FBAD8" d="M7.014,12.369c-1.49-1.491-1.49-3.897,0-5.39c1.492-1.491,3.897-1.491,5.389,0s1.491,3.897,0,5.39
		C10.912,13.859,8.471,13.859,7.014,12.369L7.014,12.369z"/>
	<path fill="#7FBAD8" d="M25.722,25.722c-0.271,0.271-0.271,0.745,0,1.05l10.877,10.846c0.271,0.271,0.746,0.271,1.051,0
		c0.271-0.271,0.271-0.746,0-1.052L26.772,25.688C26.466,25.416,25.991,25.416,25.722,25.722L25.722,25.722z"/>
	<path fill="#7FBAD8" d="M35.415,40.802c1.49,1.491,3.895,1.491,5.389,0c1.49-1.491,1.49-3.897,0-5.39
		c-1.492-1.489-3.898-1.489-5.389,0C33.923,36.904,33.923,39.311,35.415,40.802L35.415,40.802z"/>
	<path fill="#7FBAD8" d="M18.131,14.537c-1.254-0.508-1.864-1.965-1.322-3.219c0.508-1.254,1.965-1.863,3.219-1.322
		c1.254,0.509,1.864,1.967,1.322,3.221C20.84,14.471,19.383,15.046,18.131,14.537L18.131,14.537z"/>
	<path fill="#7FBAD8" d="M19.045,11.725c-0.168,0-0.373,0.068-0.509,0.203l-3.253,3.253c0.44,0.237,0.779,0.61,1.018,1.051
		l3.252-3.253c0.271-0.271,0.271-0.746,0-1.017C19.418,11.793,19.249,11.725,19.045,11.725L19.045,11.725z"/>
	<path fill="#7FBAD8" d="M7.083,17.961c-0.949,0.949-2.541,0.949-3.49,0s-0.949-2.543,0-3.49c0.949-0.949,2.541-0.949,3.49,0
		C8.031,15.419,8.031,16.978,7.083,17.961L7.083,17.961z"/>
	<path fill="#7FBAD8" d="M4.542,16.164c-0.203,0.34-0.067,0.779,0.271,0.983c0.339,0.203,0.778,0.067,0.981-0.271l5.321-9.219
		C10.403,7.863,9.76,8.065,9.083,8.234L4.542,16.164z"/>
	<path fill="#7FBAD8" d="M13.215,21.35c-1.254,0.508-2.711-0.068-3.219-1.322c-0.509-1.254,0.067-2.711,1.321-3.219
		c1.254-0.509,2.711,0.066,3.22,1.321C15.047,19.384,14.469,20.842,13.215,21.35L13.215,21.35z"/>
	<path fill="#7FBAD8" d="M11.861,18.705c-0.136,0.137-0.204,0.306-0.204,0.509v4.575c0.508-0.137,1.018-0.137,1.458,0.033v-4.608
		c0-0.407-0.339-0.746-0.746-0.746C12.167,18.503,11.996,18.57,11.861,18.705L11.861,18.705z"/>
	<path fill="#7FBAD8" d="M7.793,31.584c0,1.354-1.117,2.474-2.474,2.474s-2.474-1.118-2.474-2.474c0-1.356,1.119-2.475,2.474-2.475
		C6.709,29.111,7.793,30.229,7.793,31.584L7.793,31.584z"/>
	<path fill="#7FBAD8" d="M4.744,32.125c0.103,0.406,0.509,0.611,0.882,0.509c0.406-0.103,0.609-0.509,0.508-0.881L3.387,21.484
		c-0.338,0.645-0.678,1.254-1.016,1.864L4.744,32.125z"/>
	<path fill="#7FBAD8" d="M14.538,29.652c-0.508,1.254-1.966,1.864-3.22,1.321c-1.254-0.508-1.864-1.965-1.321-3.219
		c0.508-1.255,1.965-1.864,3.219-1.322C14.469,26.976,15.047,28.398,14.538,29.652L14.538,29.652z"/>
	<path fill="#7FBAD8" d="M11.725,28.738c0,0.202,0.068,0.373,0.203,0.508l3.254,3.254c0.236-0.44,0.609-0.779,1.051-1.018
		l-3.253-3.253c-0.271-0.271-0.746-0.271-1.017,0C11.793,28.365,11.725,28.568,11.725,28.738L11.725,28.738z"/>
	<path fill="#7FBAD8" d="M17.961,40.734c0.948,0.948,0.948,2.541,0,3.49c-0.949,0.948-2.543,0.948-3.492,0
		c-0.948-0.949-0.948-2.542,0-3.49C15.418,39.75,16.978,39.75,17.961,40.734L17.961,40.734z"/>
	<path fill="#7FBAD8" d="M16.165,43.275c0.34,0.204,0.779,0.067,0.983-0.271c0.203-0.341,0.067-0.779-0.271-0.983l-9.219-5.32
		c0.203,0.713,0.407,1.355,0.576,2.033L16.165,43.275z"/>
	<path fill="#7FBAD8" d="M21.35,34.601c0.508,1.254-0.068,2.711-1.322,3.22c-1.254,0.508-2.711-0.068-3.219-1.322
		s0.068-2.711,1.322-3.219C19.383,32.736,20.84,33.347,21.35,34.601L21.35,34.601z"/>
	<path fill="#7FBAD8" d="M18.708,35.922c0.135,0.136,0.305,0.203,0.508,0.203h4.574c-0.135-0.51-0.135-1.018,0.034-1.457h-4.608
		c-0.408,0-0.746,0.339-0.746,0.744C18.502,35.617,18.571,35.82,18.708,35.922L18.708,35.922z"/>
	<path fill="#7FBAD8" d="M31.585,39.988c1.354,0,2.475,1.118,2.475,2.475c0,1.355-1.119,2.475-2.475,2.475
		c-1.357,0-2.475-1.119-2.475-2.475C29.11,41.106,30.228,39.988,31.585,39.988L31.585,39.988z"/>
	<path fill="#7FBAD8" d="M32.128,43.072c0.404-0.102,0.607-0.509,0.508-0.882c-0.104-0.405-0.508-0.608-0.881-0.508l-10.269,2.745
		c0.644,0.339,1.254,0.678,1.864,1.018L32.128,43.072z"/>
	<path fill="#7FBAD8" d="M29.651,33.279c1.254,0.508,1.865,1.965,1.322,3.219c-0.508,1.254-1.965,1.865-3.219,1.322
		c-1.254-0.509-1.865-1.966-1.322-3.22S28.397,32.736,29.651,33.279L29.651,33.279z"/>
	<path fill="#7FBAD8" d="M28.737,36.091c0.203,0,0.373-0.067,0.508-0.203l3.256-3.254c-0.441-0.236-0.779-0.608-1.02-1.05
		l-3.252,3.253c-0.271,0.271-0.271,0.745,0,1.018C28.364,36.023,28.567,36.091,28.737,36.091L28.737,36.091z"/>
	<path fill="#7FBAD8" d="M40.733,29.855c0.949-0.947,2.543-0.947,3.49,0c0.949,0.949,0.949,2.542,0,3.491
		c-0.947,0.948-2.541,0.948-3.49,0C39.753,32.363,39.753,30.805,40.733,29.855L40.733,29.855z"/>
	<path fill="#7FBAD8" d="M43.276,31.652c0.203-0.339,0.066-0.779-0.271-0.982s-0.779-0.068-0.982,0.271l-5.32,9.218
		c0.713-0.203,1.355-0.406,2.033-0.576L43.276,31.652z"/>
	<path fill="#7FBAD8" d="M34.601,26.433c1.254-0.508,2.711,0.067,3.219,1.322c0.508,1.254-0.066,2.711-1.32,3.219
		c-1.256,0.509-2.713-0.067-3.221-1.321C32.735,28.398,33.347,26.976,34.601,26.433L34.601,26.433z"/>
	<path fill="#7FBAD8" d="M35.923,29.076c0.137-0.137,0.203-0.307,0.203-0.51v-4.574c-0.51,0.136-1.018,0.136-1.457-0.035v4.608
		c0,0.407,0.34,0.746,0.746,0.746C35.616,29.313,35.819,29.212,35.923,29.076L35.923,29.076z"/>
	<path fill="#7FBAD8" d="M39.987,16.199c0-1.355,1.119-2.475,2.477-2.475c1.355,0,2.473,1.118,2.473,2.475
		c0,1.355-1.117,2.474-2.473,2.474C41.106,18.673,39.987,17.588,39.987,16.199L39.987,16.199z"/>
	<path fill="#7FBAD8" d="M43.071,15.689c-0.102-0.406-0.508-0.609-0.881-0.508c-0.406,0.102-0.607,0.508-0.508,0.881l2.744,10.268
		c0.34-0.645,0.68-1.254,1.018-1.862L43.071,15.689z"/>
	<path fill="#7FBAD8" d="M33.278,18.13c0.508-1.255,1.965-1.864,3.221-1.321c1.254,0.508,1.863,1.965,1.32,3.219
		c-0.508,1.254-1.965,1.864-3.219,1.322C33.347,20.842,32.735,19.384,33.278,18.13L33.278,18.13z"/>
	<path fill="#7FBAD8" d="M36.091,19.045c0-0.17-0.068-0.373-0.203-0.508l-3.254-3.254c-0.236,0.441-0.609,0.78-1.051,1.018
		l3.254,3.253c0.271,0.271,0.746,0.271,1.018,0C36.022,19.418,36.091,19.248,36.091,19.045L36.091,19.045z"/>
	<path fill="#7FBAD8" d="M29.856,7.082c-0.949-0.949-0.949-2.543,0-3.49c0.947-0.949,2.541-0.949,3.49,0s0.949,2.542,0,3.49
		C32.362,8.031,30.804,8.031,29.856,7.082L29.856,7.082z"/>
	<path fill="#7FBAD8" d="M31.651,4.541c-0.338-0.203-0.777-0.068-0.98,0.271s-0.068,0.78,0.27,0.983l9.219,5.32
		c-0.203-0.711-0.406-1.355-0.576-2.033L31.651,4.541z"/>
	<path fill="#7FBAD8" d="M26.433,13.217c-0.508-1.254,0.068-2.711,1.322-3.221c1.254-0.508,2.711,0.068,3.219,1.322
		s-0.068,2.711-1.322,3.219C28.397,15.046,26.976,14.471,26.433,13.217L26.433,13.217z"/>
	<path fill="#7FBAD8" d="M29.075,11.861c-0.135-0.136-0.305-0.203-0.508-0.203h-4.575c0.135,0.508,0.135,1.017-0.033,1.457h4.608
		c0.406,0,0.746-0.34,0.746-0.746C29.313,12.166,29.214,11.996,29.075,11.861L29.075,11.861z"/>
	<path fill="#7FBAD8" d="M16.199,7.794c-1.356,0-2.474-1.118-2.474-2.474s1.117-2.475,2.474-2.475c1.354,0,2.474,1.118,2.474,2.475
		C18.672,6.709,17.588,7.794,16.199,7.794L16.199,7.794z"/>
	<path fill="#7FBAD8" d="M15.69,4.744c-0.406,0.102-0.609,0.508-0.508,0.881c0.102,0.406,0.508,0.609,0.881,0.508l10.27-2.745
		c-0.646-0.339-1.256-0.679-1.865-1.017L15.69,4.744z"/>
	<path fill="#0075B1" d="M25.823,3.795c0-1.084-0.881-1.932-1.932-1.932c-1.084,0-1.932,0.881-1.932,1.932
		c0,1.084,0.881,1.932,1.932,1.932C24.976,5.727,25.823,4.88,25.823,3.795L25.823,3.795z"/>
	<path fill="#0075B1" d="M25.823,43.988c0-1.084-0.881-1.933-1.932-1.933c-1.084,0-1.932,0.881-1.932,1.933
		c0,1.084,0.881,1.932,1.932,1.932C24.976,45.919,25.823,45.072,25.823,43.988L25.823,43.988z"/>
	<path fill="#0075B1" d="M45.921,23.891c0-1.084-0.881-1.932-1.934-1.932c-1.084,0-1.932,0.881-1.932,1.932
		c0,1.084,0.881,1.932,1.932,1.932C45.071,25.824,45.921,24.976,45.921,23.891L45.921,23.891z"/>
	<path fill="#0075B1" d="M5.727,23.891c0-1.084-0.881-1.932-1.932-1.932c-1.084,0-1.933,0.881-1.933,1.932
		c0,1.084,0.881,1.932,1.933,1.932C4.879,25.824,5.727,24.976,5.727,23.891L5.727,23.891z"/>
	<path fill="#0075B1" d="M40.056,9.691c0-1.084-0.881-1.932-1.932-1.932c-1.084,0-1.932,0.881-1.932,1.932
		c0,1.084,0.881,1.932,1.932,1.932S40.056,10.777,40.056,9.691L40.056,9.691z"/>
	<path fill="#0075B1" d="M11.624,9.691c0-1.084-0.881-1.932-1.932-1.932c-1.084,0-1.932,0.881-1.932,1.932
		c0,1.084,0.881,1.932,1.932,1.932C10.777,11.623,11.624,10.777,11.624,9.691L11.624,9.691z"/>
	<path fill="#0075B1" d="M40.056,38.091c0-1.085-0.881-1.933-1.932-1.933c-1.084,0-1.932,0.881-1.932,1.933
		c0,1.084,0.881,1.932,1.932,1.932C39.175,40.056,40.056,39.175,40.056,38.091L40.056,38.091z"/>
	<path fill="#0075B1" d="M11.624,38.091c0-1.085-0.881-1.933-1.932-1.933c-1.084,0-1.932,0.881-1.932,1.933
		c0,1.084,0.881,1.932,1.932,1.932C10.777,40.056,11.624,39.175,11.624,38.091L11.624,38.091z"/>
	<path fill="#9CC47F" d="M26.806,23.891c0-1.593-1.287-2.88-2.881-2.88c-1.592,0-2.881,1.288-2.881,2.88s1.289,2.88,2.881,2.88
		C25.483,26.806,26.806,25.484,26.806,23.891L26.806,23.891z"/>
	<path fill="#9CC47F" d="M20.401,12.267c0-0.711-0.576-1.321-1.322-1.321c-0.712,0-1.322,0.575-1.322,1.321s0.576,1.322,1.322,1.322
		C19.792,13.589,20.401,12.979,20.401,12.267L20.401,12.267z"/>
	<path fill="#9CC47F" d="M13.588,19.078c0-0.711-0.576-1.321-1.32-1.321c-0.713,0-1.322,0.575-1.322,1.321
		c0,0.711,0.576,1.321,1.322,1.321C12.979,20.4,13.588,19.791,13.588,19.078L13.588,19.078z"/>
	<path fill="#9CC47F" d="M13.588,28.738c0-0.713-0.576-1.322-1.32-1.322c-0.713,0-1.322,0.576-1.322,1.322
		c0,0.711,0.576,1.321,1.322,1.321C12.979,30.024,13.588,29.449,13.588,28.738L13.588,28.738z"/>
	<path fill="#9CC47F" d="M20.401,35.549c0-0.712-0.576-1.321-1.322-1.321c-0.712,0-1.322,0.576-1.322,1.321
		c0,0.744,0.576,1.32,1.322,1.32C19.792,36.869,20.401,36.261,20.401,35.549L20.401,35.549z"/>
	<path fill="#9CC47F" d="M30.024,35.549c0-0.712-0.576-1.321-1.32-1.321c-0.713,0-1.32,0.576-1.32,1.321
		c0,0.744,0.576,1.32,1.32,1.32S30.024,36.261,30.024,35.549L30.024,35.549z"/>
	<path fill="#9CC47F" d="M36.87,28.738c0-0.713-0.574-1.322-1.32-1.322c-0.744,0-1.32,0.576-1.32,1.322
		c0,0.711,0.576,1.321,1.32,1.321C36.261,30.024,36.87,29.449,36.87,28.738L36.87,28.738z"/>
	<path fill="#9CC47F" d="M36.87,19.078c0-0.711-0.574-1.321-1.32-1.321c-0.711,0-1.32,0.575-1.32,1.321
		c0,0.711,0.576,1.321,1.32,1.321C36.261,20.4,36.87,19.791,36.87,19.078L36.87,19.078z"/>
	<path fill="#9CC47F" d="M30.024,12.267c0-0.711-0.576-1.321-1.32-1.321c-0.713,0-1.32,0.575-1.32,1.321s0.576,1.322,1.32,1.322
		S30.024,12.979,30.024,12.267L30.024,12.267z"/>
	<path fill="#E2EDD9" d="M17.52,5.32c0-0.711-0.576-1.322-1.321-1.322c-0.746,0-1.321,0.576-1.321,1.322
		c0,0.711,0.575,1.321,1.321,1.321C16.944,6.642,17.52,6.065,17.52,5.32L17.52,5.32z"/>
	<path fill="#E2EDD9" d="M6.642,16.199c0-0.711-0.576-1.322-1.322-1.322c-0.712,0-1.321,0.576-1.321,1.322
		c0,0.711,0.575,1.321,1.321,1.321S6.642,16.943,6.642,16.199L6.642,16.199z"/>
	<path fill="#E2EDD9" d="M6.642,31.584c0-0.713-0.576-1.321-1.322-1.321c-0.712,0-1.321,0.576-1.321,1.321
		c0,0.712,0.575,1.32,1.321,1.32S6.642,32.328,6.642,31.584L6.642,31.584z"/>
	<path fill="#E2EDD9" d="M17.52,42.462c0-0.712-0.576-1.321-1.321-1.321c-0.746,0-1.321,0.576-1.321,1.321
		c0,0.712,0.575,1.321,1.321,1.321C16.944,43.783,17.52,43.207,17.52,42.462L17.52,42.462z"/>
	<path fill="#E2EDD9" d="M32.905,42.462c0-0.712-0.574-1.321-1.32-1.321c-0.711,0-1.322,0.576-1.322,1.321
		c0,0.712,0.576,1.321,1.322,1.321S32.905,43.207,32.905,42.462L32.905,42.462z"/>
	<path fill="#E2EDD9" d="M43.784,31.584c0-0.713-0.574-1.321-1.32-1.321c-0.711,0-1.322,0.576-1.322,1.321
		c0,0.712,0.576,1.32,1.322,1.32S43.784,32.328,43.784,31.584L43.784,31.584z"/>
	<path fill="#E2EDD9" d="M43.784,16.199c0-0.711-0.574-1.322-1.32-1.322c-0.711,0-1.322,0.576-1.322,1.322
		c0,0.711,0.576,1.321,1.322,1.321S43.784,16.943,43.784,16.199L43.784,16.199z"/>
	<path fill="#E2EDD9" d="M32.905,5.32c0-0.711-0.574-1.322-1.32-1.322c-0.711,0-1.322,0.576-1.322,1.322
		c0,0.711,0.576,1.321,1.322,1.321S32.905,6.065,32.905,5.32L32.905,5.32z"/>
</g>
</svg>
