<?xml version="1.0" encoding="utf-8"?>
<!-- Generator: Adobe Illustrator 18.1.1, SVG Export Plug-In . SVG Version: 6.00 Build 0)  -->
<!DOCTYPE svg PUBLIC "-//W3C//DTD SVG 1.1//EN" "http://www.w3.org/Graphics/SVG/1.1/DTD/svg11.dtd">
<svg version="1.1" id="Layer_1" xmlns="http://www.w3.org/2000/svg" xmlns:xlink="http://www.w3.org/1999/xlink" x="0px" y="0px"
	 viewBox="0 0 205 41" enable-background="new 0 0 205 41" xml:space="preserve">
<g>
	<g>
		<path fill="#FFFFFF" d="M21.5,32.5h3.3c1.5,0,2.6,1.1,2.6,2.7s-1,2.7-2.6,2.7h-1.3v2.4h-1.9v-7.8L21.5,32.5L21.5,32.5z M24.3,36.3
			c0.7,0,1-0.5,1-1.1c0-0.6-0.3-1.1-1-1.1h-1v2.1L24.3,36.3L24.3,36.3z"/>
		<path fill="#FFFFFF" d="M28.3,32.5h1.9v5c0,0.8,0.5,1.3,1.4,1.3c0.8,0,1.4-0.4,1.4-1.3v-5h1.9v5c0,1.8-1.3,3-3.3,3s-3.3-1.3-3.3-3
			L28.3,32.5L28.3,32.5z"/>
		<path fill="#FFFFFF" d="M36.7,32.5h2.9c1.6,0,2.7,0.7,2.7,2.1c0,0.7-0.3,1.3-0.9,1.7l0,0c0.9,0.3,1.2,1.1,1.2,1.8
			c0,1.7-1.4,2.4-3,2.4h-2.9V32.5z M39.6,35.6c0.5,0,0.7-0.4,0.7-0.7c0-0.4-0.2-0.7-0.7-0.7h-1v1.4L39.6,35.6L39.6,35.6z M39.8,38.6
			c0.6,0,0.8-0.4,0.8-0.8c0-0.4-0.3-0.8-0.8-0.8h-1.2v1.6H39.8z"/>
		<path fill="#FFFFFF" d="M44,32.5h1.9v6.2h3.2v1.7h-5.2v-7.9L44,32.5L44,32.5z"/>
		<path fill="#FFFFFF" d="M50.2,32.5h1.9v7.9h-1.9V32.5z"/>
		<path fill="#FFFFFF" d="M57.6,32.3c2,0,3,1.1,3,1.1l-0.9,1.5c0,0-0.9-0.8-2-0.8c-1.5,0-2.2,1.1-2.2,2.3c0,1.2,0.8,2.4,2.2,2.4
			c1.2,0,2.1-1,2.1-1l1,1.4c0,0-1.1,1.3-3.2,1.3c-2.5,0-4.1-1.8-4.1-4.1C53.5,34.1,55.2,32.3,57.6,32.3z"/>
		<path fill="#FFFFFF" d="M68.4,38.6h-2.5l-0.5,1.7h-2l2.7-7.9h2l2.7,7.9h-2L68.4,38.6z M67.2,34.2c0,0-0.2,0.9-0.3,1.4l-0.5,1.5H68
			l-0.4-1.5C67.4,35.1,67.2,34.2,67.2,34.2L67.2,34.2z"/>
		<path fill="#FFFFFF" d="M71.8,32.5h4.8v1.7h-2.9v1.7h2.4v1.7h-2.4v2.9h-1.9L71.8,32.5L71.8,32.5z"/>
		<path fill="#FFFFFF" d="M77.9,32.5h4.8v1.7h-2.9v1.7h2.4v1.7h-2.4v2.9h-1.9V32.5z"/>
		<path fill="#FFFFFF" d="M87.8,38.6h-2.5l-0.5,1.7h-2l2.7-7.9h2l2.7,7.9h-2L87.8,38.6z M86.4,34.2c0,0-0.2,0.9-0.3,1.4l-0.4,1.5
			h1.6L87,35.7C86.7,35.1,86.5,34.2,86.4,34.2L86.4,34.2z"/>
		<path fill="#FFFFFF" d="M91.1,32.5H93v7.9h-1.9V32.5z"/>
		<path fill="#FFFFFF" d="M94.9,32.5h2.8c0.8,0,1.2,0.1,1.5,0.2c0.9,0.3,1.5,1.1,1.5,2.3c0,0.8-0.4,1.8-1.2,2.2l0,0
			c0,0,0.1,0.1,0.3,0.5l1.5,2.8h-2.2l-1.4-2.7h-0.9v2.7h-1.9L94.9,32.5L94.9,32.5z M97.7,36.1c0.6,0,1-0.3,1-1c0-0.6-0.2-1-1.2-1
			h-0.7v1.9h0.9L97.7,36.1L97.7,36.1z"/>
		<path fill="#FFFFFF" d="M102.9,37.9c0,0,0.9,0.8,1.9,0.8c0.4,0,0.8-0.2,0.8-0.6c0-0.9-3.6-0.9-3.6-3.3c0-1.5,1.2-2.4,2.8-2.4
			c1.7,0,2.5,0.9,2.5,0.9l-0.8,1.6c0,0-0.8-0.7-1.7-0.7c-0.4,0-0.8,0.2-0.8,0.6c0,1,3.6,0.8,3.6,3.3c0,1.3-1,2.5-2.8,2.5
			c-1.9,0-2.9-1.1-2.9-1.1L102.9,37.9z"/>
		<path fill="#FFFFFF" d="M115,32.3c2,0,3,1.1,3,1.1l-0.9,1.5c0,0-0.9-0.8-2-0.8c-1.5,0-2.2,1.1-2.2,2.3c0,1.2,0.8,2.4,2.2,2.4
			c1.2,0,2.1-1,2.1-1l1,1.4c0,0-1.1,1.3-3.2,1.3c-2.5,0-4.1-1.8-4.1-4.1C110.9,34.1,112.7,32.3,115,32.3z"/>
		<path fill="#FFFFFF" d="M123,32.3c2.4,0,4.1,1.8,4.1,4c0,2.3-1.7,4.1-4.1,4.1c-2.4,0-4.1-1.8-4.1-4.1
			C118.8,34.1,120.6,32.3,123,32.3z M123,38.7c1.2,0,2.1-1,2.1-2.4c0-1.3-1-2.3-2.1-2.3c-1.2,0-2.1,1-2.1,2.3
			C120.8,37.8,121.8,38.7,123,38.7z"/>
		<path fill="#FFFFFF" d="M128.4,32.5h2l2.2,3.7c0.3,0.5,0.7,1.3,0.7,1.3l0,0c0,0-0.1-0.9-0.1-1.3v-3.7h1.9v7.9h-1.9l-2.2-3.7
			c-0.3-0.5-0.7-1.3-0.7-1.3l0,0c0,0,0.1,0.9,0.1,1.3v3.7h-1.9v-7.9H128.4z"/>
		<path fill="#FFFFFF" d="M137.4,37.9c0,0,0.9,0.8,1.9,0.8c0.4,0,0.8-0.2,0.8-0.6c0-0.9-3.6-0.9-3.6-3.3c0-1.5,1.2-2.4,2.8-2.4
			c1.7,0,2.5,0.9,2.5,0.9l-0.8,1.6c0,0-0.8-0.7-1.7-0.7c-0.4,0-0.8,0.2-0.8,0.6c0,1,3.6,0.8,3.6,3.3c0,1.3-1,2.5-2.8,2.5
			c-1.9,0-2.9-1.1-2.9-1.1L137.4,37.9z"/>
		<path fill="#FFFFFF" d="M143.2,32.5h1.9v5c0,0.8,0.5,1.3,1.4,1.3c0.9,0,1.4-0.4,1.4-1.3v-5h1.9v5c0,1.8-1.3,3-3.3,3
			s-3.3-1.3-3.3-3V32.5L143.2,32.5z"/>
		<path fill="#FFFFFF" d="M151.7,32.5h1.9v6.2h3.2v1.7h-5.2v-7.9L151.7,32.5L151.7,32.5z"/>
		<path fill="#FFFFFF" d="M158.9,34.2h-2.4v-1.7h6.7v1.7h-2.4v6.2h-1.9V34.2L158.9,34.2z"/>
		<path fill="#FFFFFF" d="M164.2,32.5h1.9v7.9h-1.9V32.5z"/>
		<path fill="#FFFFFF" d="M168,32.5h2l2.1,3.7c0.3,0.5,0.7,1.3,0.7,1.3l0,0c0,0-0.1-0.9-0.1-1.3v-3.7h1.9v7.9h-1.9l-2.2-3.7
			c-0.3-0.5-0.7-1.3-0.7-1.3l0,0c0,0,0.1,0.9,0.1,1.3v3.7H168V32.5L168,32.5z"/>
		<path fill="#FFFFFF" d="M180.1,32.3c2,0,3,1,3,1l-0.9,1.4c0,0-0.8-0.7-1.9-0.7c-1.7,0-2.3,1.1-2.3,2.2c0,1.5,1,2.4,2.3,2.4
			c0.9,0,1.6-0.6,1.6-0.6v-0.6h-1.1v-1.6h2.8v4.5H182v-0.2c0-0.2,0-0.3,0-0.3l0,0c0,0-0.8,0.7-2.1,0.7c-2,0-3.9-1.5-3.9-4.1
			C176,34.1,177.7,32.3,180.1,32.3z"/>
	</g>
	<g>
		<g>
			<path fill="#FFFFFF" d="M12.4,0.4c4.6,0,7.1,2.3,7.1,2.3l-1,1.5c0,0-2.3-2-5.9-2c-4.8,0-8.1,3.7-8.1,8.4c0,4.9,3.4,8.5,7.9,8.5
				c3.9,0,6.3-2.9,6.3-2.9v-3.4h-3.4v-1.7h5.3v9.5h-1.8v-1.5c0-0.4,0-0.8,0-0.8h-0.1c0,0-2.3,2.7-6.5,2.7c-5.4,0-9.7-4.4-9.7-10.3
				C2.3,4.9,6.7,0.4,12.4,0.4z"/>
			<path fill="#FFFFFF" d="M25.2,0.7h5.9c2,0,2.9,0.2,3.7,0.5c1.9,0.8,3,2.7,3,5.1c0,2.7-1.5,4.8-3.8,5.4v0.1c0,0,0.2,0.3,0.5,0.8
				l4.3,8h-2.2l-4.5-8.4h-5v8.4h-2V0.7H25.2z M31.9,10.5c2.4,0,3.9-1.6,3.9-4c0-1.6-0.7-2.9-1.8-3.5c-0.6-0.3-1.3-0.5-2.8-0.5h-4v8
				H31.9z"/>
			<path fill="#FFFFFF" d="M43,0.7h11.2v1.8h-9.3v7.2h7.6v1.8h-7.6v7.4h9.8v1.8H43L43,0.7L43,0.7z"/>
			<path fill="#FFFFFF" d="M59.2,0.7h11.2v1.8h-9.3v7.2h7.6v1.8h-7.6v7.4H71v1.8H59.2V0.7z"/>
			<path fill="#FFFFFF" d="M75.3,0.7h5.9c2,0,2.9,0.2,3.7,0.5c1.9,0.8,3,2.7,3,5.1c0,2.7-1.5,4.8-3.8,5.4v0.1c0,0,0.2,0.3,0.5,0.8
				l4.3,8h-2.2l-4.5-8.4h-5v8.4h-2V0.7H75.3z M82,10.5c2.4,0,3.9-1.6,3.9-4c0-1.6-0.7-2.9-1.8-3.5c-0.6-0.3-1.3-0.5-2.8-0.5h-4v8H82
				z"/>
		</g>
		<g>
			<path fill="#FFFFFF" d="M112.7,0.7h6.4c6,0,10,3.7,10,9.9c0,6.3-4,10-10,10h-6.4V0.7L112.7,0.7z M119,18.8c4.9,0,8.1-2.9,8.1-8.2
				s-3.3-8.2-8.1-8.2h-4.3v16.4H119z"/>
			<path fill="#FFFFFF" d="M143.4,14.3h-8l-2.3,6.3H131l7.3-19.9h2.1l7.3,19.9h-2.1L143.4,14.3z M139.4,2.8c0,0-0.4,1.6-0.8,2.6
				l-2.7,7.2h6.8l-2.6-7.2C139.9,4.4,139.4,2.8,139.4,2.8L139.4,2.8z"/>
			<path fill="#FFFFFF" d="M151,0.7h2v19.9h-2V0.7z"/>
			<path fill="#FFFFFF" d="M158.8,0.7h2v18.1h9.2v1.8h-11.2V0.7z"/>
			<path fill="#FFFFFF" d="M173.5,0.7h11.2v1.8h-9.3v7.2h7.6v1.8h-7.6v7.4h9.8v1.8h-11.7V0.7z"/>
			<path fill="#FFFFFF" d="M193.9,12.1l-6.7-11.3h2.2l4.2,7.2c0.6,1,1.2,2.4,1.2,2.4h0.1c0,0,0.6-1.3,1.2-2.4l4.2-7.2h2.2l-6.6,11.3
				v8.5h-2L193.9,12.1L193.9,12.1z"/>
		</g>
		<g>
			<rect x="98.8" y="0.7" fill="#FFC735" width="1.4" height="19.9"/>
		</g>
	</g>
</g>
</svg>
