<?xml version="1.0" encoding="utf-8"?>
<!-- Generator: Adobe Illustrator 18.1.1, SVG Export Plug-In . SVG Version: 6.00 Build 0)  -->
<!DOCTYPE svg PUBLIC "-//W3C//DTD SVG 1.1//EN" "http://www.w3.org/Graphics/SVG/1.1/DTD/svg11.dtd">
<svg version="1.1" id="Layer_1" xmlns="http://www.w3.org/2000/svg" xmlns:xlink="http://www.w3.org/1999/xlink" x="0px" y="0px"
	 viewBox="0 0 205 41" enable-background="new 0 0 205 41" xml:space="preserve">
<g>
	<g>
		<path fill="#0A4E8B" d="M22.6,32.3h3.3c1.5,0,2.6,1.1,2.6,2.7c0,1.6-1,2.7-2.6,2.7h-1.3v2.4h-1.9V32.3z M25.4,36.1
			c0.7,0,1-0.5,1-1.1c0-0.6-0.3-1.1-1-1.1h-1v2.1H25.4z"/>
		<path fill="#0A4E8B" d="M29.4,32.3h1.9v5c0,0.8,0.5,1.3,1.4,1.3c0.8,0,1.4-0.4,1.4-1.3v-5h1.9v5c0,1.8-1.3,3-3.3,3
			c-2,0-3.3-1.3-3.3-3V32.3z"/>
		<path fill="#0A4E8B" d="M37.8,32.3h2.9c1.6,0,2.7,0.7,2.7,2.1c0,0.7-0.3,1.3-0.9,1.7v0c0.9,0.3,1.2,1.1,1.2,1.8
			c0,1.7-1.4,2.4-3,2.4h-2.9V32.3z M40.7,35.4c0.5,0,0.7-0.4,0.7-0.7c0-0.4-0.2-0.7-0.7-0.7h-1v1.4H40.7z M40.9,38.5
			c0.6,0,0.8-0.4,0.8-0.8c0-0.4-0.3-0.8-0.8-0.8h-1.2v1.6H40.9z"/>
		<path fill="#0A4E8B" d="M45.1,32.3H47v6.2h3.2v1.7h-5.2V32.3z"/>
		<path fill="#0A4E8B" d="M51.3,32.3h1.9v7.9h-1.9V32.3z"/>
		<path fill="#0A4E8B" d="M58.7,32.2c2,0,3,1.1,3,1.1l-0.9,1.5c0,0-0.9-0.8-2-0.8c-1.5,0-2.2,1.1-2.2,2.3c0,1.2,0.8,2.4,2.2,2.4
			c1.2,0,2.1-1,2.1-1l1,1.4c0,0-1.1,1.3-3.2,1.3c-2.5,0-4.1-1.8-4.1-4.1C54.6,33.9,56.3,32.2,58.7,32.2z"/>
		<path fill="#0A4E8B" d="M69.5,38.5h-2.5l-0.5,1.7h-2l2.7-7.9h2l2.7,7.9h-2L69.5,38.5z M68.3,34.1c0,0-0.2,0.9-0.3,1.4L67.5,37h1.6
			l-0.4-1.5C68.5,35,68.3,34.1,68.3,34.1L68.3,34.1z"/>
		<path fill="#0A4E8B" d="M72.9,32.3h4.8V34h-2.9v1.7h2.4v1.7h-2.4v2.9h-1.9V32.3z"/>
		<path fill="#0A4E8B" d="M79,32.3h4.8V34h-2.9v1.7h2.4v1.7h-2.4v2.9H79V32.3z"/>
		<path fill="#0A4E8B" d="M88.8,38.5h-2.5l-0.5,1.7h-2l2.7-7.9h2l2.7,7.9h-2L88.8,38.5z M87.5,34.1c0,0-0.2,0.9-0.3,1.4L86.8,37h1.6
			l-0.4-1.5C87.7,35,87.6,34.1,87.5,34.1L87.5,34.1z"/>
		<path fill="#0A4E8B" d="M92.1,32.3h1.9v7.9h-1.9V32.3z"/>
		<path fill="#0A4E8B" d="M95.9,32.3h2.8c0.8,0,1.2,0.1,1.5,0.2c0.9,0.3,1.5,1.1,1.5,2.3c0,0.8-0.4,1.8-1.2,2.2v0
			c0,0,0.1,0.1,0.3,0.5l1.5,2.8h-2.2l-1.4-2.7h-0.9v2.7h-1.9V32.3z M98.7,35.9c0.6,0,1-0.3,1-1c0-0.6-0.2-1-1.2-1h-0.7v1.9H98.7z"/>
		<path fill="#0A4E8B" d="M103.9,37.7c0,0,0.9,0.8,1.9,0.8c0.4,0,0.8-0.2,0.8-0.6c0-0.9-3.6-0.9-3.6-3.3c0-1.5,1.2-2.4,2.8-2.4
			c1.7,0,2.5,0.9,2.5,0.9l-0.8,1.6c0,0-0.8-0.7-1.7-0.7c-0.4,0-0.8,0.2-0.8,0.6c0,1,3.6,0.8,3.6,3.3c0,1.3-1,2.5-2.8,2.5
			c-1.9,0-2.9-1.1-2.9-1.1L103.9,37.7z"/>
		<path fill="#0A4E8B" d="M116,32.2c2,0,3,1.1,3,1.1l-0.9,1.5c0,0-0.9-0.8-2-0.8c-1.5,0-2.2,1.1-2.2,2.3c0,1.2,0.8,2.4,2.2,2.4
			c1.2,0,2.1-1,2.1-1l1,1.4c0,0-1.1,1.3-3.2,1.3c-2.5,0-4.1-1.8-4.1-4.1C111.9,33.9,113.7,32.2,116,32.2z"/>
		<path fill="#0A4E8B" d="M124,32.2c2.4,0,4.1,1.8,4.1,4c0,2.3-1.7,4.1-4.1,4.1c-2.4,0-4.1-1.8-4.1-4.1
			C119.8,33.9,121.6,32.2,124,32.2z M124,38.6c1.2,0,2.1-1,2.1-2.4c0-1.3-1-2.3-2.1-2.3c-1.2,0-2.1,1-2.1,2.3
			C121.8,37.6,122.8,38.6,124,38.6z"/>
		<path fill="#0A4E8B" d="M129.4,32.3h2l2.2,3.7c0.3,0.5,0.7,1.3,0.7,1.3h0c0,0-0.1-0.9-0.1-1.3v-3.7h1.9v7.9h-1.9l-2.2-3.7
			c-0.3-0.5-0.7-1.3-0.7-1.3h0c0,0,0.1,0.9,0.1,1.3v3.7h-1.9V32.3z"/>
		<path fill="#0A4E8B" d="M138.4,37.7c0,0,0.9,0.8,1.9,0.8c0.4,0,0.8-0.2,0.8-0.6c0-0.9-3.6-0.9-3.6-3.3c0-1.5,1.2-2.4,2.8-2.4
			c1.7,0,2.5,0.9,2.5,0.9l-0.8,1.6c0,0-0.8-0.7-1.7-0.7c-0.4,0-0.8,0.2-0.8,0.6c0,1,3.6,0.8,3.6,3.3c0,1.3-1,2.5-2.8,2.5
			c-1.9,0-2.9-1.1-2.9-1.1L138.4,37.7z"/>
		<path fill="#0A4E8B" d="M144.2,32.3h1.9v5c0,0.8,0.5,1.3,1.4,1.3s1.4-0.4,1.4-1.3v-5h1.9v5c0,1.8-1.3,3-3.3,3c-2,0-3.3-1.3-3.3-3
			V32.3z"/>
		<path fill="#0A4E8B" d="M152.6,32.3h1.9v6.2h3.2v1.7h-5.2V32.3z"/>
		<path fill="#0A4E8B" d="M159.8,34h-2.4v-1.7h6.7V34h-2.4v6.2h-1.9V34z"/>
		<path fill="#0A4E8B" d="M165.1,32.3h1.9v7.9h-1.9V32.3z"/>
		<path fill="#0A4E8B" d="M168.9,32.3h2L173,36c0.3,0.5,0.7,1.3,0.7,1.3h0c0,0-0.1-0.9-0.1-1.3v-3.7h1.9v7.9h-1.9l-2.2-3.7
			c-0.3-0.5-0.7-1.3-0.7-1.3h0c0,0,0.1,0.9,0.1,1.3v3.7h-1.9V32.3z"/>
		<path fill="#0A4E8B" d="M181,32.2c2,0,3,1,3,1l-0.9,1.4c0,0-0.8-0.7-1.9-0.7c-1.7,0-2.3,1.1-2.3,2.2c0,1.5,1,2.4,2.3,2.4
			c0.9,0,1.6-0.6,1.6-0.6v-0.6h-1.1v-1.6h2.8v4.5h-1.6V40c0-0.2,0-0.3,0-0.3h0c0,0-0.8,0.7-2.1,0.7c-2,0-3.9-1.5-3.9-4.1
			C176.9,33.9,178.6,32.2,181,32.2z"/>
	</g>
	<g>
		<g>
			<path fill="#0A4E8B" d="M13.6,0.3c4.6,0,7.1,2.3,7.1,2.3l-1,1.5c0,0-2.3-2-5.9-2c-4.8,0-8.1,3.7-8.1,8.4c0,4.9,3.4,8.5,7.9,8.5
				c3.9,0,6.3-2.9,6.3-2.9v-3.4h-3.4V11h5.3v9.5h-1.8V19c0-0.4,0-0.8,0-0.8h-0.1c0,0-2.3,2.7-6.5,2.7c-5.4,0-9.7-4.4-9.7-10.3
				C3.5,4.8,7.9,0.3,13.6,0.3z"/>
			<path fill="#0A4E8B" d="M26.3,0.6h5.9c2,0,2.9,0.2,3.7,0.5c1.9,0.8,3,2.7,3,5.1c0,2.7-1.5,4.8-3.8,5.4v0.1c0,0,0.2,0.3,0.5,0.8
				l4.3,8h-2.2l-4.5-8.4h-5v8.4h-2V0.6z M33,10.4c2.4,0,3.9-1.6,3.9-4c0-1.6-0.7-2.9-1.8-3.5c-0.6-0.3-1.3-0.5-2.8-0.5h-4v8H33z"/>
			<path fill="#0A4E8B" d="M44.1,0.6h11.2v1.8h-9.3v7.2h7.6v1.8h-7.6v7.4h9.8v1.8H44.1V0.6z"/>
			<path fill="#0A4E8B" d="M60.3,0.6h11.2v1.8h-9.3v7.2h7.6v1.8h-7.6v7.4H72v1.8H60.3V0.6z"/>
			<path fill="#0A4E8B" d="M76.4,0.6h5.9c2,0,2.9,0.2,3.7,0.5c1.9,0.8,3,2.7,3,5.1c0,2.7-1.5,4.8-3.8,5.4v0.1c0,0,0.2,0.3,0.5,0.8
				l4.3,8h-2.2l-4.5-8.4h-5v8.4h-2V0.6z M83.1,10.4c2.4,0,3.9-1.6,3.9-4c0-1.6-0.7-2.9-1.8-3.5c-0.6-0.3-1.3-0.5-2.8-0.5h-4v8H83.1z
				"/>
		</g>
		<g>
			<path fill="#0A4E8B" d="M113.7,0.6h6.4c6,0,10,3.7,10,9.9c0,6.3-4,10-10,10h-6.4V0.6z M120,18.7c4.9,0,8.1-2.9,8.1-8.2
				c0-5.3-3.3-8.2-8.1-8.2h-4.3v16.4H120z"/>
			<path fill="#0A4E8B" d="M144.4,14.2h-8l-2.3,6.3h-2.1l7.3-19.9h2.1l7.3,19.9h-2.1L144.4,14.2z M140.4,2.7c0,0-0.4,1.6-0.8,2.6
				l-2.7,7.2h6.8l-2.6-7.2C140.9,4.3,140.4,2.7,140.4,2.7L140.4,2.7z"/>
			<path fill="#0A4E8B" d="M152,0.6h2v19.9h-2V0.6z"/>
			<path fill="#0A4E8B" d="M159.7,0.6h2v18.1h9.2v1.8h-11.2V0.6z"/>
			<path fill="#0A4E8B" d="M174.4,0.6h11.2v1.8h-9.3v7.2h7.6v1.8h-7.6v7.4h9.8v1.8h-11.7V0.6z"/>
			<path fill="#0A4E8B" d="M194.8,12l-6.7-11.3h2.2l4.2,7.2c0.6,1,1.2,2.4,1.2,2.4h0.1c0,0,0.6-1.3,1.2-2.4l4.2-7.2h2.2L196.8,12
				v8.5h-2V12z"/>
		</g>
		<g>
			<rect x="99.8" y="0.6" fill="#FEC634" width="1.4" height="19.9"/>
		</g>
	</g>
</g>
</svg>
