<?xml version="1.0" encoding="utf-8"?>
<!-- Generator: Adobe Illustrator 18.1.1, SVG Export Plug-In . SVG Version: 6.00 Build 0)  -->
<!DOCTYPE svg PUBLIC "-//W3C//DTD SVG 1.1//EN" "http://www.w3.org/Graphics/SVG/1.1/DTD/svg11.dtd">
<svg version="1.1" id="Layer_1" xmlns="http://www.w3.org/2000/svg" xmlns:xlink="http://www.w3.org/1999/xlink" x="0px" y="0px"
	 viewBox="0 0 1139.8 1080" enable-background="new 0 0 1139.8 1080" xml:space="preserve">
<g>
	<path fill="#9CC47F" d="M485.2,483v112.5l56.2,15.5l56.2-15.5l56.2,15.5V498.5L597.5,483l-56.2,15.5L485.2,483z M485.2,483"/>
	<path fill="#E2EDD9" d="M597.5,483l-56.2,15.5V611l56.2-15.5V483z M597.5,483"/>
	<path fill-rule="evenodd" clip-rule="evenodd" fill="#CEE2BF" d="M597.5,483l-2.4,0.7l5.9,14.2l29.2,26.1l-1,17.4
		c-3.4-0.2-6.7-0.4-10.2-0.7c-20.2-1.3-39.3-2.4-40.2-2.4l-0.9-0.8c0-0.2,0.3-6,0.5-12.2c0.1-3.2,0.2-6.4,0.2-9.1c0-1.3,0-2.5,0-3.4
		c0-0.9-0.1-1.6-0.2-2.1c-0.3-1.6-1.2-3.5-2.1-5c-0.8-1.6-1.6-2.7-1.6-2.7l-0.3-0.5l-3.1-0.3l-0.5-11l1.6-1.2l-3.7,1l0.5,11.1
		l-21.1-1.8l-0.8-3.4l-2,0.6l1.1,4.8l26.7,2.2c0.2,0.3,0.6,0.9,1.2,2.2c0.8,1.5,1.6,3.3,1.9,4.5c0,0.2,0.1,0.9,0.1,1.8
		c0,0.9,0,2.1,0,3.4c0,2.6-0.1,5.9-0.2,9c-0.2,4.8-0.3,8.5-0.4,10.5l-39.4-35.3l-16.5-4.8l-2.1-3.6l-7.3-2l4.1,7l-20.2-2.2
		l-3.7-10.2l-2.5-0.7l2.1,5.7l-5.3-0.1v2.1l5.7,0.1l0-0.9l2.2,6l23,2.6l0.5,0.8l17.3,5l4.4,3.9l-53.2,0.2v2.1l54.9-0.2l0.6,17.7
		l8.1,7.3l-0.8,22.4l-24.6-4.2l-3.5-20.3l7.2-1.1l-1.8-21.4l-2.1,0.2l1.7,19.5l-6.7,1l-32.9-4.2v2.1l0.5,0.1l-0.5,3.7V550l2.6-19.6
		l30,3.8l3.4,19.8l-10.6-1.8l-5.3,21.5l-20-9.7v2.3l43.2,20.8l-0.3,20.2l2.1,0.6l0.3-20.5l18.6,0.1l0.5-14l13.6-0.9l-12.8,35.8
		l6.2-1.7l12.3-34.5l25.3-1.6l21.1,15.2L602.9,597l6,1.7l10.1-9.2l-0.4,0.6l28.4,19.2l6.4,1.8l-33.4-22.5l10.3-9.3l23.3,13.1v-2.4
		L632,577.7l0.6-0.5l1.7-30.1c4.7,0.3,9.2,0.6,13,0.9c1.4,0.1,2.6,0.2,3.8,0.3l1.6,28.7l1.1,0.2v-19l-0.5-9.7c0.2,0,0.3,0,0.5,0.1
		v-5.3c-1.8-0.2-3.8-0.3-6-0.5c-3.9-0.3-8.4-0.6-13.1-0.9l1-17.5l18.2-6.4v-2.2l-4.2,1.5l-20.1-21.5l0.3-3.7l-2.1-0.6l-0.4,5.1
		l20.1,21.5l-11.7,4.1l0-0.3l-26.5-23.6l5.4-10.4l-2.1-0.6l-5,9.5l-2.1-1.9l-4.5-10.8L597.5,483z M648.7,497.2
		c2.3,5.4,3.8,9,4.9,11.6v-5.4c-0.8-1.9-1.3-3-2.3-5.5L648.7,497.2z M542.2,512.5l32.1,28.8l-10.4,29.2l-14.2,0.9l1.2-36.2l-8.2-7.4
		L542.2,512.5z M579,543.6c2,0.1,20.2,1.1,39.7,2.4c3.5,0.2,6.8,0.4,10.2,0.7l-1.5,28l-10.7,9.7l-22-15.9l-25.2,1.6L579,543.6z
		 M512.1,554.6l35.8,6.1l-0.9,24.7l-17.8-0.1l-22.1-10.7L512.1,554.6z M541,610.9l0.3,0.1l0.3-0.1H541z M541,610.9"/>
	<path fill-rule="evenodd" clip-rule="evenodd" fill="#7FBAD8" d="M485.2,483v3.7l1.6,2.8l3.7,0.1l-2.1-5.7L485.2,483z M490.9,484.6
		l3.7,10.2l20.2,2.2l-4.1-7L490.9,484.6z M490.9,490.8l0,0.9l-2.9,0l10.2,17.6l40-0.2l-4.4-3.9l-17.3-5l-0.5-0.8l-23-2.5
		L490.9,490.8z M540,511.2l-40.5,0.2l3.1,5.2l21.2,6.9l0.4,0.4l-1-12.1l2.1-0.2l1.2,14.3l14.9,13.1v-9.5l-0.7-0.6L540,511.2z
		 M540,511.2"/>
	<g>
		<defs>
			<rect id="SVGID_1_" x="485" y="468" width="169" height="144"/>
		</defs>
		<clipPath id="SVGID_2_">
			<use xlink:href="#SVGID_1_"  overflow="visible"/>
		</clipPath>
		<path clip-path="url(#SVGID_2_)" fill-rule="evenodd" clip-rule="evenodd" fill="#7FBAD8" d="M653.6,517.9l-18.2,6.4l-1,17.5
			c4.8,0.3,9.3,0.6,13.1,0.9c0.6,0,1.1,0.1,1.7,0.1l0.6-7.9l3.7-1.1V517.9z M597.5,544.7V564l30.4,2.7l1.1-20
			c-3.4-0.2-6.8-0.4-10.2-0.7C610.9,545.5,603.9,545.1,597.5,544.7L597.5,544.7z M634.2,547l-1.7,30.1l-0.6,0.5l14.1,7.9l2.9-37.5
			c-0.6,0-1.1-0.1-1.7-0.1C643.4,547.6,638.9,547.3,634.2,547L634.2,547z M630.3,579.1l-10.3,9.3l14.8,10l11-10.2l0-0.4L630.3,579.1
			L630.3,579.1z M619,589.4l-10.1,9.2l19.9,5.5l4.5-4.2l-14.7-9.9L619,589.4z M619,589.4"/>
		<path clip-path="url(#SVGID_2_)" fill="#0075B1" d="M583.3,474.1c7.9-7.9,20.8-7.9,28.7,0.1c7.9,7.9,8,20.8,0.1,28.7l-14.3,14.3
			l-14.4-14.4C575.4,494.9,575.3,482.1,583.3,474.1L583.3,474.1z M583.3,474.1"/>
	</g>
	<path fill="#7FBAD8" d="M590.4,497v-8.9l-3.7,0l11.2-11.1l11,10.9l-3.7,0v9.1H590.4z M590.4,497"/>
	<path fill-rule="evenodd" clip-rule="evenodd" fill="#7FBAD8" d="M542.2,512.5l0.5,15.3l8.2,7.4l-0.4,11.8l16.1,14.2l0.6,0.1
		l7.1-20L542.2,512.5L542.2,512.5z M541.3,529.5v9.5l7.1,6.3l0.3-9.1L541.3,529.5z M579,543.6l-6.5,18.2l24.9,2.2v-19.3
		C587.9,544.1,580.2,543.7,579,543.6L579,543.6z M579,543.6"/>
	<path fill="#0075B1" d="M555.5,539.3c-7.9-7.9-20.8-7.9-28.7,0.1c-7.9,7.9-8,20.8-0.1,28.7l14.3,14.3l14.4-14.4
		C563.4,560.1,563.5,547.3,555.5,539.3L555.5,539.3z M555.5,539.3"/>
	<path fill="#7FBAD8" d="M533.6,553.2v9.1h14.8v-8.9l3.7,0l-11.2-11.1l-11,10.9L533.6,553.2z M533.6,553.2"/>
</g>
</svg>
