<?xml version="1.0" encoding="utf-8"?>
<!-- Generator: Adobe Illustrator 18.1.1, SVG Export Plug-In . SVG Version: 6.00 Build 0)  -->
<!DOCTYPE svg PUBLIC "-//W3C//DTD SVG 1.1//EN" "http://www.w3.org/Graphics/SVG/1.1/DTD/svg11.dtd">
<svg version="1.1" id="Layer_1" xmlns="http://www.w3.org/2000/svg" xmlns:xlink="http://www.w3.org/1999/xlink" x="0px" y="0px"
	 viewBox="0 0 1139.8 1080" enable-background="new 0 0 1139.8 1080" xml:space="preserve">
<g>
	<path fill="#0075B1" d="M639.4,510.3H571c-1.7,0-3.1,1.4-3.1,3.1v101.5c0,1.7,1.4,3.1,3.1,3.1h68.5c1.7,0,3.1-1.4,3.1-3.1V513.4
		C642.5,511.7,641.1,510.3,639.4,510.3L639.4,510.3z M639.4,510.3"/>
	<path fill="#7FBAD8" d="M577.8,520c-1.7,0-3.1,1.4-3.1,3.1v8.3c0,1.7,1.4,3.1,3.1,3.1h8.3c1.7,0,3.1-1.4,3.1-3.1v-8.3
		c0-1.7-1.4-3.1-3.1-3.1H577.8z M601,520c-1.7,0-3.1,1.4-3.1,3.1v8.3c0,1.7,1.4,3.1,3.1,3.1h8.3c1.7,0,3.1-1.4,3.1-3.1v-8.3
		c0-1.7-1.4-3.1-3.1-3.1H601z M624.3,520c-1.7,0-3.1,1.4-3.1,3.1v8.3c0,1.7,1.4,3.1,3.1,3.1h8.4c1.7,0,3-1.4,3-3.1v-8.3
		c0-1.7-1.3-3.1-3-3.1H624.3z M577.8,543.4c-1.7,0-3.1,1.4-3.1,3.1v8.3c0,1.7,1.4,3.1,3.1,3.1h8.3c1.7,0,3.1-1.4,3.1-3.1v-8.3
		c0-1.7-1.4-3.1-3.1-3.1H577.8z M601,543.4c-1.7,0-3.1,1.4-3.1,3.1v8.3c0,1.7,1.4,3.1,3.1,3.1h8.3c1.7,0,3.1-1.4,3.1-3.1v-8.3
		c0-1.7-1.4-3.1-3.1-3.1H601z M624.3,543.4c-1.7,0-3.1,1.4-3.1,3.1v8.3c0,1.7,1.4,3.1,3.1,3.1h8.4c1.7,0,3-1.4,3-3.1v-8.3
		c0-1.7-1.3-3.1-3-3.1H624.3z M577.8,566.8c-1.7,0-3.1,1.4-3.1,3.1v8.3c0,1.7,1.4,3.1,3.1,3.1h8.3c1.7,0,3.1-1.4,3.1-3.1v-8.3
		c0-1.7-1.4-3.1-3.1-3.1H577.8z M601,566.8c-1.7,0-3.1,1.4-3.1,3.1v8.3c0,1.7,1.4,3.1,3.1,3.1h8.3c1.7,0,3.1-1.4,3.1-3.1v-8.3
		c0-1.7-1.4-3.1-3.1-3.1H601z M624.3,566.8c-1.7,0-3.1,1.4-3.1,3.1v8.3c0,1.7,1.4,3.1,3.1,3.1h8.4c1.7,0,3-1.4,3-3.1v-8.3
		c0-1.7-1.3-3.1-3-3.1H624.3z M598.3,590.2c-1.7,0-3.1,1.4-3.1,3.1V618h19.9v-24.7c0-1.7-1.4-3.1-3.1-3.1H598.3z M598.3,590.2"/>
	<path fill="#9CC47F" d="M525.1,499.2c-1.2,0-2.3,1-2.4,2.2l-12.5,114.5c-0.1,1.2,0.7,2.2,1.9,2.2h45.8c1.2,0,2.1-1,1.9-2.2
		l-12.5-114.5c-0.1-1.2-1.2-2.2-2.4-2.2H525.1z M525.1,499.2"/>
	<rect x="601.9" y="471.5" fill="#E2EDD9" width="6.7" height="29.3"/>
	<path fill="#9CC47F" d="M499,496.1l126.8-34c1.4-0.4,2.9,0.5,3.3,1.9l0.8,3.2c0.4,1.4-0.5,2.9-1.9,3.3l-126.8,34
		c-1.4,0.4-2.9-0.5-3.3-1.9l-0.8-3.2C496.7,497.9,497.6,496.5,499,496.1L499,496.1z M499,496.1"/>
	<path fill="#E2EDD9" d="M529.9,499.2c-0.7,0-1.3,1-1.4,2.3L516.7,618h36.6l-11.8-116.5c-0.1-1.3-0.8-2.3-1.4-2.3H529.9z
		 M529.9,499.2"/>
	<path fill="#9CC47F" d="M516.9,599.3h36.3c1.2,0,2.2,1,2.2,2.2v1.8c0,1.2-1,2.2-2.2,2.2h-36.3c-1.2,0-2.2-1-2.2-2.2v-1.8
		C514.7,600.3,515.7,599.3,516.9,599.3L516.9,599.3z M516.9,599.3"/>
	<path fill="#9CC47F" d="M519.2,574.1h31.7c1.2,0,2.2,1,2.2,2.2v1.8c0,1.2-1,2.2-2.2,2.2h-31.7c-1.2,0-2.2-1-2.2-2.2v-1.8
		C517.1,575.1,518,574.1,519.2,574.1L519.2,574.1z M519.2,574.1"/>
	<path fill="#9CC47F" d="M523.2,548.9h23.7c1.2,0,2.2,1,2.2,2.2v1.8c0,1.2-1,2.2-2.2,2.2h-23.7c-1.2,0-2.2-1-2.2-2.2V551
		C521,549.8,522,548.9,523.2,548.9L523.2,548.9z M523.2,548.9"/>
	<path fill="#9CC47F" d="M525.5,523.6h19c1.2,0,2.2,1,2.2,2.2v1.8c0,1.2-1,2.2-2.2,2.2h-19c-1.2,0-2.2-1-2.2-2.2v-1.8
		C523.4,524.6,524.3,523.6,525.5,523.6L525.5,523.6z M525.5,523.6"/>
	<path fill="#9CC47F" d="M520.2,481.3h29.7c1.2,0,2.2,1,2.2,2.2v17.3c0,1.2-1,2.2-2.2,2.2h-29.7c-1.2,0-2.2-1-2.2-2.2v-17.3
		C518.1,482.3,519,481.3,520.2,481.3L520.2,481.3z M520.2,481.3"/>
	<path fill="#9CC47F" d="M509.9,490c-0.5,0-1.1,0.1-1.5,0.5l2.6,0C510.6,490.2,510.3,490,509.9,490L509.9,490z M527.8,503.7l-0.9,7
		l18.9,14.9l-1.1-8.6L527.8,503.7z M524.7,527.2l-0.9,6.8l25.1,17.1l-1.1-8.1L524.7,527.2z M521.5,552.4l-0.8,6.6l31.8,19.2l-1-7.7
		L521.5,552.4z M518.7,574.3l-0.9,6.6l37.9,22.8l-1-7.7L518.7,574.3z M518.7,574.3"/>
	<path fill="#0075B1" d="M589.5,491h31.4c1.2,0,2.2,1,2.2,2.2v8.2c0,1.2-1,2.2-2.2,2.2h-31.4c-1.2,0-2.2-1-2.2-2.2v-8.2
		C587.3,491.9,588.3,491,589.5,491L589.5,491z M589.5,491"/>
</g>
</svg>
