<?xml version="1.0" encoding="utf-8"?>
<!-- Generator: Adobe Illustrator 16.0.0, SVG Export Plug-In . SVG Version: 6.00 Build 0)  -->
<!DOCTYPE svg PUBLIC "-//W3C//DTD SVG 1.1//EN" "http://www.w3.org/Graphics/SVG/1.1/DTD/svg11.dtd">
<svg version="1.1" id="Layer_1" xmlns="http://www.w3.org/2000/svg" xmlns:xlink="http://www.w3.org/1999/xlink" x="0px" y="0px"
	 width="24.699px" height="81.992px" viewBox="0 0 24.699 81.992" enable-background="new 0 0 24.699 81.992" xml:space="preserve">
<g>
	<path fill="#39393B" d="M20.093,51.253H4.604L0,21.292V0.001h24.699v21.29L20.093,51.253z M20.451,61.598
		c2.213,2.213,3.291,5.023,3.291,8.492c0,3.529-1.078,6.398-3.291,8.611c-2.211,2.213-5.082,3.289-8.611,3.289
		c-3.469,0-6.278-1.076-8.491-3.289c-2.212-2.213-3.289-5.082-3.289-8.611c0-3.469,1.077-6.279,3.289-8.492
		c2.213-2.213,5.022-3.289,8.491-3.289C15.369,58.309,18.24,59.446,20.451,61.598z"/>
</g>
</svg>
