<?xml version="1.0" encoding="utf-8"?>
<!-- Generator: Adobe Illustrator 18.1.1, SVG Export Plug-In . SVG Version: 6.00 Build 0)  -->
<!DOCTYPE svg PUBLIC "-//W3C//DTD SVG 1.1//EN" "http://www.w3.org/Graphics/SVG/1.1/DTD/svg11.dtd">
<svg version="1.1" id="Layer_1" xmlns="http://www.w3.org/2000/svg" xmlns:xlink="http://www.w3.org/1999/xlink" x="0px" y="0px"
	 viewBox="0 0 1139.8 1080" enable-background="new 0 0 1139.8 1080" xml:space="preserve">
<g>
	<path fill="#7FBAD8" d="M566.5,466v27.7h-34.4c-1,0-1.8,0.8-1.8,1.8v11.7h-20.2c-1.6,0-2.9,1.3-2.9,2.9v9.2H504c-1.6,0-3,1.3-3,3
		v70.9c0,1.6,1.3,3,3,3h8.1c1.6,0,3-1.3,3-3v-52.9h10.3v26.8c0.8-0.4,1.6-0.6,2.5-0.6l11.5,0v-26.2h10.3V566
		c0.1-0.1,0.3-0.1,0.4-0.2c0.4-0.2,0.7-0.4,1-0.5c0.1-0.1,0.2-0.1,0.4-0.2c0,0,0.1,0,0.1-0.1l0.1-0.1l12-8.3v-16.2h10.3V554l9,3.2
		l0.1,0v0c1.4,0.5,2.7,1.6,3.2,2.8c0.6,1.2,0.6,2.1,0.7,2.9l0.4,2c0.2,0.1,0.4,0.1,0.6,0.2v-24.8h10.3v26.2h11.5
		c0.7,0,1.5,0.1,2.3,0.4l0.2,0.1v-26.8h10.3v52.9c0,1.6,1.3,3,2.9,3h8.1c1.6,0,3-1.3,3-3v-70.9c0-1.6-1.3-3-3-3h-3.2v-9.2
		c0-1.6-1.3-2.9-2.9-2.9h-20.2v-11.7c0-1-0.8-1.8-1.8-1.8h-34.4v-15.2c3,0.2,4.9,1.6,5.8,3.2c4,0.1,6.7-0.1,9.6,2.6
		c0.3-7.7-2.1-8.5-8.4-9.7C575.7,467.4,572.9,466,566.5,466L566.5,466z M566.5,466"/>
	<path fill="#9CC47F" d="M610.9,569.7c-0.3-0.1-0.7-0.2-1.1-0.2h-18.7c-4.4-1.8-12.7-5-15.2-5.9c-1.4-0.5-2.5-0.3-3.7,0.2
		c-2.3,1.5-8.4,5.7-9.9,7.1c-1.1,1.1-1.9,4.8-2.2,6.4l0,0.1c0,0-0.5,2.5-0.8,6.2c-0.1,0.6-0.3,2-0.2,2.5c0.1,0,0.4,0.1,0.6,0.1
		c1.4,0.3,3.9-0.4,4.7-1.9c1.5-3.3,2.9-7.2,2.9-7.2l0.4-0.9l1,0c0,0,1.9-0.1,3.2-0.8c1.4-0.8,1.9-1.4,2-1.5l1-1.6l1.2,1.4
		c7.8,8,20.5,21.3,22,22.4c0.3,0.2,1,0.2,1.7,0.1c0-0.1,0-0.2,0-0.2l9.8,0c1.6,0,2.9-1.3,2.9-2.9v-20.8
		C612.7,571.2,612,570.1,610.9,569.7L610.9,569.7z M582,560.1l-9.8-3.5c-2.3-0.3-4,0.3-5.8,1.6l-13.6,9.4c-0.1,0-2.3,1.3-3.5,1.9
		l-21.5,0c-1.6,0-2.9,1.3-2.9,2.9v20.8c0,1.6,1.3,2.9,2.9,2.9l12.9,0c1.9,0.8,3.8,1.6,3.8,1.6c0.7,0.1,1.9,0.3,3.1,1.1
		c0.9,0.7,1.5,1.3,1.9,1.8c0.8,0.1,2.3,0.3,3.7,1.3c0.8,0.6,1.4,1.2,1.9,1.7l0.4,0c0.1,0,2.9,0.2,5.2,2.1c1.7,1.5,2.5,2.8,2.8,3.6
		c0.7,0.1,1.5,0.3,2.4,0.7c1.2,0.6,1.9,1.3,2.4,1.8c1.7,0.6,4,1,4.7,0.9c0.3-0.1,0.8-0.4,1.2-0.8c-1.9-1.4-3.4-2.9-3.7-3.3l2.1-2.1
		c1.8,1.9,5.1,4.8,7.2,4.8c0.6,0,1.5-0.8,2.2-1.6c-0.3-0.2-0.5-0.4-0.6-0.4l-6.3-5.7l2-2.1l6.3,5.7c0.5,0.4,1.8,1.3,2.7,1.1
		c1-0.1,1.6-0.6,2.1-1.6c0.2-0.4,0.4-1,0.4-1.6c-0.9-0.6-1.8-1.2-2.4-1.8c-1.6-1.5-5.8-6.6-6-6.9l2.2-1.9c1.1,1.5,4.5,5.5,5.8,6.7
		c2,2,3.3,2.2,3.9,2.2c1.3-0.1,2.1-0.6,2.7-1.4c0.8-1,1-2.4,0.9-3.1c-0.1-1-0.3-1.4-1.2-2.2l0.1,0c-4.1-3.9-13.2-13.4-19.6-20.1
		c-0.5,0.4-1.1,0.8-1.9,1.1c-1.3,0.6-2.5,0.9-3.4,1c-0.5,1.4-1.5,4.1-2.8,6.6c-1.4,3-5.4,3.9-7.7,3.5c-3.3-0.5-3.3-2.1-2.9-5.8
		c0.4-3.4,0.8-5.9,0.9-6.3c0.1-0.9,0.7-6,3-8.2c1.9-1.8,9.3-6.7,10.3-7.3c1-0.9,3.2-1.9,6.4-0.6c1.1,0.4,4.3,1.7,7.1,2.8
		C583.8,561.7,583.8,560.6,582,560.1L582,560.1z M558.2,606.9c-1.3-0.6-2.7-0.5-3.2,0.4c-0.6,1.1,0.1,2.7,1.6,3.7
		c1.5,1,3.2,0.9,3.8-0.2c0.6-1.1-0.1-2.7-1.6-3.7C558.5,607.1,558.3,607,558.2,606.9L558.2,606.9z M546.3,600.1
		c-0.9-0.5-1.9-0.4-2.3,0.3c-0.3,0.6,0.2,1.5,1.1,2c0.9,0.5,1.9,0.4,2.3-0.3C547.7,601.5,547.2,600.6,546.3,600.1L546.3,600.1z
		 M551.8,603.3c-1.3-0.7-2.6-0.5-3.1,0.4c-0.4,0.9,0.2,2.1,1.5,2.8c1.3,0.7,2.7,0.5,3.1-0.4C553.7,605.2,553,604,551.8,603.3
		L551.8,603.3z M565.1,612c-1-0.6-2.1-0.6-2.5,0.1c-0.4,0.7,0,1.7,1,2.3c1,0.6,2.1,0.6,2.6-0.1C566.5,613.7,566.1,612.6,565.1,612
		L565.1,612z M565.1,612"/>
</g>
</svg>
