<?xml version="1.0" encoding="utf-8"?>
<!-- Generator: Adobe Illustrator 18.1.1, SVG Export Plug-In . SVG Version: 6.00 Build 0)  -->
<!DOCTYPE svg PUBLIC "-//W3C//DTD SVG 1.1//EN" "http://www.w3.org/Graphics/SVG/1.1/DTD/svg11.dtd">
<svg version="1.1" id="Layer_1" xmlns="http://www.w3.org/2000/svg" xmlns:xlink="http://www.w3.org/1999/xlink" x="0px" y="0px"
	 viewBox="0 0 1139.8 1080" enable-background="new 0 0 1139.8 1080" xml:space="preserve">
<g>
	<path fill="#0075B1" d="M498.5,475h118c4.2,0,7.5,3.4,7.5,7.5v93.1c0,4.2-3.4,7.5-7.5,7.5h-118c-4.2,0-7.5-3.4-7.5-7.5v-93.1
		C491,478.4,494.4,475,498.5,475L498.5,475z"/>
	<path fill="#0075B1" d="M557.5,564.7c3.3,0,6,2.8,6,6.3v25.5c0,3.5-2.7,6.3-6,6.3c-3.3,0-6-2.8-6-6.3V571
		C551.6,567.5,554.2,564.7,557.5,564.7L557.5,564.7z"/>
	<path fill="#7FBAD8" d="M506.3,486.2h102.5c3.2,0,5.8,2.6,5.8,5.8v72.1c0,3.2-2.6,5.8-5.8,5.8H506.3c-3.2,0-5.8-2.6-5.8-5.8v-72.1
		C500.5,488.8,503.1,486.2,506.3,486.2L506.3,486.2z"/>
	<path fill="#0075B1" d="M536.7,594.4h41.7c1.6,0,3,1.3,3,3v5.9c0,1.6-1.3,3-3,3h-41.7c-1.6,0-3-1.3-3-3v-5.9
		C533.7,595.8,535,594.4,536.7,594.4L536.7,594.4z"/>
	<path fill="#9CC47F" d="M579.1,524.2c-2.4,0-4.3,1.9-4.3,4.3V602c0,2.4,1.9,4.3,4.3,4.3h53.3c2.4,0,4.3-1.9,4.3-4.3v-59.9l-18.4-18
		H579.1z"/>
	<path fill="#E2EDD9" d="M618.2,524.2v13.7c0,2.4,1.9,4.3,4.3,4.3h14.1L618.2,524.2z"/>
	<rect x="582.5" y="538.2" fill="#E2EDD9" width="20.9" height="4"/>
	<rect x="582.5" y="547.6" fill="#E2EDD9" width="46.3" height="4"/>
	<rect x="582.5" y="557.1" fill="#E2EDD9" width="46.3" height="4"/>
	<rect x="582.5" y="566.5" fill="#E2EDD9" width="46.3" height="4"/>
	<rect x="582.5" y="576" fill="#E2EDD9" width="46.3" height="4"/>
	<rect x="582.5" y="585.4" fill="#E2EDD9" width="46.3" height="4"/>
	<rect x="582.5" y="594.9" fill="#E2EDD9" width="46.3" height="4"/>
	<path fill="#0075B1" d="M616.8,553.8h27.4c1.6,0,2.9,1.3,2.9,2.9v46.7c0,1.6-1.3,2.9-2.9,2.9h-27.4c-1.6,0-2.9-1.3-2.9-2.9v-46.7
		C613.9,555.1,615.2,553.8,616.8,553.8L616.8,553.8z"/>
	<path fill="#7FBAD8" d="M619.9,558.2H641c1,0,1.7,0.8,1.7,1.7v37.2c0,1-0.8,1.7-1.7,1.7h-21.1c-1,0-1.7-0.8-1.7-1.7V560
		C618.2,559,618.9,558.2,619.9,558.2L619.9,558.2z"/>
	<path fill="#7FBAD8" d="M632.7,602.6c0,1.2-1,2.2-2.2,2.2c-1.2,0-2.2-1-2.2-2.2c0-1.2,1-2.2,2.2-2.2
		C631.7,600.4,632.7,601.4,632.7,602.6L632.7,602.6z"/>
</g>
</svg>
