<?xml version="1.0" encoding="utf-8"?>
<!-- Generator: Adobe Illustrator 18.1.1, SVG Export Plug-In . SVG Version: 6.00 Build 0)  -->
<!DOCTYPE svg PUBLIC "-//W3C//DTD SVG 1.1//EN" "http://www.w3.org/Graphics/SVG/1.1/DTD/svg11.dtd">
<svg version="1.1" id="Layer_1" xmlns="http://www.w3.org/2000/svg" xmlns:xlink="http://www.w3.org/1999/xlink" x="0px" y="0px"
	 viewBox="0 0 1139.8 1080" enable-background="new 0 0 1139.8 1080" xml:space="preserve">
<g>
	<path fill="#FFFFFF" d="M535.7,484.2h81c3.6,0,6.5,2.9,6.5,6.5v112.1c0,3.6-2.9,6.5-6.5,6.5h-81c-3.6,0-6.5-2.9-6.5-6.5V490.7
		C529.2,487.1,532.1,484.2,535.7,484.2L535.7,484.2z M535.7,484.2"/>
	<path fill="#9CC47F" d="M528,476.5h81c3.6,0,6.5,2.9,6.5,6.5v112.1c0,3.6-2.9,6.5-6.5,6.5h-81c-3.6,0-6.5-2.9-6.5-6.5V483
		C521.5,479.4,524.4,476.5,528,476.5L528,476.5z M528,476.5"/>
	<path fill="#0075B1" d="M521.5,470h81c3.6,0,6.5,2.9,6.5,6.5v112.1c0,3.6-2.9,6.5-6.5,6.5h-81c-3.6,0-6.5-2.9-6.5-6.5V476.5
		C515,472.9,517.9,470,521.5,470L521.5,470z M521.5,470"/>
	<path fill="#7FBAD8" d="M554.4,494.3h41.2c0.5,0,0.9,0.4,0.9,0.9v3.2c0,0.5-0.4,0.9-0.9,0.9h-41.2c-0.5,0-0.9-0.4-0.9-0.9v-3.2
		C553.5,494.7,553.9,494.3,554.4,494.3L554.4,494.3z M554.4,494.3"/>
	<path fill="#7FBAD8" d="M532.6,498.1l10.8-10.8c0.4-0.4,0.9-0.4,1.3,0l2.3,2.3c0.4,0.4,0.4,0.9,0,1.3l-10.8,10.8
		c-0.4,0.4-0.9,0.4-1.3,0l-2.3-2.3C532.3,499,532.3,498.4,532.6,498.1L532.6,498.1z M532.6,498.1"/>
	<path fill="#7FBAD8" d="M534.9,501.6l-7.2-7.2c-0.4-0.4-0.4-0.9,0-1.3l2.3-2.3c0.4-0.4,0.9-0.4,1.3,0l7.2,7.2
		c0.4,0.4,0.4,0.9,0,1.3l-2.3,2.3C535.8,502,535.2,502,534.9,501.6L534.9,501.6z M534.9,501.6"/>
	<path fill="#7FBAD8" d="M554.4,519.7h41.2c0.5,0,0.9,0.4,0.9,0.9v3.2c0,0.5-0.4,0.9-0.9,0.9h-41.2c-0.5,0-0.9-0.4-0.9-0.9v-3.2
		C553.5,520.1,553.9,519.7,554.4,519.7L554.4,519.7z M554.4,519.7"/>
	<path fill="#7FBAD8" d="M532.6,523.5l10.8-10.8c0.4-0.4,0.9-0.4,1.3,0l2.3,2.3c0.4,0.4,0.4,0.9,0,1.3L536.2,527
		c-0.4,0.4-0.9,0.4-1.3,0l-2.3-2.3C532.3,524.4,532.3,523.8,532.6,523.5L532.6,523.5z M532.6,523.5"/>
	<path fill="#7FBAD8" d="M534.9,527l-7.2-7.2c-0.4-0.4-0.4-0.9,0-1.3l2.3-2.3c0.4-0.4,0.9-0.4,1.3,0l7.2,7.2c0.4,0.4,0.4,0.9,0,1.3
		l-2.3,2.3C535.8,527.4,535.2,527.4,534.9,527L534.9,527z M534.9,527"/>
	<path fill="#7FBAD8" d="M554.4,545.1h41.2c0.5,0,0.9,0.4,0.9,0.9v3.2c0,0.5-0.4,0.9-0.9,0.9h-41.2c-0.5,0-0.9-0.4-0.9-0.9V546
		C553.5,545.5,553.9,545.1,554.4,545.1L554.4,545.1z M554.4,545.1"/>
	<path fill="#7FBAD8" d="M532.6,548.9l10.8-10.8c0.4-0.4,0.9-0.4,1.3,0l2.3,2.3c0.4,0.4,0.4,0.9,0,1.3l-10.8,10.8
		c-0.4,0.4-0.9,0.4-1.3,0l-2.3-2.3C532.3,549.8,532.3,549.2,532.6,548.9L532.6,548.9z M532.6,548.9"/>
	<path fill="#7FBAD8" d="M534.9,552.4l-7.2-7.2c-0.4-0.4-0.4-0.9,0-1.3l2.3-2.3c0.4-0.4,0.9-0.4,1.3,0l7.2,7.2
		c0.4,0.4,0.4,0.9,0,1.3l-2.3,2.3C535.8,552.8,535.2,552.8,534.9,552.4L534.9,552.4z M534.9,552.4"/>
	<path fill="#7FBAD8" d="M554.4,570.5h41.2c0.5,0,0.9,0.4,0.9,0.9v3.2c0,0.5-0.4,0.9-0.9,0.9h-41.2c-0.5,0-0.9-0.4-0.9-0.9v-3.2
		C553.5,570.9,553.9,570.5,554.4,570.5L554.4,570.5z M554.4,570.5"/>
	<path fill="#7FBAD8" d="M532.6,574.3l10.8-10.8c0.4-0.4,0.9-0.4,1.3,0l2.3,2.3c0.4,0.4,0.4,0.9,0,1.3l-10.8,10.8
		c-0.4,0.4-0.9,0.4-1.3,0l-2.3-2.3C532.3,575.2,532.3,574.6,532.6,574.3L532.6,574.3z M532.6,574.3"/>
	<path fill="#7FBAD8" d="M534.9,577.8l-7.2-7.2c-0.4-0.4-0.4-0.9,0-1.3l2.3-2.3c0.4-0.4,0.9-0.4,1.3,0l7.2,7.2
		c0.4,0.4,0.4,0.9,0,1.3l-2.3,2.3C535.8,578.2,535.2,578.2,534.9,577.8L534.9,577.8z M534.9,577.8"/>
</g>
</svg>
