<?xml version="1.0" encoding="utf-8"?>
<!-- Generator: Adobe Illustrator 16.0.0, SVG Export Plug-In . SVG Version: 6.00 Build 0)  -->
<!DOCTYPE svg PUBLIC "-//W3C//DTD SVG 1.1//EN" "http://www.w3.org/Graphics/SVG/1.1/DTD/svg11.dtd">
<svg version="1.1" id="Layer_1" xmlns="http://www.w3.org/2000/svg" xmlns:xlink="http://www.w3.org/1999/xlink" x="0px" y="0px"
	 width="82.35px" height="58.068px" viewBox="0 0 82.35 58.068" enable-background="new 0 0 82.35 58.068" xml:space="preserve">
<g>
	<path fill="#0074B1" d="M45.391,27.69c-1.194-2.572-1.793-5.383-1.793-8.433c0-5.683,1.854-10.286,5.502-13.875
		C52.747,1.794,57.412,0,63.094,0c5.441,0,9.986,1.733,13.695,5.143c3.707,3.409,5.561,8.074,5.561,13.994
		c0,5.143-1.674,10.227-5.083,15.13L60.822,58.069H41.205l9.808-24.041C48.441,32.355,46.588,30.261,45.391,27.69z M4.246,27.69
		c-1.196-2.572-1.794-5.383-1.794-8.433c0-5.683,1.854-10.286,5.502-13.875C11.602,1.793,16.266,0,21.948,0
		c5.441,0,9.986,1.733,13.694,5.143s5.562,8.074,5.562,13.994c0,5.143-1.674,10.227-5.083,15.13L19.676,58.069H0l9.808-24.041
		C7.296,32.355,5.442,30.261,4.246,27.69z"/>
</g>
</svg>
