<?xml version="1.0" encoding="utf-8"?>
<!-- Generator: Adobe Illustrator 18.1.1, SVG Export Plug-In . SVG Version: 6.00 Build 0)  -->
<!DOCTYPE svg PUBLIC "-//W3C//DTD SVG 1.1//EN" "http://www.w3.org/Graphics/SVG/1.1/DTD/svg11.dtd">
<svg version="1.1" id="Layer_1" xmlns="http://www.w3.org/2000/svg" xmlns:xlink="http://www.w3.org/1999/xlink" x="0px" y="0px"
	 viewBox="0 0 792 612" enable-background="new 0 0 792 612" xml:space="preserve">
<g>
	<path fill="#0074B1" d="M389,308.2c2,4.3,3,9,3,14.1c0,9.5-3.1,17.2-9.2,23.2c-6.1,6-13.9,9-23.4,9c-9.1,0-16.7-2.9-22.9-8.6
		c-6.2-5.7-9.3-13.5-9.3-23.4c0-8.6,2.8-17.1,8.5-25.3l27.5-39.8H396l-16.4,40.2C383.9,300.4,387,303.9,389,308.2z M457.8,308.2
		c2,4.3,3,9,3,14.1c0,9.5-3.1,17.2-9.2,23.2c-6.1,6-13.9,9-23.4,9c-9.1,0-16.7-2.9-22.9-8.6c-6.2-5.7-9.3-13.5-9.3-23.4
		c0-8.6,2.8-17.1,8.5-25.3l27.5-39.8h32.9l-16.4,40.2C452.7,300.4,455.8,303.9,457.8,308.2z"/>
</g>
</svg>
