<?xml version="1.0" encoding="utf-8"?>
<!-- Generator: Adobe Illustrator 16.0.0, SVG Export Plug-In . SVG Version: 6.00 Build 0)  -->
<!DOCTYPE svg PUBLIC "-//W3C//DTD SVG 1.1//EN" "http://www.w3.org/Graphics/SVG/1.1/DTD/svg11.dtd">
<svg version="1.1" id="Layer_1" xmlns="http://www.w3.org/2000/svg" xmlns:xlink="http://www.w3.org/1999/xlink" x="0px" y="0px"
	 width="82.35px" height="58.068px" viewBox="0 0 82.35 58.068" enable-background="new 0 0 82.35 58.068" xml:space="preserve">
<g>
	<path fill="#0074B1" d="M36.958,30.379c1.196,2.571,1.794,5.384,1.794,8.434c0,5.682-1.854,10.286-5.502,13.875
		c-3.647,3.588-8.312,5.382-13.994,5.382c-5.441,0-9.986-1.734-13.694-5.145c-3.708-3.407-5.562-8.072-5.562-13.993
		c0-5.144,1.674-10.227,5.083-15.131L21.529-0.001h19.617L31.337,24.04C33.909,25.715,35.764,27.809,36.958,30.379z M78.105,30.379
		c1.194,2.571,1.794,5.384,1.794,8.434c0,5.682-1.854,10.286-5.502,13.875c-3.647,3.588-8.313,5.382-13.994,5.382
		c-5.442,0-9.987-1.734-13.695-5.145c-3.708-3.407-5.562-8.072-5.562-13.993c0-5.144,1.674-10.227,5.084-15.131L62.674-0.001h19.677
		l-9.81,24.041C75.054,25.715,76.908,27.809,78.105,30.379z"/>
</g>
</svg>
