<?xml version="1.0" encoding="utf-8"?>
<!-- Generator: Adobe Illustrator 18.1.1, SVG Export Plug-In . SVG Version: 6.00 Build 0)  -->
<!DOCTYPE svg PUBLIC "-//W3C//DTD SVG 1.1//EN" "http://www.w3.org/Graphics/SVG/1.1/DTD/svg11.dtd">
<svg version="1.1" id="Layer_1" xmlns="http://www.w3.org/2000/svg" xmlns:xlink="http://www.w3.org/1999/xlink" x="0px" y="0px"
	 viewBox="0 0 1139.8 1080" enable-background="new 0 0 1139.8 1080" xml:space="preserve">
<g>
	<path fill="#7FBAD8" d="M584.2,540.5c0,8.1-6.6,14.7-14.7,14.7c-8.1,0-14.7-6.6-14.7-14.7c0-8.1,6.6-14.7,14.7-14.7
		C577.7,525.8,584.2,532.4,584.2,540.5L584.2,540.5z M584.2,540.5"/>
	<path fill="#7FBAD8" d="M569.5,548.1c1.2,0,2.2,1,2.2,2.2v45.4c0,1.2-1,2.2-2.2,2.2c-1.2,0-2.2-1-2.2-2.2v-45.4
		C567.4,549.1,568.3,548.1,569.5,548.1L569.5,548.1z M569.5,548.1"/>
	<path fill="#7FBAD8" d="M580.8,599.8c0,6.2-5,11.2-11.2,11.2c-6.2,0-11.2-5-11.2-11.2c0-6.2,5-11.2,11.2-11.2
		C575.7,588.6,580.8,593.6,580.8,599.8L580.8,599.8z M580.8,599.8"/>
	<path fill="#7FBAD8" d="M569.5,533c1.2,0,2.2-1,2.2-2.2v-45.4c0-1.2-1-2.2-2.2-2.2c-1.2,0-2.2,1-2.2,2.2v45.4
		C567.4,532,568.3,533,569.5,533L569.5,533z M569.5,533"/>
	<path fill="#7FBAD8" d="M580.8,481.2c0-6.2-5-11.2-11.2-11.2c-6.2,0-11.2,5-11.2,11.2s5,11.2,11.2,11.2
		C575.7,492.5,580.8,487.4,580.8,481.2L580.8,481.2z M580.8,481.2"/>
	<path fill="#7FBAD8" d="M564.2,545.9c0.8,0.8,0.8,2.2,0,3.1L532.1,581c-0.8,0.8-2.2,0.8-3.1,0c-0.8-0.8-0.8-2.2,0-3.1l32.1-32.1
		C562,545,563.3,545,564.2,545.9L564.2,545.9z M564.2,545.9"/>
	<path fill="#7FBAD8" d="M535.5,590.4c-4.4,4.4-11.5,4.4-15.9,0c-4.4-4.4-4.4-11.5,0-15.9c4.4-4.4,11.5-4.4,15.9,0
		C539.9,578.9,539.9,586,535.5,590.4L535.5,590.4z M535.5,590.4"/>
	<path fill="#7FBAD8" d="M574.9,535.2c0.8,0.8,2.2,0.8,3.1,0l32.1-32.1c0.8-0.8,0.8-2.2,0-3.1c-0.8-0.8-2.2-0.8-3.1,0l-32.1,32.1
		C574,533,574,534.3,574.9,535.2L574.9,535.2z M574.9,535.2"/>
	<path fill="#7FBAD8" d="M619.4,506.5c4.4-4.4,4.4-11.5,0-15.9c-4.4-4.4-11.5-4.4-15.9,0c-4.4,4.4-4.4,11.5,0,15.9
		S615,510.9,619.4,506.5L619.4,506.5z M619.4,506.5"/>
	<path fill="#7FBAD8" d="M562,540.5c0,1.2-1,2.2-2.2,2.2h-45.4c-1.2,0-2.2-1-2.2-2.2c0-1.2,1-2.2,2.2-2.2h45.4
		C561,538.4,562,539.3,562,540.5L562,540.5z M562,540.5"/>
	<path fill="#7FBAD8" d="M510.2,551.8c-6.2,0-11.2-5-11.2-11.2c0-6.2,5-11.2,11.2-11.2c6.2,0,11.2,5,11.2,11.2
		C521.5,546.7,516.4,551.8,510.2,551.8L510.2,551.8z M510.2,551.8"/>
	<path fill="#7FBAD8" d="M577.1,540.5c0,1.2,1,2.2,2.2,2.2h45.4c1.2,0,2.2-1,2.2-2.2c0-1.2-1-2.2-2.2-2.2h-45.4
		C578.1,538.4,577.1,539.3,577.1,540.5L577.1,540.5z M577.1,540.5"/>
	<path fill="#7FBAD8" d="M628.8,551.8c6.2,0,11.2-5,11.2-11.2c0-6.2-5-11.2-11.2-11.2c-6.2,0-11.2,5-11.2,11.2
		C617.6,546.7,622.6,551.8,628.8,551.8L628.8,551.8z M628.8,551.8"/>
	<path fill="#7FBAD8" d="M564.2,535.2c-0.8,0.8-2.2,0.8-3.1,0L529,503.1c-0.8-0.8-0.8-2.2,0-3.1c0.8-0.8,2.2-0.8,3.1,0l32.1,32.1
		C565,533,565,534.3,564.2,535.2L564.2,535.2z M564.2,535.2"/>
	<path fill="#7FBAD8" d="M519.7,506.5c-4.4-4.4-4.4-11.5,0-15.9c4.4-4.4,11.5-4.4,15.9,0c4.4,4.4,4.4,11.5,0,15.9
		C531.2,510.9,524,510.9,519.7,506.5L519.7,506.5z M519.7,506.5"/>
	<path fill="#7FBAD8" d="M574.9,545.9c-0.8,0.8-0.8,2.2,0,3.1L607,581c0.8,0.8,2.2,0.8,3.1,0c0.8-0.8,0.8-2.2,0-3.1l-32.1-32.1
		C577.1,545,575.7,545,574.9,545.9L574.9,545.9z M574.9,545.9"/>
	<path fill="#7FBAD8" d="M603.5,590.4c4.4,4.4,11.5,4.4,15.9,0c4.4-4.4,4.4-11.5,0-15.9c-4.4-4.4-11.5-4.4-15.9,0
		S599.1,586,603.5,590.4L603.5,590.4z M603.5,590.4"/>
	<path fill="#7FBAD8" d="M552.5,512.9c-3.7-1.5-5.5-5.8-3.9-9.5c1.5-3.7,5.8-5.5,9.5-3.9c3.7,1.5,5.5,5.8,3.9,9.5
		C560.5,512.7,556.2,514.4,552.5,512.9L552.5,512.9z M552.5,512.9"/>
	<path fill="#7FBAD8" d="M555.2,504.6c-0.5,0-1.1,0.2-1.5,0.6l-9.6,9.6c1.3,0.7,2.3,1.8,3,3.1l9.6-9.6c0.8-0.8,0.8-2.2,0-3
		C556.3,504.8,555.8,504.6,555.2,504.6L555.2,504.6z M555.2,504.6"/>
	<path fill="#7FBAD8" d="M519.9,523c-2.8,2.8-7.5,2.8-10.3,0c-2.8-2.8-2.8-7.5,0-10.3c2.8-2.8,7.5-2.8,10.3,0
		C522.7,515.5,522.7,520.1,519.9,523L519.9,523z M519.9,523"/>
	<path fill="#7FBAD8" d="M512.4,517.7c-0.6,1-0.2,2.3,0.8,2.9c1,0.6,2.3,0.2,2.9-0.8l15.7-27.2c-2.1,0.6-4,1.2-6,1.7L512.4,517.7z
		 M512.4,517.7"/>
	<path fill="#7FBAD8" d="M538,533c-3.7,1.5-8-0.2-9.5-3.9c-1.5-3.7,0.2-8,3.9-9.5c3.7-1.5,8,0.2,9.5,3.9
		C543.4,527.2,541.7,531.5,538,533L538,533z M538,533"/>
	<path fill="#7FBAD8" d="M534,525.2c-0.4,0.4-0.6,0.9-0.6,1.5v13.5c1.5-0.4,3-0.4,4.3,0.1v-13.6c0-1.2-1-2.2-2.2-2.2
		C534.9,524.6,534.4,524.8,534,525.2L534,525.2z M534,525.2"/>
	<path fill="#7FBAD8" d="M522,563.2c0,4-3.3,7.3-7.3,7.3c-4,0-7.3-3.3-7.3-7.3c0-4,3.3-7.3,7.3-7.3C518.8,555.9,522,559.2,522,563.2
		L522,563.2z M522,563.2"/>
	<path fill="#7FBAD8" d="M513,564.8c0.3,1.2,1.5,1.8,2.6,1.5c1.2-0.3,1.8-1.5,1.5-2.6l-8.1-30.3c-1,1.9-2,3.7-3,5.5L513,564.8z
		 M513,564.8"/>
	<path fill="#7FBAD8" d="M541.9,557.5c-1.5,3.7-5.8,5.5-9.5,3.9c-3.7-1.5-5.5-5.8-3.9-9.5c1.5-3.7,5.8-5.5,9.5-3.9
		C541.7,549.6,543.4,553.8,541.9,557.5L541.9,557.5z M541.9,557.5"/>
	<path fill="#7FBAD8" d="M533.6,554.8c0,0.6,0.2,1.1,0.6,1.5l9.6,9.6c0.7-1.3,1.8-2.3,3.1-3l-9.6-9.6c-0.8-0.8-2.2-0.8-3,0
		C533.8,553.7,533.6,554.3,533.6,554.8L533.6,554.8z M533.6,554.8"/>
	<path fill="#7FBAD8" d="M552,590.2c2.8,2.8,2.8,7.5,0,10.3c-2.8,2.8-7.5,2.8-10.3,0c-2.8-2.8-2.8-7.5,0-10.3
		C544.5,587.3,549.1,587.3,552,590.2L552,590.2z M552,590.2"/>
	<path fill="#7FBAD8" d="M546.7,597.7c1,0.6,2.3,0.2,2.9-0.8c0.6-1,0.2-2.3-0.8-2.9l-27.2-15.7c0.6,2.1,1.2,4,1.7,6L546.7,597.7z
		 M546.7,597.7"/>
	<path fill="#7FBAD8" d="M562,572.1c1.5,3.7-0.2,8-3.9,9.5c-3.7,1.5-8-0.2-9.5-3.9c-1.5-3.7,0.2-8,3.9-9.5
		C556.2,566.6,560.5,568.4,562,572.1L562,572.1z M562,572.1"/>
	<path fill="#7FBAD8" d="M554.2,576c0.4,0.4,0.9,0.6,1.5,0.6h13.5c-0.4-1.5-0.4-3,0.1-4.3h-13.6c-1.2,0-2.2,1-2.2,2.2
		C553.6,575.1,553.8,575.7,554.2,576L554.2,576z M554.2,576"/>
	<path fill="#7FBAD8" d="M592.2,588c4,0,7.3,3.3,7.3,7.3c0,4-3.3,7.3-7.3,7.3c-4,0-7.3-3.3-7.3-7.3C584.9,591.3,588.2,588,592.2,588
		L592.2,588z M592.2,588"/>
	<path fill="#7FBAD8" d="M593.8,597.1c1.2-0.3,1.8-1.5,1.5-2.6c-0.3-1.2-1.5-1.8-2.6-1.5l-30.3,8.1c1.9,1,3.7,2,5.5,3L593.8,597.1z
		 M593.8,597.1"/>
	<path fill="#7FBAD8" d="M586.5,568.2c3.7,1.5,5.5,5.8,3.9,9.5c-1.5,3.7-5.8,5.5-9.5,3.9c-3.7-1.5-5.5-5.8-3.9-9.5
		C578.6,568.4,582.8,566.6,586.5,568.2L586.5,568.2z M586.5,568.2"/>
	<path fill="#7FBAD8" d="M583.8,576.5c0.6,0,1.1-0.2,1.5-0.6l9.6-9.6c-1.3-0.7-2.3-1.8-3-3.1l-9.6,9.6c-0.8,0.8-0.8,2.2,0,3
		C582.7,576.3,583.3,576.5,583.8,576.5L583.8,576.5z M583.8,576.5"/>
	<path fill="#7FBAD8" d="M619.2,558.1c2.8-2.8,7.5-2.8,10.3,0c2.8,2.8,2.8,7.5,0,10.3c-2.8,2.8-7.5,2.8-10.3,0
		C616.3,565.5,616.3,560.9,619.2,558.1L619.2,558.1z M619.2,558.1"/>
	<path fill="#7FBAD8" d="M626.7,563.4c0.6-1,0.2-2.3-0.8-2.9c-1-0.6-2.3-0.2-2.9,0.8l-15.7,27.2c2.1-0.6,4-1.2,6-1.7L626.7,563.4z
		 M626.7,563.4"/>
	<path fill="#7FBAD8" d="M601.1,548c3.7-1.5,8,0.2,9.5,3.9c1.5,3.7-0.2,8-3.9,9.5c-3.7,1.5-8-0.2-9.5-3.9
		C595.6,553.8,597.4,549.6,601.1,548L601.1,548z M601.1,548"/>
	<path fill="#7FBAD8" d="M605,555.8c0.4-0.4,0.6-0.9,0.6-1.5v-13.5c-1.5,0.4-3,0.4-4.3-0.1v13.6c0,1.2,1,2.2,2.2,2.2
		C604.1,556.5,604.7,556.2,605,555.8L605,555.8z M605,555.8"/>
	<path fill="#7FBAD8" d="M617,517.8c0-4,3.3-7.3,7.3-7.3c4,0,7.3,3.3,7.3,7.3c0,4-3.3,7.3-7.3,7.3C620.3,525.1,617,521.9,617,517.8
		L617,517.8z M617,517.8"/>
	<path fill="#7FBAD8" d="M626.1,516.3c-0.3-1.2-1.5-1.8-2.6-1.5c-1.2,0.3-1.8,1.5-1.5,2.6l8.1,30.3c1-1.9,2-3.7,3-5.5L626.1,516.3z
		 M626.1,516.3"/>
	<path fill="#7FBAD8" d="M597.2,523.5c1.5-3.7,5.8-5.5,9.5-3.9c3.7,1.5,5.5,5.8,3.9,9.5c-1.5,3.7-5.8,5.5-9.5,3.9
		C597.4,531.5,595.6,527.2,597.2,523.5L597.2,523.5z M597.2,523.5"/>
	<path fill="#7FBAD8" d="M605.5,526.2c0-0.5-0.2-1.1-0.6-1.5l-9.6-9.6c-0.7,1.3-1.8,2.3-3.1,3l9.6,9.6c0.8,0.8,2.2,0.8,3,0
		C605.3,527.3,605.5,526.8,605.5,526.2L605.5,526.2z M605.5,526.2"/>
	<path fill="#7FBAD8" d="M587.1,490.9c-2.8-2.8-2.8-7.5,0-10.3c2.8-2.8,7.5-2.8,10.3,0c2.8,2.8,2.8,7.5,0,10.3
		C594.5,493.7,589.9,493.7,587.1,490.9L587.1,490.9z M587.1,490.9"/>
	<path fill="#7FBAD8" d="M592.4,483.4c-1-0.6-2.3-0.2-2.9,0.8c-0.6,1-0.2,2.3,0.8,2.9l27.2,15.7c-0.6-2.1-1.2-4-1.7-6L592.4,483.4z
		 M592.4,483.4"/>
	<path fill="#7FBAD8" d="M577,509c-1.5-3.7,0.2-8,3.9-9.5s8,0.2,9.5,3.9c1.5,3.7-0.2,8-3.9,9.5C582.8,514.4,578.6,512.7,577,509
		L577,509z M577,509"/>
	<path fill="#7FBAD8" d="M584.8,505c-0.4-0.4-0.9-0.6-1.5-0.6h-13.5c0.4,1.5,0.4,3-0.1,4.3h13.6c1.2,0,2.2-1,2.2-2.2
		C585.5,505.9,585.2,505.4,584.8,505L584.8,505z M584.8,505"/>
	<path fill="#7FBAD8" d="M546.8,493c-4,0-7.3-3.3-7.3-7.3c0-4,3.3-7.3,7.3-7.3s7.3,3.3,7.3,7.3C554.1,489.8,550.9,493,546.8,493
		L546.8,493z M546.8,493"/>
	<path fill="#7FBAD8" d="M545.3,484c-1.2,0.3-1.8,1.5-1.5,2.6c0.3,1.2,1.5,1.8,2.6,1.5l30.3-8.1c-1.9-1-3.7-2-5.5-3L545.3,484z
		 M545.3,484"/>
	<path fill="#0075B1" d="M575.2,481.2c0-3.2-2.6-5.7-5.7-5.7c-3.2,0-5.7,2.6-5.7,5.7c0,3.2,2.6,5.7,5.7,5.7
		C572.7,486.9,575.2,484.4,575.2,481.2L575.2,481.2z M575.2,481.2"/>
	<path fill="#0075B1" d="M575.2,599.8c0-3.2-2.6-5.7-5.7-5.7c-3.2,0-5.7,2.6-5.7,5.7c0,3.2,2.6,5.7,5.7,5.7
		C572.7,605.5,575.2,603,575.2,599.8L575.2,599.8z M575.2,599.8"/>
	<path fill="#0075B1" d="M634.5,540.5c0-3.2-2.6-5.7-5.7-5.7c-3.2,0-5.7,2.6-5.7,5.7c0,3.2,2.6,5.7,5.7,5.7
		C632,546.2,634.5,543.7,634.5,540.5L634.5,540.5z M634.5,540.5"/>
	<path fill="#0075B1" d="M515.9,540.5c0-3.2-2.6-5.7-5.7-5.7c-3.2,0-5.7,2.6-5.7,5.7c0,3.2,2.6,5.7,5.7,5.7
		C513.4,546.2,515.9,543.7,515.9,540.5L515.9,540.5z M515.9,540.5"/>
	<path fill="#0075B1" d="M617.2,498.6c0-3.2-2.6-5.7-5.7-5.7c-3.2,0-5.7,2.6-5.7,5.7c0,3.2,2.6,5.7,5.7,5.7
		C614.6,504.3,617.2,501.8,617.2,498.6L617.2,498.6z M617.2,498.6"/>
	<path fill="#0075B1" d="M533.3,498.6c0-3.2-2.6-5.7-5.7-5.7c-3.2,0-5.7,2.6-5.7,5.7c0,3.2,2.6,5.7,5.7,5.7
		C530.8,504.3,533.3,501.8,533.3,498.6L533.3,498.6z M533.3,498.6"/>
	<path fill="#0075B1" d="M617.2,582.4c0-3.2-2.6-5.7-5.7-5.7c-3.2,0-5.7,2.6-5.7,5.7c0,3.2,2.6,5.7,5.7,5.7
		C614.6,588.2,617.2,585.6,617.2,582.4L617.2,582.4z M617.2,582.4"/>
	<path fill="#0075B1" d="M533.3,582.4c0-3.2-2.6-5.7-5.7-5.7c-3.2,0-5.7,2.6-5.7,5.7c0,3.2,2.6,5.7,5.7,5.7
		C530.8,588.2,533.3,585.6,533.3,582.4L533.3,582.4z M533.3,582.4"/>
	<path fill="#9CC47F" d="M578.1,540.5c0-4.7-3.8-8.5-8.5-8.5c-4.7,0-8.5,3.8-8.5,8.5c0,4.7,3.8,8.5,8.5,8.5
		C574.2,549.1,578.1,545.2,578.1,540.5L578.1,540.5z M578.1,540.5"/>
	<path fill="#9CC47F" d="M559.2,506.2c0-2.1-1.7-3.9-3.9-3.9c-2.1,0-3.9,1.7-3.9,3.9c0,2.2,1.7,3.9,3.9,3.9
		C557.4,510.1,559.2,508.3,559.2,506.2L559.2,506.2z M559.2,506.2"/>
	<path fill="#9CC47F" d="M539.1,526.3c0-2.1-1.7-3.9-3.9-3.9c-2.1,0-3.9,1.7-3.9,3.9c0,2.1,1.7,3.9,3.9,3.9
		C537.3,530.2,539.1,528.4,539.1,526.3L539.1,526.3z M539.1,526.3"/>
	<path fill="#9CC47F" d="M539.1,554.8c0-2.1-1.7-3.9-3.9-3.9c-2.1,0-3.9,1.7-3.9,3.9c0,2.1,1.7,3.9,3.9,3.9
		C537.3,558.6,539.1,556.9,539.1,554.8L539.1,554.8z M539.1,554.8"/>
	<path fill="#9CC47F" d="M559.2,574.9c0-2.1-1.7-3.9-3.9-3.9c-2.1,0-3.9,1.7-3.9,3.9c0,2.2,1.7,3.9,3.9,3.9
		C557.4,578.8,559.2,577,559.2,574.9L559.2,574.9z M559.2,574.9"/>
	<path fill="#9CC47F" d="M587.6,574.9c0-2.1-1.7-3.9-3.9-3.9c-2.1,0-3.9,1.7-3.9,3.9c0,2.2,1.7,3.9,3.9,3.9
		C585.9,578.8,587.6,577,587.6,574.9L587.6,574.9z M587.6,574.9"/>
	<path fill="#9CC47F" d="M607.8,554.8c0-2.1-1.7-3.9-3.9-3.9c-2.2,0-3.9,1.7-3.9,3.9c0,2.1,1.7,3.9,3.9,3.9
		C606,558.6,607.8,556.9,607.8,554.8L607.8,554.8z M607.8,554.8"/>
	<path fill="#9CC47F" d="M607.8,526.3c0-2.1-1.7-3.9-3.9-3.9c-2.1,0-3.9,1.7-3.9,3.9c0,2.1,1.7,3.9,3.9,3.9
		C606,530.2,607.8,528.4,607.8,526.3L607.8,526.3z M607.8,526.3"/>
	<path fill="#9CC47F" d="M587.6,506.2c0-2.1-1.7-3.9-3.9-3.9c-2.1,0-3.9,1.7-3.9,3.9s1.7,3.9,3.9,3.9
		C585.9,510.1,587.6,508.3,587.6,506.2L587.6,506.2z M587.6,506.2"/>
	<path fill="#E2EDD9" d="M550.7,485.7c0-2.1-1.7-3.9-3.9-3.9s-3.9,1.7-3.9,3.9c0,2.1,1.7,3.9,3.9,3.9S550.7,487.9,550.7,485.7
		L550.7,485.7z M550.7,485.7"/>
	<path fill="#E2EDD9" d="M518.6,517.8c0-2.1-1.7-3.9-3.9-3.9c-2.1,0-3.9,1.7-3.9,3.9c0,2.1,1.7,3.9,3.9,3.9
		C516.9,521.7,518.6,520,518.6,517.8L518.6,517.8z M518.6,517.8"/>
	<path fill="#E2EDD9" d="M518.6,563.2c0-2.1-1.7-3.9-3.9-3.9c-2.1,0-3.9,1.7-3.9,3.9c0,2.1,1.7,3.9,3.9,3.9
		C516.9,567.1,518.6,565.4,518.6,563.2L518.6,563.2z M518.6,563.2"/>
	<path fill="#E2EDD9" d="M550.7,595.3c0-2.1-1.7-3.9-3.9-3.9s-3.9,1.7-3.9,3.9c0,2.1,1.7,3.9,3.9,3.9S550.7,597.5,550.7,595.3
		L550.7,595.3z M550.7,595.3"/>
	<path fill="#E2EDD9" d="M596.1,595.3c0-2.1-1.7-3.9-3.9-3.9c-2.1,0-3.9,1.7-3.9,3.9c0,2.1,1.7,3.9,3.9,3.9
		C594.4,599.2,596.1,597.5,596.1,595.3L596.1,595.3z M596.1,595.3"/>
	<path fill="#E2EDD9" d="M628.2,563.2c0-2.1-1.7-3.9-3.9-3.9c-2.1,0-3.9,1.7-3.9,3.9c0,2.1,1.7,3.9,3.9,3.9
		C626.5,567.1,628.2,565.4,628.2,563.2L628.2,563.2z M628.2,563.2"/>
	<path fill="#E2EDD9" d="M628.2,517.8c0-2.1-1.7-3.9-3.9-3.9c-2.1,0-3.9,1.7-3.9,3.9c0,2.1,1.7,3.9,3.9,3.9
		C626.5,521.7,628.2,520,628.2,517.8L628.2,517.8z M628.2,517.8"/>
	<path fill="#E2EDD9" d="M596.1,485.7c0-2.1-1.7-3.9-3.9-3.9c-2.1,0-3.9,1.7-3.9,3.9c0,2.1,1.7,3.9,3.9,3.9
		C594.4,489.6,596.1,487.9,596.1,485.7L596.1,485.7z M596.1,485.7"/>
</g>
</svg>
